<svg xmlns="http://www.w3.org/2000/svg" viewBox="0 0 606.47 606.47"><defs><style>.cls-1{fill:#344d3b;stroke:#344d3b;stroke-width:5.8px;fill-rule:evenodd;}.cls-1,.cls-3,.cls-4,.cls-5{stroke-miterlimit:10;}.cls-2,.cls-4{fill:#c1b498;}.cls-3{fill:#aa9e87;}.cls-3,.cls-5{stroke:#aa9e87;}.cls-4{stroke:#c1b498;}.cls-5{fill:none;stroke-width:10px;}</style></defs><g id="Layer_2" data-name="Layer 2"><path class="cls-1" d="M344.14,582.68l1.95-230.33c-.56-25.7-28.39-37.49-28.39-53.41V224.6h.8a2.23,2.23,0,0,0,2-2.4v-8.61a2.22,2.22,0,0,0-2-2.39h-.8v-6.33l0-.07v-.07l0-.07v-.07l0-.06,0-.07,0-.07h0l0-.06h0l0-.07,0-.06h0l0-.06h0a2.68,2.68,0,0,0-.12-.24,2.58,2.58,0,0,0-1.21-1.17l-.06,0h0l-.05,0h0l-.06,0h0l-.06,0h0l-.06,0h-.05l-.06,0H291.37l-.18,0h0a3.92,3.92,0,0,0-2.77,2.78h0l0,.1h0a3.9,3.9,0,0,0-.16.84l0,.11v.1h0v4.64h-.81a2.22,2.22,0,0,0-2,2.39v8.61a2.23,2.23,0,0,0,2,2.4h.81v74.34c0,16.44-28.67,26.89-28.4,53.41L262,582.7c.06,6.82,4.74,12.35,10.46,12.35h61.24c5.74,0,10.42-5.53,10.47-12.37ZM291.37,202.59h0l-.18,0Z"/><polyline class="cls-2" points="292.05 186.28 281.45 113.4 324.44 113.4 313.84 186.28"/><polygon class="cls-2" points="314.34 186.35 313.35 186.2 323.86 113.9 282.03 113.9 292.54 186.2 291.55 186.35 280.87 112.9 325.02 112.9 314.34 186.35"/><ellipse class="cls-3" cx="302.94" cy="112.9" rx="21.5" ry="6.93"/><ellipse class="cls-4" cx="302.94" cy="186.28" rx="10.9" ry="3.72"/><polygon class="cls-3" points="308.1 138.07 309.56 139.32 307.75 139.96 305.93 140.59 306.29 138.71 306.64 136.82 308.1 138.07"/><polygon class="cls-3" points="315.85 131.14 316.43 132.97 314.55 132.56 312.68 132.15 313.97 130.73 315.26 129.31 315.85 131.14"/><polygon class="cls-3" points="307.66 149.4 308.64 151.06 306.72 151.08 304.8 151.09 305.74 149.42 306.68 147.75 307.66 149.4"/><polygon class="cls-3" points="299.13 141.81 300.23 143.38 298.32 143.55 296.41 143.72 297.22 141.98 298.03 140.24 299.13 141.81"/><polygon class="cls-3" points="315.61 142.85 317.06 144.1 315.25 144.74 313.44 145.38 313.79 143.49 314.15 141.6 315.61 142.85"/><polygon class="cls-3" points="293.35 134.66 294.81 135.91 293 136.55 291.19 137.18 291.54 135.29 291.9 133.41 293.35 134.66"/><polygon class="cls-3" points="312.31 155.12 314.22 154.95 313.41 156.69 312.59 158.43 311.49 156.85 310.4 155.28 312.31 155.12"/><polygon class="cls-3" points="295.76 167.04 297.01 168.49 295.13 168.85 293.24 169.21 293.87 167.39 294.51 165.58 295.76 167.04"/><polygon class="cls-3" points="311.32 168.21 312.22 169.91 310.3 169.83 308.38 169.76 309.4 168.14 310.43 166.51 311.32 168.21"/><polygon class="cls-3" points="303.73 175.12 304.53 176.87 302.62 176.68 300.7 176.5 301.82 174.94 302.93 173.37 303.73 175.12"/><polygon class="cls-3" points="298.03 182.83 299.49 184.08 297.68 184.72 295.86 185.35 296.22 183.47 296.57 181.58 298.03 182.83"/><polygon class="cls-3" points="309.46 183.23 310.46 184.87 308.54 184.91 306.62 184.96 307.54 183.27 308.46 181.59 309.46 183.23"/><polygon class="cls-3" points="296.06 151.58 296.72 153.38 294.83 153.05 292.94 152.72 294.17 151.25 295.4 149.78 296.06 151.58"/><polygon class="cls-3" points="303.69 159.9 305.14 161.16 303.33 161.79 301.52 162.43 301.88 160.54 302.23 158.65 303.69 159.9"/><polygon class="cls-3" points="290.11 124.3 291.03 125.98 289.11 125.94 287.19 125.89 288.19 124.25 289.19 122.61 290.11 124.3"/><polygon class="cls-3" points="303.24 127.83 305.01 128.56 303.49 129.73 301.98 130.91 301.72 129 301.46 127.1 303.24 127.83"/><polygon class="cls-3" points="317.17 122.73 318.07 124.42 316.15 124.36 314.24 124.3 315.25 122.67 316.26 121.04 317.17 122.73"/><line class="cls-5" x1="193.38" y1="601.33" x2="413.1" y2="601.33"/></g></svg>