<svg id="Layer_1" data-name="Layer 1" xmlns="http://www.w3.org/2000/svg" viewBox="0 0 22 37.24"><defs><style>.cls-1,.cls-3{fill:#6275b8;}.cls-2{fill:#6275b9;}.cls-3{stroke:#6275b9;stroke-miterlimit:10;stroke-width:0.25px;}.cls-4{fill:#fff;}.cls-5{fill:#5c7a62;}</style></defs><ellipse class="cls-1" cx="16.63" cy="20" rx="2.39" ry="3.6"/><path class="cls-2" d="M24.25,23.72c-1.39,0-2.52-1.67-2.52-3.72s1.13-3.72,2.52-3.72S26.76,18,26.76,20,25.63,23.72,24.25,23.72Zm0-7.19C23,16.53,22,18.09,22,20s1,3.47,2.27,3.47,2.26-1.55,2.26-3.47S25.49,16.53,24.25,16.53Z" transform="translate(-7.62)"/><ellipse class="cls-1" cx="10.99" cy="20" rx="2.39" ry="3.6"/><path class="cls-2" d="M18.61,23.72c-1.39,0-2.52-1.67-2.52-3.72s1.13-3.72,2.52-3.72S21.12,18,21.12,20,20,23.72,18.61,23.72Zm0-7.19c-1.25,0-2.27,1.56-2.27,3.47s1,3.47,2.27,3.47,2.26-1.55,2.26-3.47S19.86,16.53,18.61,16.53Z" transform="translate(-7.62)"/><ellipse class="cls-1" cx="5.35" cy="20" rx="2.39" ry="3.6"/><path class="cls-2" d="M13,23.72c-1.39,0-2.52-1.67-2.52-3.72s1.13-3.72,2.52-3.72S15.48,18,15.48,20,14.35,23.72,13,23.72Zm0-7.19c-1.25,0-2.27,1.56-2.27,3.47s1,3.47,2.27,3.47,2.26-1.55,2.26-3.47S14.22,16.53,13,16.53Z" transform="translate(-7.62)"/><ellipse class="cls-1" cx="13.84" cy="26.76" rx="2.39" ry="3.6"/><path class="cls-2" d="M21.46,30.48c-1.39,0-2.51-1.67-2.51-3.72S20.07,23,21.46,23,24,24.71,24,26.76,22.85,30.48,21.46,30.48Zm0-7.19c-1.25,0-2.26,1.56-2.26,3.47s1,3.47,2.26,3.47,2.27-1.55,2.27-3.47S22.71,23.29,21.46,23.29Z" transform="translate(-7.62)"/><ellipse class="cls-1" cx="8.13" cy="26.76" rx="2.39" ry="3.6"/><path class="cls-2" d="M15.75,30.48c-1.39,0-2.51-1.67-2.51-3.72S14.36,23,15.75,23s2.51,1.67,2.51,3.72S17.14,30.48,15.75,30.48Zm0-7.19c-1.25,0-2.26,1.56-2.26,3.47s1,3.47,2.26,3.47S18,28.68,18,26.76,17,23.29,15.75,23.29Z" transform="translate(-7.62)"/><ellipse class="cls-1" cx="10.99" cy="33.52" rx="2.39" ry="3.6"/><path class="cls-2" d="M18.61,37.24c-1.39,0-2.52-1.67-2.52-3.72s1.13-3.72,2.52-3.72,2.51,1.67,2.51,3.72S20,37.24,18.61,37.24Zm0-7.19c-1.25,0-2.27,1.55-2.27,3.47s1,3.47,2.27,3.47,2.26-1.56,2.26-3.47S19.86,30.05,18.61,30.05Z" transform="translate(-7.62)"/><ellipse class="cls-1" cx="8.13" cy="12.81" rx="2.39" ry="3.6"/><path class="cls-2" d="M15.75,16.53c-1.39,0-2.51-1.66-2.51-3.72s1.12-3.72,2.51-3.72,2.51,1.67,2.51,3.72S17.14,16.53,15.75,16.53Zm0-7.19c-1.25,0-2.26,1.56-2.26,3.47s1,3.47,2.26,3.47S18,14.73,18,12.81,17,9.34,15.75,9.34Z" transform="translate(-7.62)"/><ellipse class="cls-1" cx="8.13" cy="12.81" rx="2.39" ry="3.6"/><path class="cls-2" d="M15.75,16.53c-1.39,0-2.51-1.66-2.51-3.72s1.12-3.72,2.51-3.72,2.51,1.67,2.51,3.72S17.14,16.53,15.75,16.53Zm0-7.19c-1.25,0-2.26,1.56-2.26,3.47s1,3.47,2.26,3.47S18,14.73,18,12.81,17,9.34,15.75,9.34Z" transform="translate(-7.62)"/><ellipse class="cls-1" cx="2.51" cy="12.81" rx="2.39" ry="3.6"/><path class="cls-2" d="M10.13,16.53c-1.39,0-2.51-1.66-2.51-3.72s1.12-3.72,2.51-3.72,2.51,1.67,2.51,3.72S11.52,16.53,10.13,16.53Zm0-7.19c-1.25,0-2.26,1.56-2.26,3.47s1,3.47,2.26,3.47,2.26-1.55,2.26-3.47S11.38,9.34,10.13,9.34Z" transform="translate(-7.62)"/><ellipse class="cls-1" cx="13.81" cy="12.81" rx="2.39" ry="3.6"/><path class="cls-2" d="M21.43,16.53c-1.39,0-2.52-1.66-2.52-3.72S20,9.09,21.43,9.09s2.51,1.67,2.51,3.72S22.81,16.53,21.43,16.53Zm0-7.19c-1.25,0-2.27,1.56-2.27,3.47s1,3.47,2.27,3.47,2.26-1.55,2.26-3.47S22.68,9.34,21.43,9.34Z" transform="translate(-7.62)"/><ellipse class="cls-1" cx="19.49" cy="12.81" rx="2.39" ry="3.6"/><path class="cls-2" d="M27.11,16.53c-1.39,0-2.52-1.66-2.52-3.72s1.13-3.72,2.52-3.72,2.51,1.67,2.51,3.72S28.49,16.53,27.11,16.53Zm0-7.19c-1.25,0-2.27,1.56-2.27,3.47s1,3.47,2.27,3.47,2.26-1.55,2.26-3.47S28.35,9.34,27.11,9.34Z" transform="translate(-7.62)"/><path class="cls-3" d="M10.12,9.49" transform="translate(-7.62)"/><path class="cls-4" d="M8.29,12.89a.12.12,0,0,1-.12-.13c0-1.59.88-2.89,2-2.89a.13.13,0,0,1,.13.13.13.13,0,0,1-.13.12c-.94,0-1.71,1.19-1.71,2.64A.13.13,0,0,1,8.29,12.89Z" transform="translate(-7.62)"/><ellipse class="cls-1" cx="8.13" cy="12.76" rx="2.39" ry="3.6"/><path class="cls-2" d="M15.75,16.48c-1.39,0-2.51-1.67-2.51-3.72S14.36,9,15.75,9s2.51,1.67,2.51,3.72S17.14,16.48,15.75,16.48Zm0-7.19c-1.25,0-2.26,1.56-2.26,3.47s1,3.47,2.26,3.47S18,14.67,18,12.76,17,9.29,15.75,9.29Z" transform="translate(-7.62)"/><path class="cls-3" d="M15.74,9.44" transform="translate(-7.62)"/><path class="cls-4" d="M13.91,12.83a.12.12,0,0,1-.12-.12c0-1.6.88-2.89,2-2.89a.12.12,0,0,1,.12.12.12.12,0,0,1-.12.13c-.95,0-1.71,1.18-1.71,2.64A.12.12,0,0,1,13.91,12.83Z" transform="translate(-7.62)"/><ellipse class="cls-1" cx="13.84" cy="12.81" rx="2.39" ry="3.6"/><path class="cls-2" d="M21.46,16.53c-1.39,0-2.51-1.66-2.51-3.72s1.12-3.72,2.51-3.72S24,10.76,24,12.81,22.85,16.53,21.46,16.53Zm0-7.19c-1.25,0-2.26,1.56-2.26,3.47s1,3.47,2.26,3.47,2.27-1.55,2.27-3.47S22.71,9.34,21.46,9.34Z" transform="translate(-7.62)"/><path class="cls-3" d="M21.45,9.49" transform="translate(-7.62)"/><path class="cls-4" d="M19.62,12.89a.12.12,0,0,1-.12-.13c0-1.59.88-2.89,2-2.89a.13.13,0,0,1,.13.13.13.13,0,0,1-.13.12c-.94,0-1.71,1.19-1.71,2.64A.13.13,0,0,1,19.62,12.89Z" transform="translate(-7.62)"/><ellipse class="cls-1" cx="19.49" cy="12.81" rx="2.39" ry="3.6"/><path class="cls-2" d="M27.11,16.53c-1.39,0-2.52-1.66-2.52-3.72s1.13-3.72,2.52-3.72,2.51,1.67,2.51,3.72S28.49,16.53,27.11,16.53Zm0-7.19c-1.25,0-2.27,1.56-2.27,3.47s1,3.47,2.27,3.47,2.26-1.55,2.26-3.47S28.35,9.34,27.11,9.34Z" transform="translate(-7.62)"/><path class="cls-3" d="M27.1,9.49" transform="translate(-7.62)"/><path class="cls-4" d="M25.27,12.89a.13.13,0,0,1-.13-.13c0-1.59.88-2.89,2-2.89a.12.12,0,0,1,.12.13.12.12,0,0,1-.12.12c-.95,0-1.72,1.19-1.72,2.64A.12.12,0,0,1,25.27,12.89Z" transform="translate(-7.62)"/><ellipse class="cls-1" cx="5.35" cy="20" rx="2.39" ry="3.6"/><path class="cls-2" d="M13,23.72c-1.39,0-2.52-1.67-2.52-3.72s1.13-3.72,2.52-3.72S15.48,18,15.48,20,14.35,23.72,13,23.72Zm0-7.19c-1.25,0-2.27,1.56-2.27,3.47s1,3.47,2.27,3.47,2.26-1.55,2.26-3.47S14.22,16.53,13,16.53Z" transform="translate(-7.62)"/><path class="cls-3" d="M13,16.68" transform="translate(-7.62)"/><path class="cls-4" d="M11.13,20.08A.12.12,0,0,1,11,20c0-1.59.88-2.89,2-2.89a.12.12,0,0,1,.12.13.12.12,0,0,1-.12.12c-1,0-1.71,1.19-1.71,2.64A.13.13,0,0,1,11.13,20.08Z" transform="translate(-7.62)"/><ellipse class="cls-1" cx="10.99" cy="20" rx="2.39" ry="3.6"/><path class="cls-2" d="M18.61,23.72c-1.39,0-2.52-1.67-2.52-3.72s1.13-3.72,2.52-3.72S21.12,18,21.12,20,20,23.72,18.61,23.72Zm0-7.19c-1.25,0-2.27,1.56-2.27,3.47s1,3.47,2.27,3.47,2.26-1.55,2.26-3.47S19.86,16.53,18.61,16.53Z" transform="translate(-7.62)"/><path class="cls-3" d="M18.6,16.68" transform="translate(-7.62)"/><path class="cls-4" d="M16.77,20.08a.12.12,0,0,1-.12-.13c0-1.59.87-2.89,2-2.89a.12.12,0,0,1,.12.13.12.12,0,0,1-.12.12c-.95,0-1.71,1.19-1.71,2.64A.13.13,0,0,1,16.77,20.08Z" transform="translate(-7.62)"/><ellipse class="cls-1" cx="16.63" cy="20" rx="2.39" ry="3.6"/><path class="cls-2" d="M24.25,23.72c-1.39,0-2.52-1.67-2.52-3.72s1.13-3.72,2.52-3.72S26.76,18,26.76,20,25.63,23.72,24.25,23.72Zm0-7.19C23,16.53,22,18.09,22,20s1,3.47,2.27,3.47,2.26-1.55,2.26-3.47S25.49,16.53,24.25,16.53Z" transform="translate(-7.62)"/><path class="cls-3" d="M24.24,16.68" transform="translate(-7.62)"/><path class="cls-4" d="M22.41,20.08a.13.13,0,0,1-.13-.13c0-1.59.88-2.89,2-2.89a.12.12,0,0,1,.12.13.12.12,0,0,1-.12.12c-.95,0-1.72,1.19-1.72,2.64A.12.12,0,0,1,22.41,20.08Z" transform="translate(-7.62)"/><ellipse class="cls-1" cx="13.84" cy="26.76" rx="2.39" ry="3.6"/><path class="cls-2" d="M21.46,30.48c-1.39,0-2.51-1.67-2.51-3.72S20.07,23,21.46,23,24,24.71,24,26.76,22.85,30.48,21.46,30.48Zm0-7.19c-1.25,0-2.26,1.56-2.26,3.47s1,3.47,2.26,3.47,2.27-1.55,2.27-3.47S22.71,23.29,21.46,23.29Z" transform="translate(-7.62)"/><path class="cls-3" d="M21.45,23.44" transform="translate(-7.62)"/><path class="cls-4" d="M19.62,26.84a.12.12,0,0,1-.12-.13c0-1.59.88-2.89,2-2.89a.13.13,0,0,1,.13.13.13.13,0,0,1-.13.12c-.94,0-1.71,1.19-1.71,2.64A.13.13,0,0,1,19.62,26.84Z" transform="translate(-7.62)"/><ellipse class="cls-1" cx="8.13" cy="26.76" rx="2.39" ry="3.6"/><path class="cls-2" d="M15.75,30.48c-1.39,0-2.51-1.67-2.51-3.72S14.36,23,15.75,23s2.51,1.67,2.51,3.72S17.14,30.48,15.75,30.48Zm0-7.19c-1.25,0-2.26,1.56-2.26,3.47s1,3.47,2.26,3.47S18,28.68,18,26.76,17,23.29,15.75,23.29Z" transform="translate(-7.62)"/><path class="cls-3" d="M15.74,23.44" transform="translate(-7.62)"/><path class="cls-4" d="M13.91,26.84a.12.12,0,0,1-.12-.13c0-1.59.88-2.89,2-2.89a.12.12,0,0,1,.12.13.12.12,0,0,1-.12.12c-.95,0-1.71,1.19-1.71,2.64A.13.13,0,0,1,13.91,26.84Z" transform="translate(-7.62)"/><ellipse class="cls-1" cx="10.99" cy="33.52" rx="2.39" ry="3.6"/><path class="cls-2" d="M18.61,37.24c-1.39,0-2.52-1.67-2.52-3.72s1.13-3.72,2.52-3.72,2.51,1.67,2.51,3.72S20,37.24,18.61,37.24Zm0-7.19c-1.25,0-2.27,1.55-2.27,3.47s1,3.47,2.27,3.47,2.26-1.56,2.26-3.47S19.86,30.05,18.61,30.05Z" transform="translate(-7.62)"/><path class="cls-3" d="M18.6,30.2" transform="translate(-7.62)"/><path class="cls-4" d="M16.77,33.59a.12.12,0,0,1-.12-.13c0-1.59.87-2.89,2-2.89a.12.12,0,0,1,.12.13.12.12,0,0,1-.12.12c-.95,0-1.71,1.19-1.71,2.64A.13.13,0,0,1,16.77,33.59Z" transform="translate(-7.62)"/><path class="cls-5" d="M15.72,3.78c1.37,1,2.48,2.9,2,3.63s-2.69.52-4.12-.54a4.68,4.68,0,0,1-1.79-3.16c-.15-1.76.8-3.26,1-3.21s-.11.52.07,1.13C13.24,2.73,14.51,2.86,15.72,3.78Z" transform="translate(-7.62)"/><path class="cls-5" d="M16.52,8.35a5.75,5.75,0,0,1-3.2-1.08,5.06,5.06,0,0,1-2-3.51A4.92,4.92,0,0,1,12.41.16.57.57,0,0,1,13,0c.46.11.41.6.39.77a1.68,1.68,0,0,0,0,.69c.15.49.55.71,1.29,1.09A9.25,9.25,0,0,1,16,3.38h0c1.37,1,2.85,3.16,2.14,4.29a1.45,1.45,0,0,1-1,.63A4,4,0,0,1,16.52,8.35ZM12.52,2a4.26,4.26,0,0,0-.19,1.65,4.19,4.19,0,0,0,1.58,2.8,4.4,4.4,0,0,0,3,.84c.23,0,.34-.11.37-.16.22-.35-.52-1.94-1.89-3a8.55,8.55,0,0,0-1.21-.72A3.17,3.17,0,0,1,12.52,2Z" transform="translate(-7.62)"/><path class="cls-5" d="M21.67,4.5c-1.13.85-2,2.38-1.66,3s2.21.42,3.39-.44a3.79,3.79,0,0,0,1.47-2.6c.13-1.45-.42-2-.58-1.91A5.93,5.93,0,0,0,24,3.3C23.73,4.21,22.67,3.75,21.67,4.5Z" transform="translate(-7.62)"/><path class="cls-5" d="M21,8.35a2.27,2.27,0,0,1-.53,0,1.27,1.27,0,0,1-.9-.55C19,6.78,20.22,5,21.37,4.1h0a3.53,3.53,0,0,1,1.5-.6c.52-.11.6-.15.66-.34a7.55,7.55,0,0,1,.31-.84l.1-.21.23-.06a.65.65,0,0,1,.61.18,2.51,2.51,0,0,1,.59,2.26,4.4,4.4,0,0,1-1.67,3A4.81,4.81,0,0,1,21,8.35Zm3.36-4.63a1.69,1.69,0,0,1-1.31.76A2.63,2.63,0,0,0,22,4.9h0c-1.1.83-1.66,2.09-1.53,2.33a3,3,0,0,0,2.67-.59A3.26,3.26,0,0,0,24.37,4.4,3.14,3.14,0,0,0,24.38,3.72Z" transform="translate(-7.62)"/></svg>