<svg id="Lag_1" data-name="Lag 1" xmlns="http://www.w3.org/2000/svg" viewBox="0 0 1602.14 1746.77"><defs><style>.cls-1{fill:#821534;}.cls-2{fill:#344d3b;}</style></defs><path class="cls-1" d="M114.27,595.51c-79.59,289.16,57.05,629,339.84,767.31,319,156.09,702.34,27.3,856.42-287.6a625.18,625.18,0,0,0,64-270.11s6.57-157.9-109.65-189c0,0-28.36-2.11-36.06,21.6s-65,505.71-246.46,479.67c0,0-50.24-29.61-21.76-79.84s137.5-269.6,42.32-367.16c0,0-45.06-20.07-56.48,31.21,0,0,45.69,179.29-134.32,322.72s-341.12,79.46-367,66.52S112.66,943.72,111.78,649.38Z"/><path class="cls-1" d="M157.42,513.41c-1.77-.87,4-33.46,25.68-67.82,11.25-17.79,21.05-32.9,40.6-42.74,7.82-4,33-16.73,55.52-4.63,1,.47,24.18,13.39,23.61,35.84-.52,18.73-17.3,30.14-20.38,32.1-17.68,11.39-40.84,8.34-52.17,7.19-12.3-1.49-21.89-4.76-34.54,0A48.51,48.51,0,0,0,182.61,481C163.87,495,158.62,513.85,157.42,513.41Z"/><path class="cls-1" d="M119.8,585a69.81,69.81,0,0,1,12.35-32.62,49.28,49.28,0,0,1,19.48-20.57c3.77-1.91,15.83-8,26.72-2.22a21.69,21.69,0,0,1,11.16,17A20.87,20.87,0,0,1,179.68,562a38.14,38.14,0,0,1-25.06,3.46,31,31,0,0,0-16.61-.06,22.37,22.37,0,0,0-6.4,4A50,50,0,0,0,119.8,585Z"/><path class="cls-2" d="M1136.7,213.23C1272,305,1376.13,442,1423.93,605.72c53.7,184,32.55,377.83-59.57,545.9-74.06,135.13-186.89,240.52-323.87,304.57a727.77,727.77,0,0,1-104.26,39.33,718.63,718.63,0,0,1-201.39,28.93,710.1,710.1,0,0,1-303.21-68.26A727.72,727.72,0,0,1,310,1383.51l-36.92-25.61c-26.74,37.86-42.77,55.2-69.51,93-18,25.43,23.83,49.48,41.61,24.33q13-18.39,26-36.76a790.94,790.94,0,0,0,254.4,124.38,775,775,0,0,0,149.22,26.54l120.84,0a788.83,788.83,0,0,0,159.55-29.2c14.74-4.3,29.27-9,43.63-14.15,181.62-64.48,331.36-191.67,424.76-362.07,100.78-183.87,123.93-396,65.17-597.25C1436.54,408.15,1323,258.63,1175.53,158.25l29.65-42c18-25.45-23.83-49.49-41.6-24.33l-65.12,92.16"/></svg>