<svg id="Layer_1" data-name="Layer 1" xmlns="http://www.w3.org/2000/svg" viewBox="0 0 431 431"><defs><style>.cls-1,.cls-4{fill:#a3a1a1;}.cls-2{fill:#dedede;}.cls-3{fill:#721640;}.cls-4,.cls-6{stroke:#7f7f80;}.cls-4,.cls-5,.cls-6{stroke-miterlimit:10;}.cls-4{stroke-width:50px;}.cls-5,.cls-6{fill:none;stroke-linecap:round;stroke-width:5.8px;}.cls-5{stroke:#a3a1a1;}.cls-7{fill:#7f7f80;}</style></defs><path class="cls-1" d="M384.56,407.27c0,10.89-76.06,19.73-169.89,19.73S44.78,418.16,44.78,407.27"/><path class="cls-2" d="M44.78,407.27c0-10.9,76.06-19.73,169.89-19.73s169.89,8.83,169.89,19.73"/><path class="cls-1" d="M382,22.55c0,10.9-74.76,19.73-167,19.73S48,33.45,48,22.55H44.78V407.27H384.56V22.55Z"/><ellipse class="cls-1" cx="214.67" cy="22.55" rx="169.89" ry="19.73"/><ellipse class="cls-3" cx="215" cy="24.1" rx="166.99" ry="18.17"/><line class="cls-4" x1="215" y1="42.28" x2="215" y2="427"/><path class="cls-5" d="M384.56,247.85c0,10.9-76.06,19.73-169.89,19.73S44.78,258.75,44.78,247.85"/><path class="cls-6" d="M384.56,247.85c0,10.9-76.06,19.73-169.89,19.73S44.78,258.75,44.78,247.85"/><path class="cls-6" d="M384.89,267.58c0,10.9-76.06,19.73-169.89,19.73S45.11,278.48,45.11,267.58"/><path class="cls-6" d="M385.23,287.31c0,10.9-76.07,19.73-169.9,19.73S45.44,298.21,45.44,287.31"/><path class="cls-6" d="M385.56,307c0,10.9-76.07,19.73-169.89,19.73S45.77,317.94,45.77,307"/><path class="cls-6" d="M385.89,326.77c0,10.9-76.06,19.73-169.89,19.73S46.11,337.67,46.11,326.77"/><path class="cls-6" d="M386.22,346.5c0,10.9-76.06,19.73-169.89,19.73S46.44,357.4,46.44,346.5"/><path class="cls-1" d="M267.5,408a13.94,13.94,0,1,1-5.78-26.62,13.71,13.71,0,0,1,5.77,1.25h-2.84A12.69,12.69,0,0,0,252,396.41,12.88,12.88,0,0,0,264.94,408Z"/><path class="cls-7" d="M299,400.9v15.78a1.85,1.85,0,0,1-1.84,1.85H283.64a1.85,1.85,0,0,1-1.84-1.85v-3.5a5.24,5.24,0,0,0-5.24-5.23H264.94A12.88,12.88,0,0,1,252,396.41a12.69,12.69,0,0,1,12.64-13.83H274v-6.3h3v6.3h3.69A18.32,18.32,0,0,1,299,400.9Z"/><rect class="cls-3" x="265.73" y="374.94" width="19.46" height="2.68"/></svg>