<svg xmlns="http://www.w3.org/2000/svg" viewBox="0 0 606.47 606.47"><defs><style>.cls-1{fill:#344d3b;stroke:#344d3b;}.cls-1,.cls-2,.cls-3,.cls-4{stroke-miterlimit:10;}.cls-1,.cls-3,.cls-4{stroke-width:5.8px;}.cls-1,.cls-3{fill-rule:evenodd;}.cls-2{fill:none;stroke:#aa9e87;stroke-width:10px;}.cls-3{fill:#a3a2a2;stroke:#a3a2a2;}.cls-4{fill:#7f7f80;stroke:#7f7f80;}</style></defs><g id="tønder_modning" data-name="tønder modning"><path class="cls-1" d="M344.44,582.23l1.94-230.33c-.56-25.71-28.39-37.49-28.39-53.41V224.15h.8a2.24,2.24,0,0,0,2-2.4v-8.61a2.24,2.24,0,0,0-2-2.4H318v-6.39l0-.07,0-.07v-.07l0-.07,0-.06,0-.07h0l0-.06h0l0-.07,0-.06h0l0-.06h0a1.92,1.92,0,0,0-.12-.25,2.56,2.56,0,0,0-1.21-1.16l-.05,0h0l-.05,0h0l-.06,0h0l-.06,0h0l-.05,0h0l-.06,0H291.66l-.18,0h0a3.92,3.92,0,0,0-2.77,2.78h0l0,.1h0a4.62,4.62,0,0,0-.16.84v.21h0v4.64h-.81a2.23,2.23,0,0,0-2,2.4v8.61a2.23,2.23,0,0,0,2,2.4h.81v74.34c0,16.44-28.67,26.89-28.4,53.41l2.17,230.34c.06,6.82,4.74,12.36,10.46,12.36H334c5.73,0,10.41-5.53,10.47-12.37ZM291.66,202.14h0l-.18,0Z"/><line class="cls-2" x1="193.38" y1="601.12" x2="413.1" y2="601.12"/><path class="cls-3" d="M299.4,19.44H370a2.1,2.1,0,0,1,2.09,2.09V48a2.07,2.07,0,0,1-.71,1.56L317.59,97a19.08,19.08,0,0,0-6.46,14.24L311,160.77l.3,15.43L295.5,160.77l-.16-49.57A19,19,0,0,0,288.89,97L235.13,49.58a2.07,2.07,0,0,1-.71-1.56V21.53a2.1,2.1,0,0,1,2.09-2.09h70.56"/><ellipse class="cls-4" cx="303.24" cy="19.44" rx="68.81" ry="14.09"/></g></svg>