<svg xmlns="http://www.w3.org/2000/svg" viewBox="0 0 594.07 601.12"><defs><style>.cls-1{fill:#a3a2a2;}.cls-2,.cls-3{fill:#721640;stroke-miterlimit:10;}.cls-2{stroke:#721640;}.cls-3{stroke:#721540;}.cls-4{fill:#c1b498;}.cls-5{fill:none;}</style></defs><g id="hourglass"><path class="cls-1" d="M451.17,562.87v29H146.78v-27.8L167,562.87c-10.61-39.47-6.12-67.51,0-85.89,23.4-70.23,101.13-90.8,109.87-164.2a112.13,112.13,0,0,0,.37-23c-.11-.82-.24-1.65-.37-2.5-11.8-75.9-88.17-95.74-111.14-165.45-5.9-17.9-10.43-45.57,0-84.64H143v-29H447.38V36l-20.21,1.25c10.61,39.47,6.13,67.51,0,85.89C403.78,193.33,326,213.9,317.29,287.3A112.89,112.89,0,0,0,316.9,310v0c.13.89.26,1.79.4,2.71,11.81,75.9,88.17,95.74,111.14,165.45,5.9,17.9,10.42,45.56,0,84.64Z"/><path class="cls-2" d="M311.18,338.69c-.85,6.7-7.44,13.92-14.83,13.94s-14.71-7.08-14.92-13.82c-.22-7.39,6.44-12.21,12-26.71a69.08,69.08,0,0,0,2.94-10,104.93,104.93,0,0,0,3.39,10C306.17,328.31,312.08,331.62,311.18,338.69Z"/><path class="cls-3" d="M397.81,506.68c-8.77,46.53-51.72,85.24-101.4,85.24-56.07,0-101.53-44.87-101.53-100.22A98.79,98.79,0,0,1,204.55,449s10-22.81,28.66-19.19c0,0,4.18,1.66,3.62,5.56S211,511.56,238.5,520.46c0,0,9.18-.71,8.63-9.81s-.84-47.78,19.47-55c0,0,7.79.28,5.84,8.35-11.22,29.7-6.54,61.39,11.51,77.66,25.49,23,80.31,17.56,110.49-27.21Z"/><path class="cls-3" d="M398,493.78c.31,0,1.76-5,1.06-11.4-.36-3.31-.7-6.13-2.78-8.89-.84-1.1-3.52-4.65-7.56-4.5-.17,0-4.36.22-5.83,3.44-1.23,2.7.36,5.47.66,6,1.72,2.84,5.21,4.05,6.89,4.64,1.85.64,3.44.84,4.91,2.38a7.62,7.62,0,0,1,1.32,2C398.35,490.72,397.79,493.76,398,493.78Z"/><path class="cls-3" d="M395.17,505.69a11,11,0,0,0,.51-5.48,7.84,7.84,0,0,0-1.34-4.27c-.4-.53-1.69-2.23-3.63-2.16a3.4,3.4,0,0,0-2.8,1.65,3.23,3.23,0,0,0,.32,2.87,6,6,0,0,0,3.31,2.23,5,5,0,0,1,2.36,1.15,3.85,3.85,0,0,1,.64.95A7.92,7.92,0,0,1,395.17,505.69Z"/><path class="cls-3" d="M310.76,337.18a127.8,127.8,0,0,1-6-23.63c-.14-.86-.26-1.72-.38-2.56l-.16-1.14v-.36a125.22,125.22,0,0,1,.47-24.66c5.22-43.78,32.31-70.26,58.52-95.88,21.62-21.13,42-41.08,51.9-70.69-13.61-7.56-34.63-16.6-60.17-16-36.86.81-53.47,20.94-95.9,30.21-17.2,3.76-42.71,6.62-75.92.55,14.57,16,26.67,36.66,44.64,54.29,26.21,25.72,53.31,52.31,60.3,97.19l0,.29c.12.79.24,1.58.34,2.35l.05.31,0,.31a125.56,125.56,0,0,1-.4,25.43,118.74,118.74,0,0,1-2.94,15.64Z"/><line class="cls-4" x1="143.51" y1="577.35" x2="451.93" y2="577.44"/><rect class="cls-4" x="143.51" y="561.87" width="308.42" height="31.04"/><line class="cls-5" x1="142.14" y1="23.68" x2="450.56" y2="23.77"/><rect class="cls-4" x="142.14" y="8.21" width="308.42" height="31.04"/></g></svg>