<svg xmlns="http://www.w3.org/2000/svg" viewBox="0 0 606.47 606.47"><defs><style>.cls-1{fill:#c1b498;}.cls-2{fill:#aa9e87;}.cls-3{fill:#344d3b;stroke:#344d3b;stroke-width:5.8px;fill-rule:evenodd;}.cls-3,.cls-4{stroke-miterlimit:10;}.cls-4{fill:none;stroke:#aa9e87;stroke-width:10px;}</style></defs><g id="Layer_2" data-name="Layer 2"><polyline class="cls-1" points="288.98 226.19 278.38 153.31 321.37 153.31 310.77 226.19"/><polygon class="cls-1" points="311.27 226.26 310.28 226.11 320.8 153.81 278.96 153.81 289.47 226.11 288.48 226.26 277.8 152.81 321.95 152.81 311.27 226.26"/><ellipse class="cls-2" cx="299.88" cy="152.81" rx="21.5" ry="6.93"/><path class="cls-2" d="M299.88,160.24c-12.34,0-22-3.26-22-7.43s9.66-7.43,22-7.43,22,3.26,22,7.43S312.21,160.24,299.88,160.24Zm0-13.86c-12.56,0-21,3.32-21,6.43s8.44,6.43,21,6.43,21-3.32,21-6.43S312.44,146.38,299.88,146.38Z"/><ellipse class="cls-1" cx="299.88" cy="226.19" rx="10.9" ry="3.72"/><path class="cls-1" d="M299.88,230.41c-5.53,0-11.4-1.48-11.4-4.22s5.87-4.22,11.4-4.22,11.39,1.48,11.39,4.22S305.4,230.41,299.88,230.41Zm0-7.44c-6.13,0-10.4,1.69-10.4,3.22s4.27,3.22,10.4,3.22,10.39-1.7,10.39-3.22S306,223,299.88,223Z"/><polygon class="cls-2" points="305.03 177.98 306.49 179.23 304.68 179.87 302.87 180.5 303.22 178.62 303.58 176.73 305.03 177.98"/><path class="cls-2" d="M302.21,181.26l1-5.47,4.23,3.63Zm1.7-3.58-.39,2.07,2-.7Z"/><polygon class="cls-2" points="312.78 171.05 313.36 172.88 311.49 172.47 309.61 172.06 310.9 170.64 312.19 169.22 312.78 171.05"/><path class="cls-2" d="M314.1,173.55l-5.44-1.18,3.75-4.13Zm-3.54-1.79,2.06.45-.64-2Z"/><polygon class="cls-2" points="304.59 189.31 305.57 190.97 303.65 190.99 301.73 191.01 302.67 189.33 303.61 187.66 304.59 189.31"/><path class="cls-2" d="M300.87,191.51l2.73-4.85,2.84,4.8Zm2.75-2.85-1,1.84,2.11,0Z"/><polygon class="cls-2" points="296.06 181.72 297.16 183.29 295.25 183.46 293.34 183.63 294.15 181.89 294.96 180.15 296.06 181.72"/><path class="cls-2" d="M292.52,184.2l2.36-5,3.19,4.57Zm2.53-3.06-.89,1.91,2.1-.18Z"/><polygon class="cls-2" points="312.54 182.76 313.99 184.01 312.18 184.65 310.37 185.29 310.73 183.4 311.08 181.51 312.54 182.76"/><path class="cls-2" d="M309.72,186.05l1-5.48L315,184.2Zm1.69-3.59-.39,2.07,2-.7Z"/><polygon class="cls-2" points="290.29 174.57 291.74 175.82 289.93 176.46 288.12 177.09 288.48 175.21 288.83 173.32 290.29 174.57"/><path class="cls-2" d="M287.47,177.85l1-5.47,4.22,3.62Zm1.69-3.59-.39,2.07,2-.69Z"/><polygon class="cls-2" points="309.24 195.03 311.15 194.86 310.34 196.6 309.52 198.34 308.43 196.76 307.33 195.19 309.24 195.03"/><path class="cls-2" d="M309.61,199.33l-3.19-4.57,5.55-.47Zm-1.38-3.72,1.21,1.73.89-1.91Z"/><polygon class="cls-2" points="292.69 206.95 293.94 208.4 292.06 208.76 290.17 209.12 290.81 207.3 291.44 205.49 292.69 206.95"/><path class="cls-2" d="M289.41,209.77l1.84-5.26,3.64,4.22Zm2.22-3.3-.7,2,2.07-.39Z"/><polygon class="cls-2" points="308.25 208.12 309.15 209.82 307.23 209.74 305.31 209.67 306.33 208.05 307.36 206.42 308.25 208.12"/><path class="cls-2" d="M310,210.35l-5.56-.21,3-4.72Zm-3.79-1.15,2.1.08-1-1.86Z"/><polygon class="cls-2" points="300.66 215.03 301.46 216.78 299.55 216.59 297.64 216.41 298.75 214.85 299.87 213.28 300.66 215.03"/><path class="cls-2" d="M302.27,217.36l-5.54-.54,3.23-4.53ZM298.55,216l2.09.21-.87-1.92Z"/><polygon class="cls-2" points="294.96 222.74 296.42 223.99 294.61 224.63 292.8 225.26 293.15 223.38 293.51 221.49 294.96 222.74"/><path class="cls-2" d="M292.14,226l1-5.47,4.23,3.63Zm1.7-3.59-.39,2.07,2-.69Z"/><polygon class="cls-2" points="306.39 223.14 307.39 224.78 305.47 224.82 303.55 224.87 304.47 223.18 305.39 221.5 306.39 223.14"/><path class="cls-2" d="M302.7,225.38l2.67-4.88,2.9,4.76Zm2.72-2.88-1,1.85,2.1,0Z"/><polygon class="cls-2" points="292.99 191.49 293.65 193.29 291.76 192.96 289.87 192.63 291.1 191.16 292.33 189.69 292.99 191.49"/><path class="cls-2" d="M294.42,193.93l-5.49-1,3.58-4.27Zm-3.61-1.64,2.08.36-.73-2Z"/><polygon class="cls-2" points="300.62 199.81 302.08 201.06 300.27 201.7 298.45 202.34 298.81 200.45 299.17 198.56 300.62 199.81"/><path class="cls-2" d="M297.8,203.1l1-5.48,4.23,3.63Zm1.7-3.59-.39,2.07,2-.7Z"/><polygon class="cls-2" points="287.04 164.21 287.96 165.89 286.04 165.85 284.12 165.81 285.12 164.16 286.12 162.52 287.04 164.21"/><path class="cls-2" d="M288.82,166.41l-5.57-.13,2.89-4.76ZM285,165.32l2.11.05-1-1.85Z"/><polygon class="cls-2" points="300.17 167.74 301.94 168.47 300.43 169.64 298.91 170.82 298.65 168.91 298.39 167.01 300.17 167.74"/><path class="cls-2" d="M298.53,171.74l-.75-5.52,5.15,2.11Zm.47-3.94.29,2.09L301,168.6Z"/><polygon class="cls-2" points="314.1 162.64 315 164.33 313.09 164.27 311.17 164.21 312.18 162.58 313.19 160.95 314.1 162.64"/><path class="cls-2" d="M315.86,164.86l-5.57-.17,2.93-4.74Zm-3.81-1.12,2.11.07-1-1.86Z"/><path class="cls-3" d="M341,583.7l1.95-230.33c-.56-25.7-28.39-37.49-28.39-53.41V225.62h.8a2.23,2.23,0,0,0,2-2.4v-8.61a2.22,2.22,0,0,0-2-2.39h-.8v-6.33l0-.07v-.07l0-.07v-.07l0-.06,0-.07,0-.07h0l0-.06h0l0-.07,0-.06h0l0-.06h0l-.12-.25a2.56,2.56,0,0,0-1.21-1.16l-.06,0h0l-.05,0h0l-.06,0h0l-.06,0h0l-.06,0h-.05l-.06,0H288.2l-.18,0h0a3.92,3.92,0,0,0-2.77,2.78h0l0,.1h0a3.9,3.9,0,0,0-.16.84l0,.11v.1h0v4.64h-.81a2.22,2.22,0,0,0-2,2.39v8.61a2.23,2.23,0,0,0,2,2.4H285V300c0,16.44-28.67,26.89-28.4,53.41l2.17,230.35c.06,6.82,4.74,12.35,10.46,12.35H330.5c5.74,0,10.42-5.53,10.47-12.37ZM288.2,203.61h0l-.18,0Z"/><rect class="cls-1" x="264.45" y="409.35" width="70.66" height="142.59"/><line class="cls-4" x1="191.09" y1="602.98" x2="410.81" y2="602.98"/></g></svg>