<svg xmlns="http://www.w3.org/2000/svg" viewBox="0 0 277.8 277.81"><defs><style>.cls-1{fill:#721640;}.cls-2,.cls-3{stroke:#000;stroke-miterlimit:10;}.cls-2{stroke-width:5.8px;}.cls-3{fill:#fff;}</style></defs><g id="Layer_4" data-name="Layer 4"><path d="M19.24,189C15,171,15,152.57,16.27,134.32a216.19,216.19,0,0,1,26.84-33.55,106.63,106.63,0,0,1,10.53-9.36C53,93.74,52.28,96,51.47,98.18c-5.59,15.08-13.56,29.12-22.55,42.39l1.17-3.4C28.57,154.8,25.85,172.42,19.24,189Z"/><path d="M29.77,264.66c-6.59-18.09-9.1-37.21-10.4-56.29a241.76,241.76,0,0,1,22.17-39.81,117.34,117.34,0,0,1,9.29-11.74c-.29,2.54-.73,5-1.24,7.44C46.08,181,40,197.11,32.81,212.59l.63-3.35c.87,18.54.59,37.23-3.67,55.42Z"/><path d="M77.68,76.12c-13.55-4.71-25-14-34.9-24C42,39.44,42.5,26.43,47.09,14.35c5.86,10.52,8.33,22.41,9.48,34.2L54.45,44C64,53.11,72.82,63.65,77.68,76.12Z"/><path d="M258.56,188.8c-6.61-16.56-9.33-34.18-10.86-51.8l1.18,3.39c-9-13.27-17-27.31-22.56-42.39-.8-2.2-1.56-4.44-2.17-6.77,7.4,5.69,13.82,12.5,19.88,19.51a232.65,232.65,0,0,1,17.49,23.4c1.24,18.25,1.26,36.71-3,54.66Z"/><path d="M248,264.48c-4.25-18.19-4.53-36.88-3.66-55.42l.63,3.35c-7.2-15.48-13.27-31.56-16.79-48.33-.5-2.44-.95-4.9-1.23-7.44a116.93,116.93,0,0,1,9.28,11.74,241.49,241.49,0,0,1,22.18,39.81c-1.31,19.09-3.81,38.2-10.41,56.29Z"/><path d="M200.12,75.94c4.85-12.47,13.67-23,23.22-32.09l-2.11,4.52c1.15-11.79,3.62-23.67,9.48-34.2,4.58,12.08,5.1,25.09,4.3,37.77-9.94,10-21.35,19.29-34.89,24Z"/><ellipse class="cls-1" cx="139.38" cy="152.58" rx="107.42" ry="124.11"/><path class="cls-2" d="M213.55,64.93c-17-37.56-43.92-61.8-74.17-61.8S82.23,27.37,65.21,64.93a319.34,319.34,0,0,0,75,8.72A318.77,318.77,0,0,0,213.55,64.93Z"/><line class="cls-2" x1="140.23" y1="73.65" x2="139.38" y2="276.68"/><ellipse class="cls-2" cx="104.4" cy="162.3" rx="19.65" ry="22.98"/><ellipse class="cls-2" cx="139.38" cy="73.65" rx="19.65" ry="22.98"/><ellipse class="cls-2" cx="176.22" cy="162.3" rx="19.65" ry="22.98"/><ellipse class="cls-2" cx="59.83" cy="110.63" rx="12.74" ry="14.9"/><ellipse class="cls-2" cx="216.59" cy="110.63" rx="12.74" ry="14.9"/><ellipse class="cls-2" cx="195.88" cy="226.5" rx="10.59" ry="12.38"/><ellipse class="cls-2" cx="83.17" cy="226.5" rx="10.59" ry="12.38"/><path class="cls-3" d="M71.64,49.16A8.49,8.49,0,0,0,78,50.54l33-5.94a8.55,8.55,0,0,0,6.89-9.92l-2.27-12.6a8.56,8.56,0,0,0-9.91-6.89l-6.34,1.14A76.23,76.23,0,0,0,71.64,49.16Z"/><path class="cls-3" d="M206.47,48.44a8.5,8.5,0,0,1-6.38,1.4l-33-5.94A8.57,8.57,0,0,1,160.21,34l2.27-12.6a8.55,8.55,0,0,1,9.92-6.89l5.37,1a63.26,63.26,0,0,1,28.7,33Z"/></g></svg>