<svg id="Layer_1" data-name="Layer 1" xmlns="http://www.w3.org/2000/svg" viewBox="0 0 222 222"><defs><style>.cls-1{fill:#aa9f88;}.cls-2{fill:none;stroke-linecap:round;}.cls-2,.cls-3,.cls-4{stroke:#5c7a62;stroke-miterlimit:10;}.cls-2,.cls-3{stroke-width:3px;}.cls-3,.cls-4{fill:#5c7a62;}</style></defs><path class="cls-1" d="M180.93,222a79.57,79.57,0,0,0-139.86,0Z"/><polyline class="cls-2" points="111 182.33 111 164.24 122.39 152.85"/><line class="cls-3" x1="111" y1="164.23" x2="96.71" y2="149.94"/><path class="cls-4" d="M103.27,151.09c3.31,2.48,6,7,4.87,8.77s-6.49,1.24-10-1.3a11.23,11.23,0,0,1-4.3-7.64c-.39-4.24,1.93-7.86,2.39-7.74.25.06-.26,1.26.18,2.72C97.28,148.57,100.33,148.88,103.27,151.09Z"/><path class="cls-4" d="M117.09,153.58c-2.72,2-4.91,5.75-4,7.21s5.34,1,8.19-1.07a9.21,9.21,0,0,0,3.54-6.27c.32-3.49-1-4.71-1.41-4.62a17.22,17.22,0,0,0-.67,1.86C122.05,152.88,119.51,151.76,117.09,153.58Z"/></svg>