<svg id="Layer_1" data-name="Layer 1" xmlns="http://www.w3.org/2000/svg" viewBox="0 0 222 222"><defs><style>.cls-1{fill:#aa9f88;}.cls-2{fill:#c9b098;stroke:#c2b59b;stroke-width:4px;}.cls-2,.cls-3,.cls-5{stroke-linecap:round;stroke-miterlimit:10;}.cls-3,.cls-5{fill:none;stroke:#5c7a62;}.cls-3{stroke-width:3px;}.cls-4{fill:#5c7a62;}.cls-5{stroke-width:2px;}</style></defs><path class="cls-1" d="M180.93,222.52a79.57,79.57,0,0,0-139.86,0Z"/><line class="cls-2" x1="116.3" y1="185.57" x2="116.3" y2="94.12"/><path class="cls-3" d="M105.07,185.57c-2.44-12.38-1-21.43.66-27.37,2.4-8.37,5.86-12.21,5.94-19.81.1-9.6-5.93-14.61-5.68-23.75.13-4.85.63-7.57,3.44-13.22,1.42-2.86,2.65-4.61,2.57-7.35-.13-4.45-3.63-8-6.61-10.28"/><path class="cls-4" d="M94.87,113.56a5.63,5.63,0,0,0-1.52-4.6c-.55-1-1.6-1.34-3.09-2.37a9.7,9.7,0,0,0-4-.15,3.69,3.69,0,0,0-3.1,1.88c-.79,1.59-.68,2.94-1.19,3.83-.33.58.77-.29,1.9-.88a8.75,8.75,0,0,0-.59,2.39c-.32,3.59,1.57,7,1.94,7,.22,0-.21-1.13.16-2.32.64-2.07,2.93-2,5.23-3.33v.06c.17,1.85-1.62,3.67-.83,3.53,1-.18,2.85.1,4.09-1.33A5.23,5.23,0,0,0,94.87,113.56Z"/><path class="cls-5" d="M95.56,130c2.75-2,7.81-.66,9.64.2,2.38,1.1,5.86,5.75,5.8,6.24"/><path class="cls-5" d="M97.31,146.57a10.74,10.74,0,0,1,6.42,1.07,8.49,8.49,0,0,1,3.29,4.6"/><path class="cls-5" d="M94,166.24a10.83,10.83,0,0,1,6.43,1.07,8.43,8.43,0,0,1,3.28,4.6"/><path class="cls-5" d="M90.44,109.13c2.17-1.77,9.25-1.18,11.61.79,1.74,1.45,3.35,4.12,3.29,4.6"/><path class="cls-5" d="M102.62,93.4c2.14-.26,2.22-.46,4,.58a8.43,8.43,0,0,1,3.28,4.6"/><path class="cls-4" d="M97.91,135.21a5.65,5.65,0,0,0-.58-4.8c-.34-1.12-1.31-1.64-2.57-3a9.78,9.78,0,0,0-3.92-.94,3.71,3.71,0,0,0-3.41,1.23c-1.09,1.4-1.24,2.76-1.92,3.53-.44.5.81-.14,2-.49A9.32,9.32,0,0,0,86.49,133c-1,3.46.16,7.19.53,7.23s0-1.15.62-2.24c1-1.9,3.27-1.42,5.77-2.23,0,0,0,0,0,0-.2,1.86-2.32,3.28-1.51,3.31,1,0,2.77.65,4.27-.5A5.31,5.31,0,0,0,97.91,135.21Z"/><path class="cls-4" d="M101.82,151.13a5.68,5.68,0,0,0-1.28-4.66c-.5-1.06-1.54-1.43-3-2.54a9.83,9.83,0,0,0-4-.36,3.7,3.7,0,0,0-3.19,1.72c-.87,1.54-.83,2.91-1.39,3.77-.36.56.79-.26,2-.78a8.88,8.88,0,0,0-.72,2.35c-.51,3.57,1.2,7.09,1.58,7.07.21,0-.15-1.13.28-2.3.75-2,3-1.89,5.39-3.06a.13.13,0,0,0,0,.06c.07,1.86-1.82,3.58-1,3.49,1-.13,2.83.24,4.15-1.12A5.29,5.29,0,0,0,101.82,151.13Z"/><path class="cls-4" d="M97.44,170.31a5.65,5.65,0,0,0-1.82-4.48c-.62-1-1.69-1.24-3.25-2.17a9.87,9.87,0,0,0-4,.11,3.73,3.73,0,0,0-3,2.08c-.68,1.64-.47,3-.93,3.91-.29.6.75-.35,1.84-1a8.44,8.44,0,0,0-.43,2.43c-.09,3.6,2,6.9,2.39,6.83.21,0-.28-1.11,0-2.32.5-2.11,2.79-2.22,5-3.66a.09.09,0,0,0,0,.05c.29,1.84-1.38,3.77-.6,3.58,1-.24,2.84-.09,4-1.6A5.29,5.29,0,0,0,97.44,170.31Z"/><path class="cls-4" d="M103.5,97.91a5.7,5.7,0,0,0-.08-4.84c-.22-1.15-1.13-1.77-2.24-3.2a9.78,9.78,0,0,0-3.8-1.35,3.73,3.73,0,0,0-3.52.87c-1.23,1.28-1.53,2.61-2.28,3.3-.49.45.82,0,2.08-.27a8.6,8.6,0,0,0-1.28,2.1c-1.39,3.33-.61,7.17-.24,7.24.21,0,.14-1.14.85-2.16,1.22-1.79,3.4-1.07,6-1.61,0,0,0,0,0,.05-.4,1.82-2.65,3-1.86,3.13,1,.14,2.69.94,4.31,0A5.33,5.33,0,0,0,103.5,97.91Z"/><path class="cls-4" d="M105,86.15a5.65,5.65,0,0,0,1.36-4.65c.13-1.16-.55-2-1.19-3.71a9.93,9.93,0,0,0-3.23-2.42,3.71,3.71,0,0,0-3.62-.21c-1.55.86-2.23,2-3.16,2.48-.6.29.8.19,2.07.35a8.74,8.74,0,0,0-1.85,1.63C93,82.39,92.63,86.29,93,86.47s.47-1,1.45-1.82c1.7-1.34,3.57,0,6.19.24l0,0c-.91,1.63-3.42,2.1-2.69,2.44,1,.44,2.28,1.7,4.12,1.23A5.32,5.32,0,0,0,105,86.15Z"/></svg>