<svg xmlns="http://www.w3.org/2000/svg" viewBox="0 0 241.58 239.27"><defs><style>.cls-1{fill:#cf1231;}</style></defs><g id="Layer_2" data-name="Layer 2"><path class="cls-1" d="M221.83,114.22c-8.74,46.33-51.51,84.87-101,84.87C65,199.09,19.77,154.42,19.77,99.31A98.26,98.26,0,0,1,29.4,56.75S39.38,34,57.94,37.64c0,0,4.15,1.66,3.6,5.54s-25.76,75.9,1.66,84.76c0,0,9.14-.71,8.59-9.77S71,70.6,91.18,63.4c0,0,7.75.28,5.82,8.31,0,0-18.84,22.16-3.33,54.85s47.23,34.75,47.23,34.75S198,163.5,218.46,122Z"/><path class="cls-1" d="M222,101.37c.31,0,1.75-5,1.06-11.35-.36-3.29-.7-6.1-2.78-8.84-.83-1.1-3.5-4.64-7.52-4.49-.17,0-4.34.22-5.81,3.43-1.22,2.68.36,5.45.66,5.94,1.71,2.83,5.19,4,6.87,4.62,1.84.64,3.42.84,4.88,2.38a7.68,7.68,0,0,1,1.32,2C222.36,98.33,221.8,101.35,222,101.37Z"/><path class="cls-1" d="M219.19,113.24a11,11,0,0,0,.51-5.46,7.76,7.76,0,0,0-1.33-4.25c-.4-.53-1.68-2.23-3.62-2.16A3.41,3.41,0,0,0,212,103a3.28,3.28,0,0,0,.32,2.86,6,6,0,0,0,3.3,2.22,4.88,4.88,0,0,1,2.35,1.14,3.51,3.51,0,0,1,.63,1A7.86,7.86,0,0,1,219.19,113.24Z"/><path d="M223.22,34.18C256.66,85.89,243,155.57,194,192.46a121.32,121.32,0,0,1-167.92-21,119.88,119.88,0,0,1-26-77.89A115.57,115.57,0,0,1,18.38,34.18l.86.51a119.94,119.94,0,0,0-14,58.93C7.15,175,88.66,229.53,164.37,199a116.58,116.58,0,0,0,67.51-75.56,119.78,119.78,0,0,0-9.53-88.77l.87-.51Z"/></g></svg>