<svg id="Lag_1" data-name="Lag 1" xmlns="http://www.w3.org/2000/svg" viewBox="0 0 4690.02 3126.68"><defs><style>.cls-1{fill:none;stroke:#344d3b;stroke-width:14.03px;stroke-dasharray:28.06 28.06 28.06 28.06 28.06 28.06;}.cls-1,.cls-2{stroke-miterlimit:10;}.cls-2{fill:#6276b8;stroke:#6276b8;stroke-width:0.25px;}</style></defs><path class="cls-1" d="M4124.52,7.88c65.27,104.84,115.22,224.55,91.37,342.17-23.56,116.2-118,214.65-232.57,276.48s-248,91.17-380.79,110c-171.52,24.31-355.17,31-511.1-36.24-105.52-45.51-189.6-121.2-286.49-179.64C2551.17,367.57,2406.3,300.18,2108.65,230.9c-144.39-33.6-317.48-49.89-613.76-42.62C1344,192,1194.73,217.78,1054,265.7,899.59,318.27,750.59,387.51,628,485.2,410.55,658.42,290.47,911.9,256.22,1167.85s11.09,515.48,83.58,765.21c57.6,198.41,132.63,394.21,157.85,597.76s-4.67,421.2-140,588"/><ellipse class="cls-2" cx="4202.86" cy="401.33" rx="57.39" ry="38.13" transform="translate(2777.26 4375.34) rotate(-75.72)"/><ellipse class="cls-2" cx="3070.89" cy="707.26" rx="38.13" ry="57.39" transform="translate(830.49 2923.39) rotate(-57.66)"/><ellipse class="cls-2" cx="622.47" cy="495.85" rx="57.39" ry="38.13" transform="translate(-173.03 518.69) rotate(-40.18)"/><ellipse class="cls-2" cx="506.75" cy="2564.09" rx="38.13" ry="57.39" transform="translate(-754.09 274.63) rotate(-17.66)"/></svg>