<svg id="Lag_1" data-name="Lag 1" xmlns="http://www.w3.org/2000/svg" xmlns:xlink="http://www.w3.org/1999/xlink" viewBox="0 0 3020.05 621.35"><defs><style>.cls-1{fill:none;}.cls-2{clip-path:url(#clip-path);}.cls-3{fill:#721540;}.cls-4{fill:#ba8186;}.cls-5{fill:#fff;}</style><clipPath id="clip-path"><rect class="cls-1" x="-2.67" width="3025.2" height="621.35"/></clipPath></defs><g class="cls-2"><rect class="cls-3" x="-12.68" y="-10" width="163.19" height="163.19" transform="translate(140.51 2.67) rotate(90)"/><rect class="cls-3" x="-2.67" width="143.18" height="143.18"/><rect class="cls-4" x="131.43" y="-10" width="163.19" height="163.19" transform="translate(284.61 -141.43) rotate(90)"/><rect class="cls-4" x="141.43" width="143.18" height="143.18"/><rect class="cls-3" x="275.53" y="-10" width="163.19" height="163.19" transform="translate(428.71 -285.53) rotate(90)"/><rect class="cls-3" x="285.53" width="143.18" height="143.18"/><rect class="cls-4" x="419.63" y="-10" width="163.19" height="163.19" transform="translate(572.81 -429.63) rotate(90)"/><rect class="cls-4" x="429.63" width="143.18" height="143.18"/><rect class="cls-3" x="563.73" y="-10" width="163.19" height="163.19" transform="translate(716.91 -573.73) rotate(90)"/><rect class="cls-3" x="573.73" width="143.18" height="143.18"/><rect class="cls-4" x="707.83" y="-10" width="163.19" height="163.19" transform="translate(861.01 -717.83) rotate(90)"/><rect class="cls-4" x="717.83" width="143.18" height="143.18"/><rect class="cls-3" x="851.93" y="-10" width="163.19" height="163.19" transform="translate(1005.11 -861.93) rotate(90)"/><rect class="cls-3" x="861.93" width="143.18" height="143.18"/><rect class="cls-4" x="996.03" y="-10" width="163.19" height="163.19" transform="translate(1149.22 -1006.03) rotate(90)"/><rect class="cls-4" x="1006.03" width="143.18" height="143.18"/><rect class="cls-3" x="1140.13" y="-10" width="163.19" height="163.19" transform="translate(1293.32 -1150.13) rotate(90)"/><rect class="cls-3" x="1150.13" width="143.18" height="143.18"/><rect class="cls-4" x="1284.23" y="-10" width="163.19" height="163.19" transform="translate(1437.42 -1294.23) rotate(90)"/><rect class="cls-4" x="1294.23" width="143.18" height="143.18"/><rect class="cls-3" x="1428.33" y="-10" width="163.19" height="163.19" transform="translate(1581.52 -1438.33) rotate(90)"/><rect class="cls-3" x="1438.33" width="143.18" height="143.18"/><rect class="cls-4" x="1572.43" y="-10" width="163.19" height="163.19" transform="translate(1725.62 -1582.43) rotate(90)"/><rect class="cls-4" x="1582.44" width="143.18" height="143.18"/><rect class="cls-3" x="1716.53" y="-10" width="163.19" height="163.19" transform="translate(1869.72 -1726.54) rotate(90)"/><rect class="cls-3" x="1726.54" width="143.18" height="143.18"/><rect class="cls-4" x="1860.64" y="-10" width="163.19" height="163.19" transform="translate(2013.82 -1870.64) rotate(90)"/><rect class="cls-4" x="1870.64" width="143.18" height="143.18"/><rect class="cls-3" x="2004.74" y="-10" width="163.19" height="163.19" transform="translate(2157.92 -2014.74) rotate(90)"/><rect class="cls-3" x="2014.74" width="143.18" height="143.18"/><rect class="cls-4" x="2148.84" y="-10" width="163.19" height="163.19" transform="translate(2302.02 -2158.84) rotate(90)"/><rect class="cls-4" x="2158.84" width="143.18" height="143.18"/><rect class="cls-3" x="2292.94" y="-10" width="163.19" height="163.19" transform="translate(2446.12 -2302.94) rotate(90)"/><rect class="cls-3" x="2302.94" width="143.18" height="143.18"/><rect class="cls-4" x="2437.04" y="-10" width="163.19" height="163.19" transform="translate(2590.22 -2447.04) rotate(90)"/><rect class="cls-4" x="2447.04" width="143.18" height="143.18"/><rect class="cls-3" x="2581.14" y="-10" width="163.19" height="163.19" transform="translate(2734.33 -2591.14) rotate(90)"/><rect class="cls-3" x="2591.14" width="143.18" height="143.18"/><rect class="cls-4" x="2725.24" y="-10" width="163.19" height="163.19" transform="translate(2878.43 -2735.24) rotate(90)"/><rect class="cls-4" x="2735.24" width="143.18" height="143.18"/><rect class="cls-3" x="2869.34" y="-10" width="163.19" height="163.19" transform="translate(3022.53 -2879.34) rotate(90)"/><rect class="cls-3" x="2879.34" width="143.18" height="143.18"/><rect class="cls-4" x="-12.68" y="132.07" width="163.19" height="163.19" transform="translate(282.58 144.74) rotate(90)"/><rect class="cls-4" x="-2.67" y="142.07" width="143.18" height="143.18"/><rect class="cls-5" x="131.43" y="132.07" width="163.19" height="163.19" transform="translate(426.68 0.64) rotate(90)"/><rect class="cls-5" x="141.43" y="142.07" width="143.18" height="143.18"/><rect class="cls-4" x="275.53" y="132.07" width="163.19" height="163.19" transform="translate(570.78 -143.46) rotate(90)"/><rect class="cls-4" x="285.53" y="142.07" width="143.18" height="143.18"/><rect class="cls-5" x="419.63" y="132.07" width="163.19" height="163.19" transform="translate(714.88 -287.56) rotate(90)"/><rect class="cls-5" x="429.63" y="142.07" width="143.18" height="143.18"/><rect class="cls-4" x="563.73" y="132.07" width="163.19" height="163.19" transform="translate(858.98 -431.66) rotate(90)"/><rect class="cls-4" x="573.73" y="142.07" width="143.18" height="143.18"/><rect class="cls-5" x="707.83" y="132.07" width="163.19" height="163.19" transform="translate(1003.08 -575.76) rotate(90)"/><rect class="cls-5" x="717.83" y="142.07" width="143.18" height="143.18"/><rect class="cls-4" x="851.93" y="132.07" width="163.19" height="163.19" transform="translate(1147.18 -719.86) rotate(90)"/><rect class="cls-4" x="861.93" y="142.07" width="143.18" height="143.18"/><rect class="cls-5" x="996.03" y="132.07" width="163.19" height="163.19" transform="translate(1291.28 -863.96) rotate(90)"/><rect class="cls-5" x="1006.03" y="142.07" width="143.18" height="143.18"/><rect class="cls-4" x="1140.13" y="132.07" width="163.19" height="163.19" transform="translate(1435.38 -1008.07) rotate(90)"/><rect class="cls-4" x="1150.13" y="142.07" width="143.18" height="143.18"/><rect class="cls-5" x="1284.23" y="132.07" width="163.19" height="163.19" transform="translate(1579.48 -1152.17) rotate(90)"/><rect class="cls-5" x="1294.23" y="142.07" width="143.18" height="143.18"/><rect class="cls-4" x="1428.33" y="132.07" width="163.19" height="163.19" transform="translate(1723.59 -1296.27) rotate(90)"/><rect class="cls-4" x="1438.33" y="142.07" width="143.18" height="143.18"/><rect class="cls-5" x="1572.43" y="132.07" width="163.19" height="163.19" transform="translate(1867.69 -1440.37) rotate(90)"/><rect class="cls-5" x="1582.44" y="142.07" width="143.18" height="143.18"/><rect class="cls-4" x="1716.53" y="132.07" width="163.19" height="163.19" transform="translate(2011.79 -1584.47) rotate(90)"/><rect class="cls-4" x="1726.54" y="142.07" width="143.18" height="143.18"/><rect class="cls-5" x="1860.64" y="132.07" width="163.19" height="163.19" transform="translate(2155.89 -1728.57) rotate(90)"/><rect class="cls-5" x="1870.64" y="142.07" width="143.18" height="143.18"/><rect class="cls-4" x="2004.74" y="132.07" width="163.19" height="163.19" transform="translate(2299.99 -1872.67) rotate(90)"/><rect class="cls-4" x="2014.74" y="142.07" width="143.18" height="143.18"/><rect class="cls-5" x="2148.84" y="132.07" width="163.19" height="163.19" transform="translate(2444.09 -2016.77) rotate(90)"/><rect class="cls-5" x="2158.84" y="142.07" width="143.18" height="143.18"/><rect class="cls-4" x="2292.94" y="132.07" width="163.19" height="163.19" transform="translate(2588.19 -2160.87) rotate(90)"/><rect class="cls-4" x="2302.94" y="142.07" width="143.18" height="143.18"/><rect class="cls-5" x="2437.04" y="132.07" width="163.19" height="163.19" transform="translate(2732.29 -2304.97) rotate(90)"/><rect class="cls-5" x="2447.04" y="142.07" width="143.18" height="143.18"/><rect class="cls-4" x="2581.14" y="132.07" width="163.19" height="163.19" transform="translate(2876.39 -2449.07) rotate(90)"/><rect class="cls-4" x="2591.14" y="142.07" width="143.18" height="143.18"/><rect class="cls-5" x="2725.24" y="132.07" width="163.19" height="163.19" transform="translate(3020.49 -2593.17) rotate(90)"/><rect class="cls-5" x="2735.24" y="142.07" width="143.18" height="143.18"/><rect class="cls-4" x="2869.34" y="132.07" width="163.19" height="163.19" transform="translate(3164.59 -2737.28) rotate(90)"/><rect class="cls-4" x="2879.34" y="142.07" width="143.18" height="143.18"/><rect class="cls-3" x="-12.68" y="272.17" width="163.19" height="163.19" transform="translate(422.68 284.85) rotate(90)"/><rect class="cls-3" x="-2.67" y="282.17" width="143.18" height="143.18"/><rect class="cls-4" x="131.43" y="272.17" width="163.19" height="163.19" transform="translate(566.78 140.75) rotate(90)"/><rect class="cls-4" x="141.43" y="282.17" width="143.18" height="143.18"/><rect class="cls-3" x="275.53" y="272.17" width="163.19" height="163.19" transform="translate(710.88 -3.35) rotate(90)"/><rect class="cls-3" x="285.53" y="282.17" width="143.18" height="143.18"/><rect class="cls-4" x="419.63" y="272.17" width="163.19" height="163.19" transform="translate(854.99 -147.45) rotate(90)"/><rect class="cls-4" x="429.63" y="282.17" width="143.18" height="143.18"/><rect class="cls-3" x="563.73" y="272.17" width="163.19" height="163.19" transform="translate(999.09 -291.56) rotate(90)"/><rect class="cls-3" x="573.73" y="282.17" width="143.18" height="143.18"/><rect class="cls-4" x="707.83" y="272.17" width="163.19" height="163.19" transform="translate(1143.19 -435.66) rotate(90)"/><rect class="cls-4" x="717.83" y="282.17" width="143.18" height="143.18"/><rect class="cls-3" x="851.93" y="272.17" width="163.19" height="163.19" transform="translate(1287.29 -579.76) rotate(90)"/><rect class="cls-3" x="861.93" y="282.17" width="143.18" height="143.18"/><rect class="cls-4" x="996.03" y="272.17" width="163.19" height="163.19" transform="translate(1431.39 -723.86) rotate(90)"/><rect class="cls-4" x="1006.03" y="282.17" width="143.18" height="143.18"/><rect class="cls-3" x="1140.13" y="272.17" width="163.19" height="163.19" transform="translate(1575.49 -867.96) rotate(90)"/><rect class="cls-3" x="1150.13" y="282.17" width="143.18" height="143.18"/><rect class="cls-4" x="1284.23" y="272.17" width="163.19" height="163.19" transform="translate(1719.59 -1012.06) rotate(90)"/><rect class="cls-4" x="1294.23" y="282.17" width="143.18" height="143.18"/><rect class="cls-3" x="1428.33" y="272.17" width="163.19" height="163.19" transform="translate(1863.69 -1156.16) rotate(90)"/><rect class="cls-3" x="1438.33" y="282.17" width="143.18" height="143.18"/><rect class="cls-4" x="1572.43" y="272.17" width="163.19" height="163.19" transform="translate(2007.79 -1300.26) rotate(90)"/><rect class="cls-4" x="1582.44" y="282.17" width="143.18" height="143.18"/><rect class="cls-3" x="1716.54" y="272.17" width="163.19" height="163.19" transform="translate(2151.89 -1444.36) rotate(90)"/><rect class="cls-3" x="1726.54" y="282.17" width="143.18" height="143.18"/><rect class="cls-4" x="1860.64" y="272.17" width="163.19" height="163.19" transform="translate(2295.99 -1588.46) rotate(90)"/><rect class="cls-4" x="1870.64" y="282.17" width="143.18" height="143.18"/><rect class="cls-3" x="2004.74" y="272.17" width="163.19" height="163.19" transform="translate(2440.1 -1732.56) rotate(90)"/><rect class="cls-3" x="2014.74" y="282.17" width="143.18" height="143.18"/><rect class="cls-4" x="2148.84" y="272.17" width="163.19" height="163.19" transform="translate(2584.2 -1876.67) rotate(90)"/><rect class="cls-4" x="2158.84" y="282.17" width="143.18" height="143.18"/><rect class="cls-3" x="2292.94" y="272.17" width="163.19" height="163.19" transform="translate(2728.3 -2020.77) rotate(90)"/><rect class="cls-3" x="2302.94" y="282.17" width="143.18" height="143.18"/><rect class="cls-4" x="2437.04" y="272.17" width="163.19" height="163.19" transform="translate(2872.4 -2164.87) rotate(90)"/><rect class="cls-4" x="2447.04" y="282.17" width="143.18" height="143.18"/><rect class="cls-3" x="2581.14" y="272.17" width="163.19" height="163.19" transform="translate(3016.5 -2308.97) rotate(90)"/><rect class="cls-3" x="2591.14" y="282.17" width="143.18" height="143.18"/><rect class="cls-4" x="2725.24" y="272.17" width="163.19" height="163.19" transform="translate(3160.6 -2453.07) rotate(90)"/><rect class="cls-4" x="2735.24" y="282.17" width="143.18" height="143.18"/><rect class="cls-3" x="2869.34" y="272.17" width="163.19" height="163.19" transform="translate(3304.7 -2597.17) rotate(90)"/><rect class="cls-3" x="2879.34" y="282.17" width="143.18" height="143.18"/><rect class="cls-4" x="-12.68" y="414.24" width="163.19" height="163.19" transform="translate(564.75 426.92) rotate(90)"/><rect class="cls-4" x="-2.67" y="424.24" width="143.18" height="143.18"/><rect class="cls-5" x="131.43" y="414.24" width="163.19" height="163.19" transform="translate(708.85 282.81) rotate(90)"/><rect class="cls-5" x="141.43" y="424.24" width="143.18" height="143.18"/><rect class="cls-4" x="275.53" y="414.24" width="163.19" height="163.19" transform="translate(852.95 138.71) rotate(90)"/><rect class="cls-4" x="285.53" y="424.24" width="143.18" height="143.18"/><rect class="cls-5" x="419.63" y="414.24" width="163.19" height="163.19" transform="translate(997.05 -5.39) rotate(90)"/><rect class="cls-5" x="429.63" y="424.24" width="143.18" height="143.18"/><rect class="cls-4" x="563.73" y="414.24" width="163.19" height="163.19" transform="translate(1141.15 -149.49) rotate(90)"/><rect class="cls-4" x="573.73" y="424.24" width="143.18" height="143.18"/><rect class="cls-5" x="707.83" y="414.24" width="163.19" height="163.19" transform="translate(1285.25 -293.59) rotate(90)"/><rect class="cls-5" x="717.83" y="424.24" width="143.18" height="143.18"/><rect class="cls-4" x="851.93" y="414.24" width="163.19" height="163.19" transform="translate(1429.36 -437.69) rotate(90)"/><rect class="cls-4" x="861.93" y="424.24" width="143.18" height="143.18"/><rect class="cls-5" x="996.03" y="414.24" width="163.19" height="163.19" transform="translate(1573.46 -581.79) rotate(90)"/><rect class="cls-5" x="1006.03" y="424.24" width="143.18" height="143.18"/><rect class="cls-4" x="1140.13" y="414.24" width="163.19" height="163.19" transform="translate(1717.56 -725.89) rotate(90)"/><rect class="cls-4" x="1150.13" y="424.24" width="143.18" height="143.18"/><rect class="cls-5" x="1284.23" y="414.24" width="163.19" height="163.19" transform="translate(1861.66 -869.99) rotate(90)"/><rect class="cls-5" x="1294.23" y="424.24" width="143.18" height="143.18"/><rect class="cls-4" x="1428.33" y="414.24" width="163.19" height="163.19" transform="translate(2005.76 -1014.09) rotate(90)"/><rect class="cls-4" x="1438.33" y="424.24" width="143.18" height="143.18"/><rect class="cls-5" x="1572.43" y="414.24" width="163.19" height="163.19" transform="translate(2149.86 -1158.19) rotate(90)"/><rect class="cls-5" x="1582.44" y="424.24" width="143.18" height="143.18"/><rect class="cls-4" x="1716.54" y="414.24" width="163.19" height="163.19" transform="translate(2293.96 -1302.3) rotate(90)"/><rect class="cls-4" x="1726.54" y="424.24" width="143.18" height="143.18"/><rect class="cls-5" x="1860.64" y="414.24" width="163.19" height="163.19" transform="translate(2438.06 -1446.4) rotate(90)"/><rect class="cls-5" x="1870.64" y="424.24" width="143.18" height="143.18"/><rect class="cls-4" x="2004.74" y="414.24" width="163.19" height="163.19" transform="translate(2582.16 -1590.5) rotate(90)"/><rect class="cls-4" x="2014.74" y="424.24" width="143.18" height="143.18"/><rect class="cls-5" x="2148.84" y="414.24" width="163.19" height="163.19" transform="translate(2726.26 -1734.6) rotate(90)"/><rect class="cls-5" x="2158.84" y="424.24" width="143.18" height="143.18"/><rect class="cls-4" x="2292.94" y="414.24" width="163.19" height="163.19" transform="translate(2870.36 -1878.7) rotate(90)"/><rect class="cls-4" x="2302.94" y="424.24" width="143.18" height="143.18"/><rect class="cls-5" x="2437.04" y="414.24" width="163.19" height="163.19" transform="translate(3014.47 -2022.8) rotate(90)"/><rect class="cls-5" x="2447.04" y="424.24" width="143.18" height="143.18"/><rect class="cls-4" x="2581.14" y="414.24" width="163.19" height="163.19" transform="translate(3158.57 -2166.9) rotate(90)"/><rect class="cls-4" x="2591.14" y="424.24" width="143.18" height="143.18"/><rect class="cls-5" x="2725.24" y="414.24" width="163.19" height="163.19" transform="translate(3302.67 -2311) rotate(90)"/><rect class="cls-5" x="2735.24" y="424.24" width="143.18" height="143.18"/><rect class="cls-4" x="2869.34" y="414.24" width="163.19" height="163.19" transform="translate(3446.77 -2455.1) rotate(90)"/><rect class="cls-4" x="2879.34" y="424.24" width="143.18" height="143.18"/><rect class="cls-3" x="-12.68" y="554.35" width="163.19" height="163.19" transform="translate(704.86 567.02) rotate(90)"/><rect class="cls-3" x="-2.67" y="564.35" width="143.18" height="143.18"/><rect class="cls-4" x="131.43" y="554.35" width="163.19" height="163.19" transform="translate(848.96 422.92) rotate(90)"/><rect class="cls-4" x="141.43" y="564.35" width="143.18" height="143.18"/><rect class="cls-3" x="275.53" y="554.35" width="163.19" height="163.19" transform="translate(993.06 278.82) rotate(90)"/><rect class="cls-3" x="285.53" y="564.35" width="143.18" height="143.18"/><rect class="cls-4" x="419.63" y="554.35" width="163.19" height="163.19" transform="translate(1137.16 134.72) rotate(90)"/><rect class="cls-4" x="429.63" y="564.35" width="143.18" height="143.18"/><rect class="cls-3" x="563.73" y="554.35" width="163.19" height="163.19" transform="translate(1281.26 -9.38) rotate(90)"/><rect class="cls-3" x="573.73" y="564.35" width="143.18" height="143.18"/><rect class="cls-4" x="707.83" y="554.35" width="163.19" height="163.19" transform="translate(1425.36 -153.48) rotate(90)"/><rect class="cls-4" x="717.83" y="564.35" width="143.18" height="143.18"/><rect class="cls-3" x="851.93" y="554.35" width="163.19" height="163.19" transform="translate(1569.46 -297.58) rotate(90)"/><rect class="cls-3" x="861.93" y="564.35" width="143.18" height="143.18"/><rect class="cls-4" x="996.03" y="554.35" width="163.19" height="163.19" transform="translate(1713.56 -441.68) rotate(90)"/><rect class="cls-4" x="1006.03" y="564.35" width="143.18" height="143.18"/><rect class="cls-3" x="1140.13" y="554.35" width="163.19" height="163.19" transform="translate(1857.66 -585.79) rotate(90)"/><rect class="cls-3" x="1150.13" y="564.35" width="143.18" height="143.18"/><rect class="cls-4" x="1284.23" y="554.35" width="163.19" height="163.19" transform="translate(2001.76 -729.89) rotate(90)"/><rect class="cls-4" x="1294.23" y="564.35" width="143.18" height="143.18"/><rect class="cls-3" x="1428.33" y="554.35" width="163.19" height="163.19" transform="translate(2145.87 -873.99) rotate(90)"/><rect class="cls-3" x="1438.33" y="564.35" width="143.18" height="143.18"/><rect class="cls-4" x="1572.43" y="554.35" width="163.19" height="163.19" transform="translate(2289.97 -1018.09) rotate(90)"/><rect class="cls-4" x="1582.44" y="564.35" width="143.18" height="143.18"/><rect class="cls-3" x="1716.54" y="554.35" width="163.19" height="163.19" transform="translate(2434.07 -1162.19) rotate(90)"/><rect class="cls-3" x="1726.54" y="564.35" width="143.18" height="143.18"/><rect class="cls-4" x="1860.64" y="554.35" width="163.19" height="163.19" transform="translate(2578.17 -1306.29) rotate(90)"/><rect class="cls-4" x="1870.64" y="564.35" width="143.18" height="143.18"/><rect class="cls-3" x="2004.74" y="554.35" width="163.19" height="163.19" transform="translate(2722.27 -1450.39) rotate(90)"/><rect class="cls-3" x="2014.74" y="564.35" width="143.18" height="143.18"/><rect class="cls-4" x="2148.84" y="554.35" width="163.19" height="163.19" transform="translate(2866.37 -1594.49) rotate(90)"/><rect class="cls-4" x="2158.84" y="564.35" width="143.18" height="143.18"/><rect class="cls-3" x="2292.94" y="554.35" width="163.19" height="163.19" transform="translate(3010.47 -1738.59) rotate(90)"/><rect class="cls-3" x="2302.94" y="564.35" width="143.18" height="143.18"/><rect class="cls-4" x="2437.04" y="554.35" width="163.19" height="163.19" transform="translate(3154.57 -1882.69) rotate(90)"/><rect class="cls-4" x="2447.04" y="564.35" width="143.18" height="143.18"/><rect class="cls-3" x="2581.14" y="554.35" width="163.19" height="163.19" transform="translate(3298.67 -2026.79) rotate(90)"/><rect class="cls-3" x="2591.14" y="564.35" width="143.18" height="143.18"/><rect class="cls-4" x="2725.24" y="554.35" width="163.19" height="163.19" transform="translate(3442.77 -2170.89) rotate(90)"/><rect class="cls-4" x="2735.24" y="564.35" width="143.18" height="143.18"/><rect class="cls-3" x="2869.34" y="554.35" width="163.19" height="163.19" transform="translate(3586.87 -2315) rotate(90)"/><rect class="cls-3" x="2879.34" y="564.35" width="143.18" height="143.18"/><rect class="cls-1" x="1189.25" y="-1211.92" width="641.36" height="3045.2" transform="translate(1820.6 -1199.25) rotate(90)"/></g></svg>