<svg id="Lag_1" data-name="Lag 1" xmlns="http://www.w3.org/2000/svg" viewBox="0 0 4690.02 3126.68"><defs><style>.cls-1{fill:none;stroke:#344d3b;stroke-width:14.23px;stroke-dasharray:28.46 28.46 28.46 28.46 28.46 28.46;}.cls-1,.cls-2{stroke-miterlimit:10;}.cls-2{fill:#6276b8;stroke:#6276b8;stroke-width:0.25px;}</style></defs><path class="cls-1" d="M342,0C233.16,101.77,178.11,256.16,198.58,402.27S314.51,682.49,447.32,751.71c218.31,113.78,491.22,45.23,706.26-74.39s402-286.86,627.67-385.81c375.57-164.65,831.54-115.13,1182.25,95.74,110.34,66.35,212.9,149.17,283.58,255.49,115.77,174.15,153.4,415.73,339.43,515.4,84.19,45.11,184.46,51,273.24,86.64,141.75,56.92,243.56,187.82,289.95,331s42.92,297.66,20,446.17c-9.91,64.2-22.91,132.28,2.87,192.09,17.42,40.41,50.56,71.85,80,104.91,195.28,219.54,235.14,559.31,95.82,816.6"/><ellipse class="cls-2" cx="303.68" cy="624.92" rx="38.13" ry="57.39" transform="matrix(0.82, -0.57, 0.57, 0.82, -302.05, 284.57)"/><ellipse class="cls-2" cx="1881.83" cy="255.84" rx="57.39" ry="38.13" transform="translate(35.37 700.06) rotate(-21.27)"/><ellipse class="cls-2" cx="3441.78" cy="1020.35" rx="38.13" ry="57.39" transform="translate(-96.02 1629.38) rotate(-26.28)"/><ellipse class="cls-2" cx="4339.2" cy="2445.85" rx="38.13" ry="57.39" transform="translate(-537.55 1431.87) rotate(-17.66)"/></svg>