<svg id="Lag_1" data-name="Lag 1" xmlns="http://www.w3.org/2000/svg" xmlns:xlink="http://www.w3.org/1999/xlink" viewBox="0 0 1028.64 444.1"><defs><style>.cls-1{fill:none;}.cls-2{clip-path:url(#clip-path);}.cls-3{fill:#5b7a62;}.cls-4{fill:#344d3b;}.cls-5{fill:#fff;}.cls-6{clip-path:url(#clip-path-2);}</style><clipPath id="clip-path"><rect class="cls-1" x="-1190.02" y="-194.42" width="1030.22" height="444.1"/></clipPath><clipPath id="clip-path-2"><rect class="cls-1" x="449.69" y="-5" width="580.99" height="448.75"/></clipPath></defs><g class="cls-2"><path class="cls-3" d="M1031.64,298.14v28.79c-13.83,7.46-26.78,16.28-39.63,25.3-28.3,19.87-54.2,42.6-79.72,65.81-13.12,11.94-26,24.16-39.15,36-18.91,17-38,33.86-57,50.77-9.43,8.38-18.82,16.82-28.35,25.09-15.72,13.63-31.54,27.15-47.31,40.71a301.51,301.51,0,0,1-58.37-13.57c-4.18-1.44-9.07-1.53-12.42-5.12,5.21-3.87,11.4-6,17-9.16a704.9,704.9,0,0,0,67.59-44.15c25.42-18.84,49-39.83,72.52-60.85,11.2-10,22.52-19.9,34.08-29.48Q880.12,392.3,900,377c17.83-13.76,36.16-26.84,55.14-39A484.19,484.19,0,0,1,1009,307.58c7.35-3.47,14.28-8.2,22.6-9.44"/><path class="cls-3" d="M860.94,578.66H770.43c-2.39-1.22-5.14-1.26-7.55-2.14s-5.64.61-6.79-2.86c10-6.52,20.06-12.92,29.94-19.6,27.23-18.42,52.9-38.78,76-62.21,9-9.13,17.89-18.42,26.88-27.55,24.15-24.52,48-49.38,73.31-72.7,15.45-14.22,31-28.3,48-40.69,7-5.1,13.15-11.44,21.39-14.73v56.55c-1.31,0-2.16.81-3.14,1.54-5.76,4.3-10.92,9.29-16.31,14-13.14,11.55-25.29,24.11-37.25,36.8-14.17,15-27.58,30.78-41.34,46.19-6.48,7.26-13.29,14.23-19.46,21.75-17.87,21.76-35.49,43.73-53.2,65.62"/><path class="cls-3" d="M949.37,578.65H876.45c5.66-4.65,11.24-9.41,17-13.93,18.29-14.39,33.66-31.62,47.24-50.31,9.52-13.1,19-26.21,28.7-39.21,14.86-20,30.58-39.35,47-58.12,4.51-5.17,8.78-10.93,15.29-14.07v69.91a3.52,3.52,0,0,0-2.92,1.77c-8.26,11.07-16.59,22.07-24.81,33.17-11.77,15.9-23.57,31.75-36.62,46.67-6.56,7.51-13,15.3-17.92,24.12"/><path class="cls-4" d="M1031.64,298.14c-8.32,1.24-15.25,6-22.6,9.44A484.19,484.19,0,0,0,955.12,338c-19,12.15-37.31,25.23-55.14,39q-19.85,15.31-39.15,31.34c-11.56,9.58-22.88,19.47-34.08,29.48-23.55,21-47.1,42-72.52,60.85a704.9,704.9,0,0,1-67.59,44.15c-5.56,3.21-11.75,5.29-17,9.16-3.85.54-6.83-2-10.24-3,.12-2.37,1.87-3.62,3.55-4.74,12.52-8.33,23.92-18.13,35.85-27.23,13.55-10.34,26.63-21.32,39.69-32.29,25.34-21.29,51-42.16,77.4-62.13,16.6-12.55,32.84-25.58,49.46-38.12,32.92-24.82,67.33-47.24,103.82-66.43,17.53-9.22,35.75-16.88,54.19-24.05,2.75-1.9,5.49.93,8.24,0Z"/><path class="cls-4" d="M1031.64,336.18c-8.24,3.29-14.39,9.63-21.39,14.73-17,12.39-32.55,26.47-48,40.69-25.34,23.32-49.16,48.18-73.31,72.7-9,9.13-17.87,18.42-26.88,27.55-23.13,23.43-48.8,43.79-76,62.21-9.88,6.68-19.95,13.07-29.94,19.6-5.43.15-10.89.44-15.62-3,15.77-13.56,31.59-27.08,47.31-40.71,9.53-8.27,18.92-16.71,28.35-25.09,19-16.91,38.1-33.74,57-50.77,13.17-11.88,26-24.1,39.15-36,25.52-23.21,51.42-45.94,79.72-65.81,12.85-9,25.8-17.84,39.63-25.3Z"/><path class="cls-4" d="M1031.64,403c-6.51,3.14-10.78,8.9-15.29,14.07-16.39,18.77-32.11,38.12-47,58.12-9.66,13-19.18,26.11-28.7,39.21-13.58,18.69-28.95,35.92-47.24,50.31-5.75,4.52-11.33,9.28-17,13.92l-15.51,0c17.71-21.89,35.33-43.86,53.2-65.63,6.17-7.51,13-14.48,19.46-21.74,13.76-15.42,27.17-31.16,41.34-46.19,12-12.69,24.11-25.25,37.25-36.8,5.39-4.74,10.55-9.73,16.32-14,1-.73,1.82-1.56,3.13-1.54Z"/><path class="cls-4" d="M990.71,263.67c-3.82-6.51-2.59-13.09-.8-19.58,1.51-5.53,2.17-10.94.75-16.65-1.49-6-2.14-12.28,1.11-18a29.75,29.75,0,0,0,3.91-18.24,156.53,156.53,0,0,1-1-23.58,21.53,21.53,0,0,0-1.75,13.63c1.42,9.17,1.37,18-3.8,26.25-2.57,4.1-4.52,8.68-3.63,13.63,1.76,9.77.46,19.34-1,29-.83,5.54,1.24,10.28,6.21,13.53m11.75,11-.67,1-3,0c-16.26-1.53-24.25-13.71-18.92-29.12A27.42,27.42,0,0,0,981,231.13c-1.44-3.93-.72-8-1.06-12.08.86-3.42,1.91-6.82,1-10.41a18.48,18.48,0,0,1,3.72-13.31c2.37-3.32,4.3-7,3.57-11.32l-1.11-15.36c.71-2.05,1.07-4.32,2.2-6.11a21.87,21.87,0,0,0,3.07-14.46c1.33-3,2.4-6.79,6.23-2-.68,2,1.24,2.09,2.08,3l0,.1a28.34,28.34,0,0,1-.85,8.63c-1.65,5.66-.19,11.05,1.82,16.37,3.73,9.89,5.86,19.94,2.65,30.46-.76,2.48-1.36,5.24.4,7.4,4.67,5.72,3.76,11.71,1.37,17.87-1.29,3.34-1,6.36.1,9.89,1.59,4.85,5.53,8.49,6,14,.69,9-3.66,15.3-9.77,20.95"/><path class="cls-4" d="M939.09,258.07l.45.19-.41-.23c-.42-6.38,0-12.61,2.54-18.63s2-12.13-.93-17.88a12,12,0,0,1-.39-10.86c4-9,1.75-18.17,1.36-27.31-1,5-.65,10.15-1.31,15.24-.69,5.38-3,10.14-4.12,15.3a13.56,13.56,0,0,0,.32,8.12c2.46,5.84,1.73,11.44.2,17.46-1.57,6.23-3.71,13.07,2.29,18.6m1.22-88.43c1.45-3.3.7-6.79.88-10.2.3-.59.59-1.2.9-1.78.81-1.52,1.81-3.31,3.67-2.86,1.61.39,1.53,2.36,1.68,3.89a24.82,24.82,0,0,0,.64,2.91c.13,2.72-.09,5.5,1.44,8,0,.62,0,1.24,0,1.86a53.16,53.16,0,0,1,.13,17.26c-.81,5.15-1,10.67,1.91,15.5,3.71,6.12,4.45,12.76,4.08,19.72-.12,2.33-.47,4.73.67,7.05,5.8,11.75,2.42,26.71-7.9,35.33-6,.79-9.92-2.15-12.94-7-3.52-5.66-3.59-11.78-2.82-18.06a20.46,20.46,0,0,0,1.23-13c-.11-.72-.23-1.43-.34-2.14s-.37-1.31-.55-2q-.68-3.12-1.34-6.24a22.18,22.18,0,0,1,3.23-14.21,15.77,15.77,0,0,0,1.86-9.93c-.33-3.57-.5-7.16-.74-10.74,1.33-4.49,3.86-8.59,4.36-13.35"/><path class="cls-4" d="M1002.46,274.69c6.11-5.65,10.46-11.94,9.77-20.95-.42-5.47-4.36-9.11-6-14-1.15-3.53-1.39-6.55-.1-9.89,2.39-6.16,3.3-12.15-1.37-17.87-1.76-2.16-1.16-4.92-.4-7.4,3.21-10.52,1.08-20.57-2.65-30.46-2-5.32-3.47-10.71-1.82-16.37a28.34,28.34,0,0,0,.85-8.63c.71,1.05,1.41,2.1,2.12,3.14,0,.81,0,1.65.93,2l-.21,0c1.68,4.64.41,9.69,2,14.35l4.65,13.29c.54,7.35-.32,14.93,3.58,21.72,2.82,6.61,2.86,13.06-.85,19.4a6.59,6.59,0,0,0-.67,4.93c4.2,6.31,6.4,13.09,5.15,20.77-.12.72.58,1.58.89,2.37,5.16,13.22-1.61,23.23-15.9,23.53"/><path class="cls-4" d="M1000.74,149.06c-.84-.9-2.76-1-2.07-3a4.82,4.82,0,0,1,2.07,3"/><path class="cls-3" d="M659.44,549c-10.78-4.8-21.61-9.48-32.31-14.42-8.61-4-16.91-8.6-25.89-11.78-1-.35-1.65-1.65-2.46-2.51a23.88,23.88,0,0,1,3.21-2.5c21.31-11.55,42.49-23.31,63.27-35.83,20.33-12.24,40.38-24.93,59.8-38.54s38.11-28.12,57.09-42.28c16.41-12.24,33.35-23.72,50.2-35.34,15.56-10.72,31.5-20.84,47.67-30.59a568.76,568.76,0,0,1,51.29-27.8l30.49-14.35c10.49-.05,21-.15,31.47-.11,2.37,0,4.42-.08,5-2.9.31,2.79,2.29,2.86,4.41,2.7,6.87.84,13.89-.76,20.69,1.26-18.44,7.17-36.66,14.83-54.19,24.05-36.49,19.19-70.9,41.61-103.82,66.43-16.62,12.54-32.86,25.57-49.46,38.12-26.41,20-52.06,40.84-77.4,62.13-13.06,11-26.14,21.95-39.69,32.29-11.93,9.1-23.34,18.9-35.85,27.23-1.68,1.12-3.43,2.37-3.55,4.74"/><path class="cls-5" d="M1002.71,292.75c-2.12.16-4.1.1-4.41-2.71q.26-7.16.49-14.33l3,0q.47,8.5.92,17"/><path class="cls-3" d="M587.46,516.1c-16.1-7.56-32.8-13.89-48-23.4-3.91-2.45-9.34-2.5-11.65-7.46a11.81,11.81,0,0,1,2.21-1.18c23.93-6.66,46.79-16.1,69.42-26.21,20.45-9.14,40.74-18.46,59.67-30.55q21.38-13.67,42.14-28.23c12.14-8.53,24.29-17.06,37-24.67,16.13-9.63,32.07-19.54,48.5-28.68,21.09-11.73,42.42-22.88,64.32-33,7.43-3.44,15.22-6.11,22.27-10.37,5.74-1,11.12-3.87,17.21-3.21,1.77.2,3.77.53,5.33-.95l7.91-1.12c2.17-.15,4.46.45,6.42-1,8.63.33,17.11-1.32,25.67-2-1.09,2.59-3.8,2-5.74,2.83a766.43,766.43,0,0,0-72.83,36.24c-21.53,12.19-42.39,25.43-63.24,38.69-16.12,10.26-32,20.93-47.93,31.48-15.63,10.34-31.31,20.61-46.76,31.21-14.74,10.13-29.16,20.74-43.83,31-23.2,16.21-46.12,32.8-68.15,50.59"/><path class="cls-3" d="M517.45,481.17c-5.4-2.42-10.33-5.69-15.41-8.69C491,466,479.85,459.56,468.81,453a36.66,36.66,0,0,1-8.83-6.75c1.66-1.83,4.39-.64,6.17-2.17l1.06-1v0a86.78,86.78,0,0,0,24.66-7.23c1.69.24,3-.11,3.32-2.08.75.1.41,2.06,1.81,1.05a100.12,100.12,0,0,0,22.32-7.26c1.78.09,3.37-.24,4.31-2,7.94-1.14,15-5.07,22.6-7.24a10.21,10.21,0,0,0,4.64-2.09,3,3,0,0,0,2.72-.94,99.47,99.47,0,0,0,18.51-7.29c1.79,0,3.12-1,4.44-2.06,8.11-2.19,15.57-6,23.25-9.29,9.73-4.12,19.2-8.83,28.78-13.28,1.56-.82,3.37-1.28,4.16-3.11,6.9-.46,12-5.43,18.42-7.2,4.13-3,9.64-3.37,13.42-7,6.42-1.08,12.09-4,17.59-7.25l15.35-6.09c4.05-1.12,8.11-2.22,11.26-5.26,4.89-1.47,10.17-1.8,14.42-5.09,4.12-.49,7.77-2.26,11.38-4.14,4.67.27,7.71-4.21,12.29-4.19,4.68-1.12,9.3-2.41,13.39-5.09,5.4-.88,10.66-2.19,15.38-5.13,4,.35,7.51-1.35,11.25-2.13,5.82-1.82,11.41-4.44,17.56-5.14,4.16-1.19,8.59-1.55,12.31-4.06l5.07-1.06,1,.65c-.34,1.2-1.45,1.31-2.36,1.73-10.38,4.81-20.86,9.41-31.1,14.5-18.93,9.41-37.54,19.44-56,29.83q-33,18.63-65.27,38.47c-27.47,16.91-55.67,32.53-83.81,48.27-21,11.74-42.25,23.05-64,33.41a6.34,6.34,0,0,0-2.88,2.82"/><path class="cls-4" d="M587.46,516.1c22-17.79,44.95-34.38,68.15-50.59,14.67-10.24,29.09-20.85,43.83-31,15.45-10.6,31.13-20.87,46.76-31.21,15.94-10.55,31.81-21.22,47.93-31.48,20.85-13.26,41.71-26.5,63.24-38.69a766.43,766.43,0,0,1,72.83-36.24c1.94-.84,4.65-.24,5.74-2.83,3.87.46,7.57-.95,11.39-1.09l7.27,0,7.2.1-30.49,14.35A568.76,568.76,0,0,0,880,335.21c-16.17,9.75-32.11,19.87-47.67,30.59-16.85,11.62-33.79,23.1-50.2,35.34-19,14.16-37.71,28.69-57.09,42.28s-39.47,26.3-59.8,38.54c-20.78,12.52-42,24.28-63.27,35.83a24.52,24.52,0,0,0-3.21,2.5c-4-.68-8-1.63-11.32-4.19"/><path class="cls-4" d="M517.45,481.17a6.34,6.34,0,0,1,2.88-2.82c21.74-10.36,43-21.67,64-33.41,28.14-15.74,56.34-31.36,83.81-48.27q32.26-19.86,65.27-38.47c18.42-10.39,37-20.42,56-29.83,10.24-5.09,20.72-9.69,31.1-14.5.91-.42,2-.53,2.36-1.72,2.58-.51,1.83-.66,9.37-3.38a118.83,118.83,0,0,1,14.42-3.46c5.8-1,11.85,0,17.44-1.95,4-1.38,7.24-1.85,4.35-1.85,4.94,0,5,.83,5,.83-7,4.26-14.84,6.93-22.27,10.37-21.9,10.12-43.23,21.28-64.32,33-16.43,9.14-32.37,19-48.5,28.68-12.74,7.61-24.89,16.14-37,24.67q-20.76,14.58-42.14,28.23c-18.93,12.09-39.22,21.41-59.67,30.55C576.84,468,554,477.4,530.05,484.06a11.81,11.81,0,0,0-2.21,1.18c-4.1.28-7.22-2-10.39-4.07"/><path class="cls-4" d="M899.78,265.57c-4.34-5.71-2.42-11,.08-16.53,2.72-6,3.42-12.15.34-18.29-1.12-2.24-2-4.78-.78-6.89,5.14-9,1.18-18.11,1.48-27.82-1.58,2.08-1.31,3.63-1.2,5.37.36,5.42,1.56,11.12-.88,16.19-2.84,5.9-3.77,11.44-1.21,17.69,1.15,2.79.6,6-.92,8.93a30.11,30.11,0,0,0-2.44,6.18c-2,7.59-.36,12.42,5.53,15.17m-3.72-54.8a9.29,9.29,0,0,0,0-3c-2.84-7.63-3.44-14.81,2.81-21.33,1.36-1.41,1.36-3.81.4-5.85,0-1.08-.06-2.15-.08-3.24.2-.83.4-1.66.61-2.49,1.08-1.94,2.58-2.24,4.64-1.5s2.67,2.23,2.77,4.22c.1,1.81.35,3.61.54,5.41,0,2.73,1.63,4.86,2.53,7.26-.75.7-.24.78.39.8h-.14c-1,10.81-2.67,21.57,1.55,32.23,1.12,2.82.29,6.42.32,9.66,0,4.42-.31,8.87,1.09,13.18,3.94,12.11-.47,21.9-8.57,30.64-3.7.21-6.44-1.67-9.16-3.88-5.51-4.49-6.59-10.48-6.24-17a20.25,20.25,0,0,1,3.54-9.39,11.21,11.21,0,0,0,.78-12,21,21,0,0,1-2.27-11.28c1.22-4.23,5.07-7.51,4.52-12.39"/><path class="cls-3" d="M990.71,263.67c-5-3.25-7-8-6.21-13.53,1.44-9.65,2.75-19.22,1-29-.89-5,1.06-9.53,3.63-13.63,5.17-8.25,5.22-17.08,3.8-26.25a21.53,21.53,0,0,1,1.75-13.63,157.86,157.86,0,0,0,1,23.58,29.75,29.75,0,0,1-3.91,18.24c-3.25,5.71-2.6,11.95-1.11,18,1.42,5.71.77,11.12-.75,16.65-1.79,6.49-3,13.07.8,19.58"/><path class="cls-4" d="M962.71,219.91c-1.91,4.92-1,9.6,1.22,14.17,1,4.45,2.23,8.86,2.83,13.35,1.6,12-1.52,16.29-13.36,19.14l-4.33.18a3,3,0,0,1-.71-.46c10.32-8.62,13.7-23.58,7.9-35.33-1.14-2.32-.79-4.72-.67-7.05.37-7-.37-13.6-4.08-19.72-2.92-4.83-2.72-10.35-1.91-15.5a53.16,53.16,0,0,0-.13-17.26L954.42,183a39.24,39.24,0,0,1,0,6.13c-1.14,7.89,1.21,14.41,7.26,19.59,2,3.57,1.19,7.4,1,11.18"/><path class="cls-3" d="M939.09,258.07c-6-5.53-3.86-12.37-2.28-18.6,1.52-6,2.26-11.62-.21-17.46a13.64,13.64,0,0,1-.32-8.12c1.08-5.16,3.43-9.92,4.12-15.3.66-5.09.36-10.2,1.31-15.24.39,9.14,2.61,18.35-1.36,27.31a12,12,0,0,0,.39,10.86c2.88,5.75,3.46,11.84.93,17.88s-3,12.25-2.54,18.63Z"/><path class="cls-3" d="M939.13,258l.41.23-.45-.19,0,0"/><path class="cls-5" d="M903.85,297.06l1.32-19.62,2.93-.08q1.08,9.34,2.17,18.69c-2,1.46-4.25.86-6.42,1"/><path class="cls-5" d="M821.83,311.49c.13-3.33.27-6.65.4-10l3.55-.14a51.93,51.93,0,0,0,.29,6.12c.43,2.74-.67,4.14-3.25,4.65l-1-.66"/><path class="cls-3" d="M466.15,444.09l1.06-1-1.06,1"/><path class="cls-5" d="M949.07,266.75l4.33-.18L954.6,293l-7.28,0c2.09-8.64.42-17.54,1.75-26.24"/><path class="cls-4" d="M819.85,243.67c-3.5,6.22.1,14.12-4.74,20-.05.07.06.34.15.47,3.91,5.56,1.33,11.05,0,16.63-.8,3.3-1.59,6.85,2.56,10.68-.6-6.06,1.76-10.31,2.73-14.9.81-3.79,1.09-7.81-1.35-11.37-.45-.68-1.16-1.89-.92-2.22,4.66-6.15,1.09-12.91,1.57-19.34l.89-1.63-.6-.3-.27,1.95m5.93,57.71-3.54.14c-5.37-2.39-10.39-5.12-11.49-11.7a16.1,16.1,0,0,1,1-8c1.84-4.57,1.65-9.32.49-14a8,8,0,0,1,.37-5.94c4.71-8.66,3-18.5,5.17-27.62a65,65,0,0,0,.93-8.05c.59-1.67,1.46-3.26,3.49-2.89s2.18,2.26,2.39,3.94c.12,1,.26,2,.4,3q.94,5.23,1.88,10.46c-.94.77-.72,1.39.25,1.92l0-.06c-.4,7.48,2,14.89.91,22.33-.73,4.94-1.44,9.85.33,14.53,2.67,7.08,2.14,13.95-.19,20.89l-1.07.95-1.28.12"/><path class="cls-5" d="M864.05,303.36c-5.12-.09-2.24-4-3-6.21-.83-2.45,1.14-4.62.72-7l3.8.05c.19,1.63.37,3.26.55,4.89-1.13,2.66,2.25,6.45-2.1,8.3"/><path class="cls-4" d="M859.13,215.22c.74,6.28-1.47,11.89-3,17.66-.74,2.91-2.07,5.84-.78,9,2,4.91,1.34,9.6-1.06,14.26a21.65,21.65,0,0,0-2.27,6.77c-.63,4.68-1.35,9.54,3.1,13.24-2-6.61,1.38-12,3.46-17.68a22.66,22.66,0,0,0,.87-14.08c-1.5-5.32-1-10.26-.07-15.53.84-4.46,3.06-9.18-.3-13.64M852.82,228c-.77-5.1,2.66-9.37,2.82-14.29a19.22,19.22,0,0,0,.34-7.13c.17-2.19.33-4.39.52-6.58.13-1.51,0-3.4,1.78-3.87s3.3,1,4.08,2.44a73.09,73.09,0,0,1,2.87,7c.4,2.78.51,5.61,1.79,8.19l.9,4.17c-1.44,2.6-.63,5.27-.35,8,.95,8.89,3.38,17.78-.12,26.69-.91,2.32,0,4.69.71,7,2,6.17,3.56,12.36,3.21,19-.19,3.67-2.35,6.79-2.16,10.45-1,1-2.39.75-3.61,1.08l-3.8-.05c-13.77-6.05-16.2-10.71-12.49-25,1.27-4.92,1.82-9.73.22-14.55-1.48-4.47-.4-8.33,2.05-12,1.89-3.31,2.66-6.75,1.24-10.46"/><path class="cls-4" d="M908.1,277.35l-2.93.09a4.65,4.65,0,0,1-.28-.7c8.1-8.74,12.51-18.53,8.57-30.64-1.4-4.31-1.06-8.76-1.09-13.18,0-3.24.8-6.84-.32-9.65-4.22-10.67-2.58-21.43-1.55-32.24,2.53,2.83,2.85,6.29,2.89,9.86,0,3.84-.32,7.76,1.9,11.23l4.62,11c-.49,6.95-2,14,1.84,20.54,1,3.45,2.3,6.83,2.81,10.34,1.54,10.49-2.5,17.37-12.27,21.6l-4.19,1.79"/><path class="cls-3" d="M899.77,265.57c-5.88-2.75-7.52-7.58-5.52-15.17a30.11,30.11,0,0,1,2.44-6.18c1.52-2.91,2.07-6.14.92-8.93-2.56-6.25-1.63-11.79,1.21-17.69,2.44-5.07,1.24-10.77.88-16.19-.11-1.74-.38-3.29,1.2-5.37-.3,9.71,3.66,18.87-1.48,27.82-1.21,2.11-.34,4.66.78,6.89,3.08,6.14,2.38,12.31-.34,18.29-2.5,5.48-4.42,10.82-.09,16.53"/><path class="cls-4" d="M910.25,190.22a.91.91,0,0,1,.39.8c-.63,0-1.14-.1-.39-.8"/><path class="cls-4" d="M872.49,229.25c1.19,5.44,2.31,10.87,1.66,16.51a7.79,7.79,0,0,0,1.44,5.78c0,.65.15,1.17.9,1.29l.08-.05c.68,6.32.34,12.56,2.55,19,2.07,6-2.76,11.42-6.87,16.05l-3,1.29c-.19-3.66,2-6.78,2.16-10.45.35-6.64-1.23-12.83-3.21-19-.74-2.3-1.62-4.67-.71-7,3.5-8.91,1.07-17.8.12-26.69-.28-2.69-1.09-5.36.35-8l4.57,11.25"/><path class="cls-4" d="M827.08,242.56a33.81,33.81,0,0,1,5.27,19.75,15.12,15.12,0,0,0,1,7c1.25,2.81,2.21,5.46,1.12,8.73-.89,2.67,1.51,4.65,2.86,6.76a17.22,17.22,0,0,1-2.9,10.36c-1.83,2-3.17,4.69-6.28,5.18,2.33-6.94,2.86-13.81.19-20.89-1.77-4.67-1.06-9.59-.33-14.53,1.09-7.44-1.31-14.85-.91-22.33"/><path class="cls-3" d="M819.83,243.65c-.48,6.43,3.09,13.19-1.57,19.34-.24.33.47,1.54.92,2.21,2.44,3.57,2.16,7.59,1.35,11.38-1,4.59-3.33,8.84-2.73,14.9-4.15-3.83-3.36-7.38-2.56-10.68,1.35-5.58,3.93-11.07,0-16.63-.09-.13-.21-.4-.15-.47,4.84-5.91,1.24-13.81,4.74-20Z"/><path class="cls-3" d="M819.85,243.67l.27-1.94.6.29-.89,1.63Z"/><path class="cls-4" d="M826.87,240.7c.09.64.17,1.28.25,1.92-1-.53-1.19-1.15-.25-1.92"/><path class="cls-3" d="M859.13,215.22c3.36,4.47,1.14,9.18.3,13.64-1,5.27-1.43,10.21.07,15.53a22.66,22.66,0,0,1-.87,14.08c-2.08,5.65-5.42,11.07-3.46,17.69-4.45-3.71-3.73-8.57-3.1-13.25a21.65,21.65,0,0,1,2.27-6.77c2.4-4.66,3.07-9.35,1.06-14.26-1.29-3.16,0-6.09.78-9,1.48-5.76,3.69-11.38,3-17.66"/></g><g class="cls-6"><path class="cls-4" d="M1030.58,388.06a26.55,26.55,0,0,0-5.21,3.84,26.55,26.55,0,0,1,5.21-3.84V311.65h0V301.07c-6,3.73-11.93,7.77-17.7,12,5.77-4.22,11.65-8.26,17.7-12V263.45c-2.75,1-5.49-2.2-8.24,0-6.8-2.31-13.82-.48-20.69-1.44-2.12.18-4.1.11-4.41-3.09-.61,3.23-2.66,3.33-5,3.32-10.49,0-21,.07-31.47.12h0l-7.2-.11-7.27,0c-3.82.16-7.52,1.76-11.39,1.24a3.76,3.76,0,0,1-3,2.5l-.53.11.53-.11a3.76,3.76,0,0,0,3-2.5c-8.56.74-17,2.63-25.67,2.25-2,1.67-4.25,1-6.42,1.15l-7.91,1.29c-1.56,1.69-3.56,1.31-5.33,1.09-6.09-.76-11.47,2.47-17.21,3.66,0,0-.1-.94-5-.94,2.89,0-.37.54-4.35,2.11-5.59,2.21-11.64,1.06-17.44,2.23a107.73,107.73,0,0,0-14.42,3.95c-2.62,1.08-4.22,1.8-5.33,2.31h0c.36-.21-5.64,1.22-6,1a82.46,82.46,0,0,0-9.39,2.94c-3,1.22-20.16,6.47-22.43,7.16a294.56,294.56,0,0,0-28.81,9.76c-12.71,5.22-298.62,132-300.28,134.07l-19.6,13.94c-5.48,0-78-78.5-88.36-85.7S306.65,340,306.65,340s-35.81-15.34-51.72-22.36-56.41-20.1-77.7-23.75-20.46-2.67-30.69-3.91c-3.87-.47-28.15-1.74-29.06-2.85l-2.87,0a2.57,2.57,0,0,0,.36,1.24,2.57,2.57,0,0,1-.36-1.24L88.82,287h0l-.46-.18-6,0-6.88.25h0c-8-1-15.89.87-23.85,1.16l1.55.83-1.55-.83c-3.79,0-7.48,1.86-11.33.82l-6.07.11c-4.35,1.32-8.8,1.32-13.25,1.38a7,7,0,0,0-5.36,1.28,3.47,3.47,0,0,0,2.62,2.64,3.47,3.47,0,0,1-2.62-2.64l-1.86-.06c-2,1.7-4.18.84-6.3.93l-5.08.12V314h0v44.67h0v9.4h0v45.85c5,.68,8.7,4.34,12.44,7.57-3.74-3.23-7.43-6.89-12.44-7.57v57.6h0v81.11h0v36.44l19.51-.17h0l39.12,0,26.71,0c-.33-.77-.65-1.55-1-2.31.35.76.67,1.54,1,2.31h71c-.24-.62-.4-1.33-.67-1.94.27.61.43,1.32.68,1.94l62.73,0h0l31.84,0h75l33,0c-.28-2.06-1.8-2.78-3.06-3.68,1.26.9,2.78,1.62,3.06,3.68h58.48c-7.1-4.43-14.24-8.78-21.32-13.22,7.08,4.44,14.22,8.79,21.32,13.22l31,0,42,0h33a42.68,42.68,0,0,0-9.84-8.26,42.88,42.88,0,0,1,9.84,8.25l88.33,0H875.39c4.56-4.28,9.07-8.64,13.66-12.88-4.59,4.24-9.1,8.6-13.66,12.88h99.72l55.47.18V485.62h0V468a2.65,2.65,0,0,0-1.31.33,2.65,2.65,0,0,1,1.31-.33Z"/><path class="cls-3" d="M1030.69,291.56v28.78c-13.83,7.47-26.78,16.28-39.63,25.31-28.3,19.87-54.2,42.59-79.72,65.8-13.12,11.94-26,24.17-39.16,36-18.9,17-38,33.87-57,50.77-9.43,8.39-18.82,16.82-28.35,25.09-15.72,13.64-31.54,27.15-47.32,40.71a301.56,301.56,0,0,1-58.36-13.56c-4.19-1.45-9.08-1.54-12.42-5.13,5.21-3.87,11.39-6,17-9.16a704.9,704.9,0,0,0,67.59-44.15c25.41-18.84,49-39.82,72.52-60.85,11.2-10,22.51-19.89,34.07-29.48q19.3-16,39.16-31.34c17.83-13.76,36.16-26.84,55.14-39A481.71,481.71,0,0,1,1008.09,301c7.35-3.48,14.28-8.21,22.6-9.44"/><path class="cls-3" d="M860,572.07h-90.5c-2.39-1.21-5.14-1.26-7.55-2.14s-5.65.61-6.79-2.86c10-6.52,20.05-12.92,29.93-19.6,27.24-18.41,52.91-38.78,76-62.21,9-9.13,17.89-18.42,26.89-27.55,24.14-24.52,48-49.37,73.31-72.7,15.45-14.22,31-28.3,48-40.68,7-5.1,13.14-11.45,21.39-14.73v56.54c-1.31,0-2.17.81-3.14,1.54-5.76,4.3-10.92,9.29-16.31,14C998.1,413.27,986,425.82,974,438.52c-14.16,15-27.57,30.77-41.33,46.18-6.48,7.26-13.29,14.24-19.46,21.75-17.87,21.76-35.49,43.73-53.21,65.62"/><path class="cls-3" d="M948.42,572.07H875.5c5.66-4.65,11.23-9.4,17-13.93,18.29-14.39,33.66-31.62,47.24-50.31,9.52-13.1,19-26.21,28.7-39.2,14.86-20,30.58-39.36,47-58.13,4.51-5.17,8.78-10.93,15.29-14.07v69.91a3.58,3.58,0,0,0-2.93,1.77c-8.25,11.07-16.59,22.08-24.8,33.17-11.77,15.9-23.57,31.75-36.62,46.67-6.57,7.51-13,15.3-17.92,24.13"/><path class="cls-4" d="M1030.69,291.56c-8.32,1.23-15.25,6-22.6,9.44a481.71,481.71,0,0,0-53.92,30.41c-19,12.14-37.31,25.22-55.14,39q-19.85,15.32-39.16,31.34c-11.56,9.59-22.87,19.48-34.07,29.48-23.55,21-47.11,42-72.52,60.85a704.9,704.9,0,0,1-67.59,44.15c-5.57,3.21-11.75,5.29-17,9.16-3.86.55-6.83-2-10.24-3,.12-2.37,1.86-3.62,3.55-4.74,12.51-8.33,23.92-18.13,35.84-27.23,13.56-10.34,26.64-21.32,39.7-32.29,25.34-21.28,51-42.16,77.4-62.13,16.6-12.55,32.83-25.58,49.46-38.11,32.92-24.82,67.32-47.25,103.82-66.44,17.53-9.22,35.75-16.88,54.19-24.05,2.75-1.9,5.49.93,8.24,0Z"/><path class="cls-4" d="M1030.69,329.6c-8.25,3.28-14.4,9.63-21.39,14.73-17,12.39-32.55,26.46-48,40.68C936,408.34,912.13,433.19,888,457.71c-9,9.13-17.87,18.42-26.89,27.55-23.12,23.43-48.79,43.8-76,62.21-9.88,6.68-20,13.08-29.93,19.6-5.43.15-10.89.45-15.63-3,15.78-13.56,31.6-27.07,47.32-40.71,9.53-8.27,18.92-16.7,28.35-25.09,19-16.9,38.1-33.74,57-50.77,13.18-11.87,26-24.1,39.16-36,25.52-23.21,51.42-45.93,79.72-65.8,12.85-9,25.8-17.84,39.63-25.31Z"/><path class="cls-4" d="M1030.69,396.42c-6.51,3.14-10.78,8.9-15.29,14.08-16.39,18.77-32.11,38.12-47,58.12-9.66,13-19.18,26.11-28.7,39.2-13.58,18.69-29,35.92-47.24,50.31-5.76,4.53-11.33,9.28-17,13.93H860c17.72-21.89,35.34-43.86,53.21-65.62,6.17-7.51,13-14.49,19.46-21.75,13.76-15.41,27.17-31.15,41.33-46.18,12-12.7,24.12-25.25,37.26-36.81,5.39-4.74,10.55-9.73,16.31-14,1-.73,1.83-1.55,3.14-1.54Z"/><path class="cls-4" d="M989.76,257.08c-3.83-6.51-2.59-13.08-.81-19.57,1.52-5.54,2.18-10.95.76-16.66-1.49-6-2.14-12.27,1.11-18a29.78,29.78,0,0,0,3.91-18.24,156.67,156.67,0,0,1-1-23.59A21.64,21.64,0,0,0,992,174.69c1.43,9.16,1.38,18-3.8,26.24-2.57,4.1-4.51,8.68-3.62,13.63,1.76,9.78.46,19.34-1,29-.83,5.55,1.25,10.29,6.22,13.53m11.75,11-.67,1-3,0c-16.26-1.53-24.25-13.7-18.92-29.12a27.41,27.41,0,0,0,1.14-15.46c-1.44-3.93-.72-8-1.06-12.08.85-3.42,1.91-6.82,1-10.41a18.4,18.4,0,0,1,3.72-13.3c2.37-3.33,4.29-6.95,3.57-11.33l-1.11-15.36c.71-2.05,1.07-4.32,2.2-6.1a21.9,21.9,0,0,0,3.07-14.47c1.33-3,2.4-6.79,6.23-2-.69,2,1.24,2.1,2.08,3l.05.1a28.32,28.32,0,0,1-.86,8.63c-1.65,5.66-.18,11.05,1.83,16.38,3.72,9.89,5.86,19.93,2.65,30.45-.76,2.49-1.37,5.25.4,7.4,4.67,5.72,3.76,11.72,1.37,17.88-1.29,3.33-1.05,6.35.1,9.88,1.58,4.85,5.53,8.5,5.95,14,.69,9-3.66,15.31-9.77,21"/><path class="cls-4" d="M938.14,251.48l.45.19-.41-.23c-.42-6.38,0-12.61,2.54-18.62s1.94-12.14-.94-17.89a12.1,12.1,0,0,1-.39-10.86c4-8.95,1.76-18.16,1.37-27.31-1,5-.65,10.15-1.31,15.24-.7,5.38-3,10.15-4.12,15.31a13.53,13.53,0,0,0,.32,8.11c2.46,5.84,1.72,11.45.2,17.46-1.57,6.23-3.71,13.07,2.29,18.6m1.22-88.43c1.44-3.3.7-6.79.88-10.19.3-.6.58-1.2.9-1.79.8-1.52,1.81-3.3,3.67-2.86,1.61.39,1.53,2.37,1.68,3.89a23.48,23.48,0,0,0,.64,2.92c.13,2.72-.09,5.5,1.44,8,0,.62,0,1.25-.05,1.87a53.15,53.15,0,0,1,.13,17.26c-.81,5.15-1,10.67,1.91,15.49,3.71,6.13,4.45,12.76,4.08,19.73-.13,2.33-.47,4.73.67,7,5.8,11.75,2.42,26.71-7.9,35.34-6,.78-9.92-2.15-12.95-7-3.51-5.67-3.58-11.78-2.81-18.07a20.45,20.45,0,0,0,1.23-13c-.12-.71-.23-1.43-.34-2.14s-.37-1.3-.55-2l-1.35-6.23a22.29,22.29,0,0,1,3.24-14.22,15.7,15.7,0,0,0,1.85-9.93c-.33-3.57-.5-7.15-.74-10.73,1.34-4.49,3.87-8.6,4.37-13.36"/><path class="cls-4" d="M1001.51,268.1c6.11-5.64,10.46-11.94,9.77-21-.42-5.46-4.37-9.11-5.95-14-1.15-3.53-1.39-6.55-.1-9.88,2.39-6.16,3.3-12.16-1.37-17.88-1.77-2.15-1.16-4.91-.4-7.4,3.21-10.52,1.07-20.56-2.65-30.45-2-5.33-3.48-10.72-1.83-16.38a28.32,28.32,0,0,0,.86-8.63l2.12,3.15c0,.8-.05,1.64.93,2l-.21,0c1.68,4.64.41,9.69,2,14.34l4.66,13.3c.54,7.34-.32,14.92,3.58,21.72,2.82,6.6,2.85,13.06-.85,19.4a6.56,6.56,0,0,0-.67,4.92c4.19,6.31,6.4,13.09,5.15,20.77-.12.73.58,1.58.89,2.38,5.16,13.21-1.61,23.23-15.9,23.52"/><path class="cls-3" d="M658.49,542.41c-10.78-4.79-21.61-9.47-32.31-14.42-8.61-4-16.91-8.6-25.89-11.78-1-.35-1.65-1.65-2.46-2.5A23.17,23.17,0,0,1,601,511.2c21.31-11.55,42.49-23.31,63.27-35.82,20.33-12.25,40.38-24.94,59.79-38.55s38.12-28.12,57.1-42.28c16.41-12.24,33.35-23.72,50.2-35.33,15.56-10.73,31.49-20.85,47.67-30.59a566.36,566.36,0,0,1,51.29-27.81l30.49-14.35c10.49-.05,21-.14,31.47-.1,2.37,0,4.42-.08,5-2.91.31,2.8,2.29,2.86,4.41,2.7,6.87.84,13.89-.76,20.69,1.26-18.44,7.17-36.66,14.83-54.19,24.05-36.49,19.19-70.9,41.62-103.82,66.44C847.81,390.44,831.58,403.47,815,416c-26.41,20-52.06,40.85-77.4,62.13-13.06,11-26.14,22-39.69,32.29-11.93,9.1-23.34,18.9-35.85,27.23-1.69,1.12-3.43,2.37-3.55,4.74"/><path class="cls-5" d="M1001.76,286.16c-2.12.16-4.1.1-4.41-2.7q.24-7.17.49-14.34l3,0,.93,17"/><path class="cls-3" d="M586.51,509.51c-16.11-7.56-32.8-13.89-48-23.39-3.91-2.46-9.34-2.51-11.65-7.47a11.46,11.46,0,0,1,2.21-1.17c23.93-6.67,46.78-16.11,69.42-26.22,20.44-9.13,40.74-18.46,59.66-30.55q21.39-13.65,42.15-28.23c12.14-8.52,24.28-17.06,37-24.67,16.12-9.63,32.07-19.54,48.5-28.68,21.08-11.73,42.42-22.88,64.32-33,7.43-3.43,15.22-6.11,22.26-10.37,5.74-1,11.13-3.87,17.22-3.2,1.77.19,3.77.53,5.32-1l7.92-1.12c2.17-.15,4.45.45,6.42-1,8.63.34,17.11-1.32,25.66-2-1.08,2.58-3.79,2-5.73,2.82a769,769,0,0,0-72.84,36.24c-21.52,12.2-42.38,25.43-63.23,38.7-16.13,10.26-32,20.92-47.94,31.47-15.62,10.35-31.3,20.61-46.75,31.22-14.75,10.12-29.16,20.73-43.83,31-23.21,16.2-46.12,32.79-68.15,50.58"/><path class="cls-3" d="M516.5,474.59c-5.41-2.42-10.33-5.69-15.41-8.69-11-6.54-22.19-12.92-33.23-19.47-3.19-1.89-14.32,1.05-16.84-1.75,1.66-1.84,100.93-35,101.63-35.89,6.4-1.83,38.52-15.39,46.2-18.64C608.58,386,746.6,327,759.3,322.42s25.52-7.67,28.81-8.54c2.28-.6,19.48-5.2,22.44-6.26a88.72,88.72,0,0,1,9.39-2.57c.33.22,6.33-1,6-.85-2.06,1.07-5.49,2.66-6.4,3.08-10.38,4.81-20.86,9.42-31.1,14.5-18.94,9.41-37.54,19.44-56,29.84q-33,18.61-65.27,38.46c-27.47,16.92-55.68,32.54-83.81,48.27-21,11.75-42.25,23-64,33.41a6.41,6.41,0,0,0-2.88,2.83"/><path class="cls-4" d="M586.51,509.51c22-17.79,44.94-34.38,68.15-50.58,14.67-10.25,29.08-20.86,43.83-31,15.45-10.61,31.13-20.87,46.75-31.22,15.94-10.55,31.81-21.21,47.94-31.47,20.85-13.27,41.71-26.5,63.23-38.7a769,769,0,0,1,72.84-36.24c1.94-.84,4.65-.24,5.74-2.82,3.87.45,7.57-.95,11.38-1.09l7.28,0,7.2.09-30.49,14.35a566.36,566.36,0,0,0-51.29,27.81c-16.18,9.74-32.11,19.86-47.67,30.59-16.85,11.61-33.79,23.09-50.2,35.33-19,14.16-37.71,28.69-57.1,42.28s-39.46,26.3-59.79,38.55c-20.78,12.51-42,24.27-63.28,35.82a23.69,23.69,0,0,0-3.2,2.51c-4-.69-8-1.64-11.32-4.2"/><path class="cls-4" d="M516.5,474.59a6.41,6.41,0,0,1,2.88-2.83c21.74-10.36,43-21.66,64-33.41,28.13-15.73,56.34-31.35,83.81-48.27q32.25-19.84,65.27-38.46c18.42-10.4,37-20.43,56-29.84,10.24-5.08,20.72-9.69,31.1-14.5.91-.42,2-.53,2.36-1.72,2.58-.5,1.83-.66,9.37-3.38a120.07,120.07,0,0,1,14.42-3.45c5.8-1,11.85,0,17.44-2,4-1.37,7.24-1.84,4.35-1.84,4.93,0,5,.82,5,.82-7.05,4.27-14.84,6.94-22.27,10.37-21.9,10.13-43.24,21.28-64.32,33-16.43,9.14-32.38,19.05-48.5,28.68-12.75,7.61-24.89,16.15-37,24.67q-20.76,14.58-42.15,28.23c-18.92,12.09-39.22,21.42-59.66,30.55-22.64,10.11-45.49,19.55-69.42,26.22a11.17,11.17,0,0,0-2.21,1.17c-4.11.29-7.22-2-10.39-4.06"/><path class="cls-4" d="M898.82,259c-4.33-5.71-2.41-11.05.09-16.53,2.72-6,3.41-12.15.34-18.28-1.12-2.24-2-4.79-.78-6.9,5.14-8.94,1.18-18.11,1.48-27.82-1.58,2.09-1.31,3.64-1.2,5.37.36,5.43,1.56,11.13-.88,16.19-2.84,5.9-3.78,11.44-1.21,17.69,1.15,2.8.6,6-.92,8.94a29.83,29.83,0,0,0-2.45,6.17c-2,7.6-.36,12.42,5.53,15.17m-3.72-54.8a9,9,0,0,0,0-3c-2.85-7.63-3.44-14.82,2.81-21.34,1.36-1.41,1.36-3.81.39-5.84,0-1.08,0-2.16-.07-3.24l.6-2.5c1.09-1.93,2.59-2.23,4.64-1.49s2.67,2.23,2.78,4.21c.1,1.81.35,3.61.53,5.42,0,2.72,1.64,4.85,2.53,7.26-.74.69-.24.78.4.8h-.15c-1,10.8-2.67,21.56,1.56,32.23,1.11,2.82.29,6.42.31,9.66,0,4.42-.3,8.86,1.1,13.18,3.94,12.11-.47,21.89-8.58,30.64-3.69.2-6.44-1.67-9.16-3.89-5.5-4.48-6.59-10.47-6.24-17a20.41,20.41,0,0,1,3.55-9.39,11.21,11.21,0,0,0,.78-12,21,21,0,0,1-2.27-11.28c1.22-4.23,5.06-7.51,4.51-12.39"/><path class="cls-3" d="M989.76,257.08c-5-3.24-7-8-6.22-13.53,1.45-9.65,2.75-19.21,1-29-.89-4.95,1.05-9.53,3.62-13.63,5.18-8.24,5.23-17.08,3.8-26.24a21.64,21.64,0,0,1,1.76-13.64,156.67,156.67,0,0,0,1,23.59,29.78,29.78,0,0,1-3.91,18.24c-3.25,5.7-2.6,11.94-1.11,18,1.42,5.71.76,11.12-.76,16.66-1.78,6.49-3,13.06.81,19.57"/><path class="cls-4" d="M961.76,213.32c-1.92,4.93-1,9.6,1.21,14.18,1,4.44,2.24,8.85,2.84,13.34,1.6,12-1.52,16.29-13.36,19.14l-4.33.19a3.09,3.09,0,0,1-.71-.46c10.32-8.63,13.7-23.59,7.9-35.34-1.14-2.31-.8-4.71-.67-7,.37-7-.37-13.61-4.08-19.73-2.93-4.83-2.72-10.34-1.91-15.49a53.15,53.15,0,0,0-.13-17.26l5,11.58a39.12,39.12,0,0,1,0,6.12c-1.14,7.9,1.2,14.41,7.26,19.59,2,3.58,1.18,7.41,1,11.18"/><path class="cls-3" d="M938.14,251.48c-6-5.53-3.86-12.37-2.29-18.6,1.52-6,2.26-11.62-.2-17.46a13.53,13.53,0,0,1-.32-8.11c1.08-5.17,3.42-9.93,4.12-15.31.66-5.09.36-10.2,1.3-15.24.4,9.15,2.61,18.36-1.36,27.31a12.1,12.1,0,0,0,.39,10.86c2.88,5.75,3.47,11.84.94,17.89s-3,12.24-2.54,18.62Z"/><path class="cls-3" d="M938.18,251.44l.41.23-.45-.19,0,0"/><path class="cls-5" d="M902.9,290.47l1.32-19.62,2.92-.08q1.1,9.35,2.18,18.69c-2,1.46-4.25.86-6.42,1"/><path class="cls-5" d="M820.87,304.9c.14-3.32.28-6.65.41-10l3.55-.13a51.66,51.66,0,0,0,.28,6.11c.44,2.74-.66,4.15-3.24,4.65l-1-.66"/><path class="cls-5" d="M948.12,260.17l4.33-.19,1.2,26.4-7.28,0c2.09-8.65.42-17.55,1.75-26.24"/><path class="cls-4" d="M818.9,237.08c-3.5,6.22.1,14.13-4.74,20-.06.07.06.33.15.47,3.91,5.56,1.33,11,0,16.62-.8,3.3-1.59,6.85,2.56,10.69-.6-6.06,1.76-10.32,2.73-14.9.81-3.8,1.08-7.81-1.35-11.38-.46-.67-1.17-1.89-.92-2.22,4.66-6.14,1.09-12.9,1.56-19.34l.9-1.62-.61-.3c-.08.65-.17,1.3-.26,1.94m5.93,57.72-3.55.13c-5.37-2.38-10.38-5.12-11.48-11.7a16.15,16.15,0,0,1,1-8c1.85-4.57,1.65-9.33.5-14a8,8,0,0,1,.37-5.95c4.71-8.66,3-18.49,5.17-27.62a65.07,65.07,0,0,0,.92-8c.59-1.67,1.46-3.26,3.49-2.9s2.18,2.26,2.4,3.94c.12,1,.26,2,.4,3q.93,5.22,1.88,10.46c-.94.77-.72,1.39.25,1.91l0-.05c-.41,7.48,2,14.88.9,22.33-.72,4.93-1.43,9.85.33,14.52,2.68,7.09,2.15,13.95-.18,20.89l-1.08.95-1.27.13"/><path class="cls-5" d="M863.1,296.77c-5.13-.08-2.24-4-3-6.2-.82-2.46,1.14-4.63.73-7l3.8.06c.18,1.63.36,3.25.55,4.88-1.13,2.66,2.25,6.46-2.1,8.3"/><path class="cls-4" d="M858.18,208.63c.74,6.28-1.47,11.9-2.95,17.67-.74,2.9-2.07,5.84-.78,9,2,4.92,1.34,9.6-1.06,14.26a21.62,21.62,0,0,0-2.27,6.78c-.64,4.67-1.35,9.53,3.1,13.24-2-6.61,1.38-12,3.46-17.68a22.69,22.69,0,0,0,.86-14.09c-1.49-5.31-1-10.26-.06-15.52.84-4.47,3-9.18-.3-13.65m-6.31,12.82c-.77-5.1,2.66-9.38,2.82-14.29A19,19,0,0,0,855,200c.18-2.2.34-4.39.53-6.59.13-1.51,0-3.4,1.77-3.87s3.31,1,4.09,2.45a73.57,73.57,0,0,1,2.87,7c.4,2.77.51,5.61,1.79,8.19l.9,4.17c-1.44,2.59-.64,5.27-.35,8,1,8.9,3.38,17.79-.13,26.7-.91,2.31,0,4.69.71,7,2,6.17,3.57,12.36,3.22,19-.19,3.67-2.35,6.79-2.16,10.44-1,1-2.4.75-3.61,1.09l-3.8-.06c-13.77-6-16.2-10.7-12.49-25,1.27-4.91,1.82-9.73.22-14.54-1.48-4.47-.4-8.34,2-12.05,1.89-3.31,2.65-6.76,1.24-10.46"/><path class="cls-4" d="M907.14,270.77l-2.92.08a5.28,5.28,0,0,1-.29-.69c8.11-8.75,12.52-18.53,8.58-30.64-1.4-4.32-1.06-8.76-1.1-13.18,0-3.24.8-6.84-.31-9.66-4.23-10.67-2.59-21.42-1.56-32.23,2.54,2.82,2.86,6.29,2.9,9.86,0,3.83-.32,7.75,1.9,11.22l4.62,11c-.5,6.94-2,14,1.84,20.54,1,3.44,2.29,6.83,2.81,10.33,1.54,10.49-2.5,17.37-12.28,21.6-1.39.61-2.79,1.2-4.19,1.8"/><path class="cls-3" d="M898.82,259c-5.89-2.75-7.52-7.57-5.52-15.17a29.25,29.25,0,0,1,2.44-6.17c1.52-2.91,2.07-6.14.92-8.94-2.56-6.25-1.63-11.79,1.21-17.69,2.44-5.06,1.24-10.76.88-16.18-.11-1.74-.38-3.29,1.2-5.38-.3,9.71,3.66,18.88-1.48,27.82-1.21,2.11-.34,4.66.78,6.9,3.08,6.13,2.38,12.3-.34,18.28-2.5,5.48-4.42,10.82-.09,16.53"/><path class="cls-4" d="M909.29,183.64a.88.88,0,0,1,.4.8c-.64,0-1.14-.11-.4-.8"/><path class="cls-4" d="M871.54,222.66c1.19,5.44,2.31,10.87,1.66,16.52a7.71,7.71,0,0,0,1.44,5.77c0,.66.14,1.17.89,1.29l.09-.05c.68,6.33.34,12.57,2.55,19,2.07,6-2.77,11.42-6.87,16.06l-3,1.28c-.19-3.65,2-6.77,2.16-10.44.35-6.64-1.23-12.83-3.22-19-.73-2.3-1.62-4.68-.71-7,3.51-8.91,1.08-17.8.13-26.7-.29-2.69-1.09-5.36.35-8q2.28,5.61,4.57,11.24"/><path class="cls-4" d="M826.13,236a33.77,33.77,0,0,1,5.26,19.74,15.22,15.22,0,0,0,1,7c1.25,2.82,2.21,5.46,1.12,8.73-.89,2.68,1.51,4.66,2.86,6.77a17.15,17.15,0,0,1-2.91,10.35c-1.83,2-3.16,4.69-6.27,5.18,2.33-6.94,2.86-13.8.18-20.89-1.76-4.67-1.05-9.59-.33-14.52,1.1-7.45-1.31-14.85-.9-22.33"/><path class="cls-3" d="M818.87,237.06c-.47,6.44,3.1,13.2-1.56,19.34-.25.33.46,1.55.92,2.22,2.43,3.57,2.16,7.58,1.35,11.38-1,4.58-3.33,8.84-2.73,14.9-4.15-3.84-3.36-7.39-2.56-10.69,1.35-5.58,3.93-11.06,0-16.62-.09-.14-.21-.4-.15-.47,4.84-5.91,1.24-13.82,4.74-20Z"/><path class="cls-3" d="M818.9,237.08c.09-.64.18-1.29.26-1.94l.61.3-.9,1.62Z"/><path class="cls-4" d="M825.92,234.12c.08.63.17,1.27.25,1.91-1-.52-1.19-1.14-.25-1.91"/><path class="cls-3" d="M858.18,208.63c3.35,4.47,1.14,9.18.3,13.65-1,5.26-1.43,10.21.06,15.52a22.69,22.69,0,0,1-.86,14.09c-2.08,5.64-5.42,11.07-3.46,17.68-4.45-3.71-3.74-8.57-3.1-13.24a21.62,21.62,0,0,1,2.27-6.78c2.4-4.66,3.07-9.34,1.06-14.26-1.29-3.15,0-6.09.78-9,1.48-5.77,3.69-11.39,2.95-17.67"/></g></svg>