<svg id="Lag_1" data-name="Lag 1" xmlns="http://www.w3.org/2000/svg" viewBox="0 0 4690.02 3126.68"><defs><style>.cls-1{fill:none;stroke:#344d3b;stroke-width:14.03px;stroke-dasharray:28.06 28.06 28.06 28.06 28.06 28.06;}.cls-1,.cls-2{stroke-miterlimit:10;}.cls-2{fill:#6276b8;stroke:#6276b8;stroke-width:0.25px;}</style></defs><path class="cls-1" d="M478.45-3.94,612,272c30,62.12,61.19,125.72,114.47,174.6C869.63,578,1111.26,559.38,1316.8,531.94c734.9-98.07,1499-180.1,2211.26,5.49,251.78,65.6,506.86,175.14,639.87,372.64,78.73,116.9,107.27,254.32,119.22,389.47,10.08,114,9.26,229.3-12.48,342.1-43.77,227.12-170.65,437.26-213.88,664.47-54.13,284.48-136.65,595,63.73,824.51"/><ellipse class="cls-2" cx="551.53" cy="154.77" rx="38.13" ry="57.39" transform="translate(-20.96 174.64) rotate(-17.66)"/><ellipse class="cls-2" cx="2129.97" cy="439.61" rx="57.39" ry="38.13" transform="translate(-27.78 167.35) rotate(-4.47)"/><ellipse class="cls-2" cx="4225.34" cy="1047.19" rx="38.13" ry="57.39" transform="translate(-118.54 1331.39) rotate(-17.66)"/><ellipse class="cls-2" cx="3998.31" cy="2737.42" rx="57.39" ry="38.13" transform="translate(1116.52 6632.97) rotate(-87.9)"/></svg>