<?xml version="1.0" encoding="utf-8"?>
<!-- Generator: Adobe Illustrator 26.0.3, SVG Export Plug-In . SVG Version: 6.00 Build 0)  -->
<svg version="1.1" id="Lag_1" xmlns="http://www.w3.org/2000/svg" xmlns:xlink="http://www.w3.org/1999/xlink" x="0px" y="0px"
	 viewBox="0 0 1602.1 1746.8" style="enable-background:new 0 0 1602.1 1746.8;" xml:space="preserve">
<style type="text/css">
	.st0{fill:#FFFFFF;}
</style>
<path class="st0" d="M114.3,595.5c-79.6,289.2,57,629,339.8,767.3c319,156.1,702.3,27.3,856.4-287.6c41.3-84.1,63.2-176.4,64-270.1
	c0,0,6.6-157.9-109.7-189c0,0-28.4-2.1-36.1,21.6s-65,505.7-246.5,479.7c0,0-50.2-29.6-21.8-79.8s137.5-269.6,42.3-367.2
	c0,0-45.1-20.1-56.5,31.2c0,0,45.7,179.3-134.3,322.7s-341.1,79.5-367,66.5S112.7,943.7,111.8,649.4L114.3,595.5z"/>
<path class="st0" d="M157.4,513.4c-1.8-0.9,4-33.5,25.7-67.8c11.2-17.8,21.1-32.9,40.6-42.7c7.8-4,33-16.7,55.5-4.6
	c1,0.5,24.2,13.4,23.6,35.8c-0.5,18.7-17.3,30.1-20.4,32.1c-17.7,11.4-40.8,8.3-52.2,7.2c-12.3-1.5-21.9-4.8-34.5,0
	c-4.8,1.8-9.2,4.4-13.1,7.7C163.9,495,158.6,513.8,157.4,513.4z"/>
<path class="st0" d="M119.8,585c1.3-11.7,5.5-23,12.4-32.6c4.3-8.6,11.1-15.8,19.5-20.6c3.8-1.9,15.8-8,26.7-2.2
	c6.3,3.5,10.5,9.8,11.2,17c-0.7,6.4-4.4,12.1-9.8,15.4c-7.7,4-16.6,5.2-25.1,3.5c-5.4-1.5-11.2-1.6-16.6-0.1c-2.3,1-4.5,2.3-6.4,4
	C126.7,573.8,122.7,579.1,119.8,585z"/>
<path class="st0" d="M1136.7,213.2C1272,305,1376.1,442,1423.9,605.7c53.7,184,32.6,377.8-59.6,545.9
	c-74.1,135.1-186.9,240.5-323.9,304.6c-33.7,15.8-68.6,28.9-104.3,39.3c-65.4,19.1-133.2,28.9-201.4,28.9
	c-104.9-0.1-208.4-23.4-303.2-68.3c-42.8-20.2-83.5-44.6-121.6-72.7l-36.9-25.6c-26.7,37.9-42.8,55.2-69.5,93
	c-18,25.4,23.8,49.5,41.6,24.3c8.7-12.3,17.3-24.5,26-36.8c76.6,56.4,162.8,98.6,254.4,124.4c48.8,13.7,98.7,22.6,149.2,26.5h120.8
	c54-4.2,107.5-14,159.5-29.2c14.7-4.3,29.3-9,43.6-14.2c181.6-64.5,331.4-191.7,424.8-362.1c100.8-183.9,123.9-396,65.2-597.2
	c-52.2-178.6-165.7-328.1-313.2-428.5l29.7-42c18-25.4-23.8-49.5-41.6-24.3l-65.1,92.2"/>
</svg>
