<svg id="Lag_1" data-name="Lag 1" xmlns="http://www.w3.org/2000/svg" xmlns:xlink="http://www.w3.org/1999/xlink" viewBox="0 0 1028.64 444.1"><defs><style>.cls-1{fill:none;}.cls-2{clip-path:url(#clip-path);}.cls-3{fill:#5b7a62;}.cls-4{fill:#344d3b;}.cls-5{clip-path:url(#clip-path-2);}.cls-6{fill:#fff;}.cls-7{clip-path:url(#clip-path-3);}</style><clipPath id="clip-path"><rect class="cls-1" x="-1190.02" y="-721.66" width="1030.22" height="444.1"/></clipPath><clipPath id="clip-path-2"><rect class="cls-1" x="-1.73" width="1030.37" height="443.93"/></clipPath><clipPath id="clip-path-3"><rect class="cls-1" x="449.69" y="-532.25" width="580.99" height="448.75"/></clipPath></defs><g class="cls-2"><path class="cls-3" d="M1031.64-229.1v28.79C1017.81-192.85,1004.86-184,992-175c-28.3,19.87-54.2,42.6-79.72,65.81-13.12,11.93-26,24.16-39.15,36-18.91,17-38,33.87-57,50.77C806.7-14,797.31-5.57,787.78,2.7c-15.72,13.63-31.54,27.14-47.31,40.71A301.51,301.51,0,0,1,682.1,29.84c-4.18-1.45-9.07-1.54-12.42-5.13,5.21-3.87,11.4-5.94,17-9.16A703,703,0,0,0,754.23-28.6c25.42-18.84,49-39.82,72.52-60.85,11.2-10,22.52-19.89,34.08-29.48q19.29-16,39.15-31.34c17.83-13.76,36.16-26.83,55.14-39A482.61,482.61,0,0,1,1009-219.66c7.35-3.48,14.28-8.2,22.6-9.44"/><path class="cls-3" d="M860.94,51.41H770.43c-2.39-1.21-5.14-1.25-7.55-2.13s-5.64.6-6.79-2.86c10-6.53,20.06-12.93,29.94-19.61,27.23-18.41,52.9-38.77,76-62.21,9-9.13,17.89-18.41,26.88-27.55,24.15-24.51,48-49.37,73.31-72.7,15.45-14.22,31-28.29,48-40.68,7-5.1,13.15-11.45,21.39-14.73v56.54c-1.31,0-2.16.82-3.14,1.54-5.76,4.31-10.92,9.29-16.31,14-13.14,11.56-25.29,24.12-37.25,36.81-14.17,15-27.58,30.77-41.34,46.19-6.48,7.25-13.29,14.23-19.46,21.74-17.87,21.77-35.49,43.73-53.2,65.62"/><path class="cls-3" d="M949.37,51.41H876.45c5.66-4.65,11.24-9.4,17-13.93,18.29-14.39,33.66-31.62,47.24-50.3,9.52-13.1,19-26.21,28.7-39.21,14.86-20,30.58-39.35,47-58.12,4.51-5.17,8.78-10.93,15.29-14.08v69.91a3.57,3.57,0,0,0-2.92,1.77c-8.26,11.07-16.59,22.08-24.81,33.18-11.77,15.89-23.57,31.74-36.62,46.67-6.56,7.51-13,15.29-17.92,24.12"/><path class="cls-4" d="M1031.64-229.1c-8.32,1.24-15.25,6-22.6,9.44a482.61,482.61,0,0,0-53.92,30.41c-19,12.15-37.31,25.22-55.14,39q-19.85,15.33-39.15,31.34c-11.56,9.59-22.88,19.48-34.08,29.48-23.55,21-47.1,42-72.52,60.85a703,703,0,0,1-67.59,44.15c-5.56,3.22-11.75,5.29-17,9.16-3.85.55-6.83-1.95-10.24-3,.12-2.37,1.87-3.62,3.55-4.74,12.52-8.33,23.92-18.12,35.85-27.22,13.55-10.34,26.63-21.33,39.69-32.3,25.34-21.28,51-42.16,77.4-62.12,16.6-12.56,32.84-25.59,49.46-38.12a761.88,761.88,0,0,1,103.82-66.44c17.53-9.22,35.75-16.88,54.19-24.05,2.75-1.9,5.49.93,8.24,0Z"/><path class="cls-4" d="M1031.64-191.06c-8.24,3.28-14.39,9.63-21.39,14.73-17,12.39-32.55,26.46-48,40.68-25.34,23.33-49.16,48.18-73.31,72.7-9,9.14-17.87,18.42-26.88,27.55C838.93-12,813.26,8.4,786,26.81c-9.88,6.68-19.95,13.08-29.94,19.61-5.43.14-10.89.44-15.62-3,15.77-13.57,31.59-27.08,47.31-40.71C797.31-5.57,806.7-14,816.13-22.4c19-16.9,38.1-33.74,57-50.77,13.17-11.87,26-24.1,39.15-36C937.81-132.41,963.71-155.14,992-175c12.85-9,25.8-17.84,39.63-25.3Z"/><path class="cls-4" d="M1031.64-124.24c-6.51,3.14-10.78,8.91-15.29,14.08C1000-91.39,984.24-72,969.38-52c-9.66,13-19.18,26.11-28.7,39.21-13.58,18.68-28.95,35.91-47.24,50.3-5.75,4.53-11.33,9.28-17,13.93H860.94c17.71-21.89,35.33-43.86,53.2-65.62,6.17-7.51,13-14.49,19.46-21.75,13.76-15.41,27.17-31.15,41.34-46.18,12-12.7,24.11-25.25,37.25-36.81,5.39-4.74,10.55-9.72,16.32-14,1-.73,1.82-1.55,3.13-1.54Z"/><path class="cls-3" d="M1031.64,51.56l-55.47-.15c4.61-7.19,9.35-14.29,13.79-21.58q17.31-28.39,33.8-57.29c2.24-3.92,3.3-9,7.88-11.45Z"/><path class="cls-4" d="M1031.64-38.91c-4.58,2.44-5.64,7.53-7.88,11.45Q1007.23,1.41,990,29.83c-4.44,7.29-9.18,14.39-13.79,21.58h-26.8c4.91-8.83,11.36-16.61,17.92-24.12,13.05-14.93,24.85-30.78,36.62-46.67,8.22-11.1,16.55-22.11,24.81-33.18a3.57,3.57,0,0,1,2.92-1.77Z"/><path class="cls-3" d="M659.44,21.75C648.66,17,637.83,12.28,627.13,7.33c-8.61-4-16.91-8.6-25.89-11.78-1-.35-1.65-1.64-2.46-2.5A22.36,22.36,0,0,1,602-9.45C623.3-21,644.48-32.77,665.26-45.28c20.33-12.25,40.38-24.94,59.8-38.55s38.11-28.12,57.09-42.28c16.41-12.24,33.35-23.72,50.2-35.33,15.56-10.73,31.5-20.85,47.67-30.59a568.86,568.86,0,0,1,51.29-27.81l30.49-14.35c10.49-.05,21-.14,31.47-.1,2.37,0,4.42-.08,5-2.91.31,2.8,2.29,2.86,4.41,2.7,6.87.84,13.89-.76,20.69,1.26-18.44,7.17-36.66,14.83-54.19,24.05a761.88,761.88,0,0,0-103.82,66.44c-16.62,12.53-32.86,25.56-49.46,38.12-26.41,20-52.06,40.84-77.4,62.12-13.06,11-26.14,22-39.69,32.3C686.91-1.11,675.5,8.68,663,17c-1.68,1.12-3.43,2.37-3.55,4.74"/></g><g class="cls-5"><path class="cls-4" d="M816.72,453.4C552.91,416,372.46,159.93,100.58,158.22c-7.12-3.38-20.17-.26-29.26-1.35a331.62,331.62,0,0,0-41.56,1.27c.58.26,1.16.55,1.73.83-6.47.09-47.32-1.43-39.09,5.41-22.38-7.95-17.53,3.88-17.75,19.53,0,4,0,39.81,0,44.72,0,5.9,0,48.43,0,55.31,5.61.69,9.74,4.35,13.92,7.59-6.7-5.2-16.38-12.75-13.92.65.08,13-.06,54.95,0,67.08.05,23.12,0,77.49,0,100,29-2.56,72.77,4.29,94.39-2.45,20,4.19,62.87,4.33,79.64.16,64.23,2.06,174.32,7.75,223.9-1.68,18.17,9.22,46.95,1.26,69,3.78-8.46-4.72-17-9.34-25.42-14.11,17.94,13.6,37.49,15.95,60.1,14.08,17.19-3.11,99.23,8.19,73.43-7.93,86.16,21.24,190.73,1.42,283,8C827.65,455.78,820,458.7,816.72,453.4Z"/><path class="cls-4" d="M417.34,443.93H358.86c-.31-2-2.17-2.55-3.5-3.5-6.39-4.54-13-8.8-19.28-13.47-20-14.83-39.85-29.86-59.85-44.7-18.74-13.92-38.05-27.06-57.06-40.6-22.49-16-45.06-31.89-68.13-47.06-20.66-13.58-41.44-27-62.43-40.07-16.19-10.08-32.72-19.64-49.25-29.16-13-7.49-26.23-14.58-39.36-21.84V185l5.08-.11c2.12-.07,4.35.68,6.3-.81l1.86.06c.66,2.29,2.86,2.27,4.54,2.8,14.54,4.68,28.19,11.31,41.48,18.73q25.25,14.09,50.31,28.51c15.79,9.15,31.75,18.08,47,28,19.57,12.74,39.12,25.5,57.93,39.43,12.47,9.23,24.71,18.77,37.26,27.91,11.16,8.13,21.54,17.32,32.51,25.73,18.81,14.45,37.31,29.28,56.75,42.92q21.81,15.31,44.88,28.51c10.36,5.94,20.93,11.48,31.41,17.2"/><path class="cls-4" d="M325.88,444h-75c-2-3.75-5.93-5.48-8.91-8.21-19.28-17.61-38.11-35.7-57.81-52.85-21.77-18.95-42.38-39.18-64.2-58.1-13.81-12-27.84-23.64-42.44-34.6a465.31,465.31,0,0,0-49.06-32.48C19.14,252.42,10.17,246.33,0,242.59V209.7c4.51.48,7.49,3.74,11.05,6q37.62,23.85,74.33,49.11,43,29.58,84.63,60.94c11.46,8.58,22.69,17.45,34.1,26.1,14.78,11.21,29.11,23,43.5,34.7,12.83,10.45,25.76,20.8,39.09,30.58,12.76,9.35,26.09,17.92,39.18,26.83"/><path class="cls-4" d="M219,444l-62.73,0a9.15,9.15,0,0,0-1.05-2.28c-10.65-12-19.62-25.35-30.61-37.1C107.4,386.12,90.87,367,73.52,348.68c-17.86-18.88-38.18-35-59.41-49.92-4.34-3-8.35-7.16-14.11-7.85V250.82c1.65-.2,2.92.58,4.24,1.46,4.82,3.21,9.69,6.35,14.57,9.47A519.52,519.52,0,0,1,63.08,294c15.86,12.69,30.43,26.82,45.33,40.61,22,20.36,42.17,42.45,63,63.89,10.85,11.17,22.05,21.87,33.56,32.31,4.75,4.31,10.34,7.77,14.05,13.21"/><path class="cls-3" d="M325.88,444c-13.09-8.91-26.42-17.48-39.18-26.83-13.33-9.78-26.26-20.13-39.09-30.58-14.39-11.71-28.72-23.49-43.5-34.7-11.41-8.65-22.64-17.52-34.1-26.1Q128.27,294.5,85.38,264.8q-36.7-25.26-74.33-49.11c-3.56-2.25-6.54-5.51-11-6v-6.17c13.13,7.26,26.36,14.35,39.36,21.84,16.53,9.52,33.06,19.09,49.25,29.16C109.6,267.6,130.38,281,151,294.6c23.07,15.17,45.64,31,68.13,47.06,19,13.54,38.31,26.68,57.06,40.6,20,14.84,39.85,29.87,59.85,44.7,6.3,4.67,12.89,8.93,19.28,13.47,1.33.95,3.19,1.49,3.5,3.5l-33,0"/><path class="cls-4" d="M130.53,444H85.34c-.45-.9-.83-1.84-1.35-2.69-7.72-12.76-17.74-23.79-26.59-35.7C41.17,383.69,22.46,364,4.2,343.94,3.07,342.7,2,341.24,0,341.29V298.11c1.89-.26,3.12.86,4.53,1.9,4.56,3.38,8.24,7.69,12.48,11.37,20.7,18,38.94,38.24,55.86,59.7,7.9,10,15.78,20.06,23.14,30.52A339.12,339.12,0,0,0,130.53,444"/><path class="cls-3" d="M219,444c-3.71-5.44-9.3-8.89-14.05-13.21-11.51-10.44-22.71-21.14-33.56-32.31-20.84-21.44-41-43.53-63-63.89C93.51,320.77,78.94,306.64,63.08,294a519.52,519.52,0,0,0-44.27-32.2c-4.88-3.12-9.75-6.26-14.57-9.47-1.32-.88-2.59-1.66-4.24-1.46v-8.23c10.17,3.74,19.14,9.83,28.45,15.12a464.28,464.28,0,0,1,49.06,32.48c14.6,11,28.63,22.63,42.44,34.6,21.82,18.92,42.43,39.15,64.2,58.1,19.7,17.15,38.53,35.24,57.81,52.85,3,2.73,6.87,4.46,8.91,8.21L219,444"/><path class="cls-3" d="M130.53,444A339.12,339.12,0,0,1,96,401.6c-7.36-10.46-15.24-20.51-23.14-30.52C56,349.62,37.71,329.34,17,311.38c-4.24-3.68-7.92-8-12.48-11.37-1.41-1-2.64-2.16-4.53-1.9v-7.2c5.76.69,9.77,4.81,14.11,7.85,21.23,14.91,41.55,31,59.41,49.92,17.35,18.34,33.88,37.44,51.12,55.88,11,11.75,20,25.11,30.61,37.1a9.15,9.15,0,0,1,1.05,2.28H130.53"/><path class="cls-4" d="M58.63,444l-39.12,0c-5.4-9.61-10.77-19.24-16.24-28.81-.71-1.24-1.36-2.88-3.27-2.91V356.71c1.83,0,2.53,1.38,3.46,2.65,15.77,21.42,31.45,42.9,44.39,66.2,3.46,6.22,7.94,11.83,10.78,18.41"/><path class="cls-3" d="M58.63,444c-2.84-6.58-7.32-12.19-10.78-18.41-12.94-23.3-28.62-44.78-44.39-66.2-.93-1.27-1.63-2.64-3.46-2.65V341.29c2-.05,3.07,1.41,4.2,2.65,18.26,20.08,37,39.75,53.2,61.61,8.85,11.91,18.87,22.94,26.59,35.7.52.85.9,1.79,1.35,2.69l-26.71,0"/><path class="cls-3" d="M0,412.23c1.91,0,2.56,1.67,3.27,2.91,5.47,9.57,10.84,19.2,16.24,28.81L0,444.1Z"/><path class="cls-4" d="M737,435.94c4.73,3.45,10.19,3.15,15.62,3,1.15,3.47,4.53,2,6.79,2.86s5.16.92,7.55,2.13H651.82c-11.69-5.63-24-9.89-35.92-14.9-28.35-11.87-56.07-25-83.14-39.46-22.87-12.27-45.25-25.41-67.58-38.6-17.91-10.57-35.16-22.26-52.84-33.23-23.9-14.85-47.68-29.92-72-44.08a617,617,0,0,0-66.17-33.62c-31.51-13.59-63.14-26.91-95.53-38.39-20.91-7.4-41.78-14.75-63.45-19.65-1.32-.3-2.84-.07-3-2l2.87,0c.91,1,2.07.9,3.24.78l6.4-.08,7.78,1c3.88.27,7.77.42,11.64.82,10.23,1.09,20.46,2.28,30.69,3.43l6.11,1.05c9.89,1.75,19.6,4.51,29.66,5.3l1.22.86,2,.13,40.1,12.36a25.85,25.85,0,0,0,9.15,3.14l16.6,7c5.51,2,10.35,5.73,16.38,6.42,2.08,2.64,5.29,3,8.18,4,4.41,3.16,9.4,5.17,14.42,7.12,4.15,2.58,8.33,5.11,13.15,6.29a67.37,67.37,0,0,0,16.73,9.1c2.74,2.31,6,3.74,9.2,5.2,5.47,3.09,10.51,7,16.49,9.14l12.29,7.36c4.76,2.75,9,6.44,14.31,8.2a76,76,0,0,0,13.49,8.18,53.82,53.82,0,0,0,14.3,8.38l14.57,9.82c4.58,1.85,7.83,6.45,13.31,6.48a36.71,36.71,0,0,0,8.84,6.75c11,6.55,22.17,12.94,33.23,19.47,5.07,3,10,6.27,15.4,8.69,3.18,2.1,6.29,4.35,10.39,4.07,2.32,5,7.74,5,11.65,7.46,15.17,9.51,31.87,15.84,48,23.4,3.35,2.55,7.28,3.51,11.32,4.19.81.86,1.47,2.15,2.46,2.51,9,3.18,17.28,7.8,25.89,11.78,10.71,4.94,21.53,9.62,32.31,14.42,3.41,1,6.39,3.5,10.24,3,3.35,3.58,8.24,3.68,12.42,5.12A301.51,301.51,0,0,0,737,435.94"/><path class="cls-4" d="M611.69,444l-88.33,0c-4.29-4.56-10-7.13-15.15-10.34C486,419.81,464.63,404.77,443.07,390c-11-7.51-21.71-15.41-32.71-22.9-17.21-11.71-34.53-23.25-51.84-34.82-15.16-10.15-30.17-20.53-45.59-30.28-19.75-12.48-39.54-24.89-59.84-36.52-26.89-15.41-54.35-29.69-82.8-41.86q-44.74-19.15-90.53-35.83c-5.94-2.16-11.92-4.23-18.36-6.52,4.26-1.12,8.16.62,11.7-1.29l6.88-.22,6,0,.46.16c1.07,1.45,2.83,1.31,4.23,1.49,11.58,1.42,22.54,5.19,33.67,8.44,21.67,6.33,42.52,14.81,63.18,23.74,17.07,7.38,33.85,15.45,50.83,23a817.9,817.9,0,0,1,94.71,50c22.25,13.63,44,28.09,65.48,42.92,19.94,13.76,39.83,27.58,59.86,41.22,26.65,18.15,55,33.19,84.11,46.8,9.71,4.54,19.75,8.41,29.78,12.2,13.08,4.94,26.29,9.49,39.44,14.21"/><path class="cls-4" d="M18.6,183c4.45-.06,8.9-.06,13.25-1.21l6.07-.1c3.85.91,7.54-.74,11.33-.71A39.64,39.64,0,0,0,53,182.64a395.38,395.38,0,0,1,38.68,14.93c13.9,6.12,27.4,13.14,41.33,19.18,18.5,8,36.48,17,54.33,26.33,15.3,8,30.17,16.72,45,25.55q22,13.1,43.26,27.34c14.75,9.82,29.22,20.11,43.69,30.36,20.34,14.41,40.24,29.37,60.11,44.39,22.35,16.88,45,33.32,68.76,48.13,13.9,8.65,28.15,16.75,42.24,25.1l-42,0c-.32-1.84-2-2.18-3.28-3-7-4.22-14.19-8.22-21-12.72-17.55-11.52-35.13-23-52.29-35.11-22.84-16.13-46.13-31.64-68.91-47.85Q278.65,328.05,254.36,311c-22.15-15.59-44.51-30.95-67.83-44.8-17.06-10.14-34.28-20-51.87-29.13-19.2-10-38.71-19.37-58-29.17A410.08,410.08,0,0,0,34.6,189c-5.33-2-11.19-2.61-16-6"/><path class="cls-3" d="M611.69,444c-13.15-4.72-26.36-9.27-39.44-14.21-10-3.79-20.07-7.66-29.78-12.2-29.13-13.61-57.46-28.65-84.11-46.8-20-13.64-39.92-27.46-59.86-41.22C377,314.69,355.27,300.23,333,286.6a817.9,817.9,0,0,0-94.71-50c-17-7.56-33.76-15.63-50.83-23-20.66-8.93-41.51-17.41-63.18-23.74-11.13-3.25-22.09-7-33.67-8.44-1.4-.18-3.16,0-4.23-1.49l25.79.1c.18,1.94,1.7,1.71,3,2,21.66,4.9,42.54,12.25,63.45,19.65,32.39,11.48,64,24.8,95.53,38.39a617,617,0,0,1,66.17,33.62c24.3,14.16,48.08,29.23,72,44.08,17.68,11,34.93,22.66,52.84,33.23,22.33,13.19,44.71,26.33,67.58,38.6,27.07,14.51,54.79,27.59,83.14,39.46,12,5,24.23,9.27,35.92,14.9H611.69"/><path class="cls-3" d="M490.38,444c-14.09-8.35-28.34-16.45-42.24-25.1-23.77-14.81-46.41-31.25-68.76-48.13-19.87-15-39.77-30-60.11-44.39-14.47-10.25-28.94-20.54-43.69-30.36q-21.27-14.19-43.26-27.34c-14.83-8.83-29.7-17.56-45-25.55-17.85-9.32-35.83-18.32-54.33-26.33-13.93-6-27.43-13.06-41.33-19.18A395.38,395.38,0,0,0,53,182.64,39.64,39.64,0,0,1,49.25,181c8-.26,15.85-1.9,23.85-1-3.54,1.91-7.44.16-11.7,1.29,6.44,2.29,12.42,4.36,18.36,6.52q45.78,16.59,90.53,35.83c28.45,12.17,55.91,26.44,82.8,41.86,20.3,11.63,40.09,24,59.84,36.52,15.42,9.75,30.43,20.13,45.59,30.28,17.3,11.57,34.63,23.11,51.84,34.82,11,7.49,21.73,15.39,32.71,22.9,21.56,14.75,42.93,29.79,65.14,43.57,5.17,3.21,10.86,5.78,15.15,10.34l-33,0"/><path class="cls-3" d="M18.6,183c4.81,3.37,10.67,4,16,6a410.08,410.08,0,0,1,42.05,18.84c19.3,9.8,38.81,19.18,58,29.17,17.59,9.15,34.81,19,51.87,29.13,23.32,13.85,45.68,29.21,67.83,44.8q24.25,17.1,48.47,34.31c22.78,16.21,46.07,31.72,68.91,47.85,17.16,12.12,34.74,23.59,52.29,35.11,6.84,4.5,14,8.5,21,12.72,1.29.78,3,1.12,3.28,3l-31,0c-10.48-5.72-21-11.26-31.41-17.2q-23.07-13.23-44.88-28.51c-19.44-13.64-37.94-28.47-56.75-42.92-11-8.41-21.35-17.6-32.51-25.73-12.55-9.14-24.79-18.68-37.26-27.91-18.81-13.93-38.36-26.69-57.93-39.43-15.28-10-31.24-18.88-47-28q-25-14.47-50.31-28.51C46,198.27,32.32,191.64,17.77,187c-1.67-.53-3.87-.51-4.53-2.8A7.66,7.66,0,0,1,18.6,183"/><path class="cls-3" d="M5.08,184.91c1.93-1.53,4.16-.81,6.3-.81-2,1.49-4.18.74-6.3.81"/><path class="cls-4" d="M23.93,146.43c-2.44-6.54-1.3-12.77.21-19.16,1.23-5.25,2.31-10.56.69-16.13a26.46,26.46,0,0,1,2.83-21.68,18.86,18.86,0,0,0,2.27-7.28c1.21-9.58-2.32-18.85-1.47-28.4-2.21,3.53-1.7,7.18-1.27,10.93,1.06,9.21,1.71,18.39-4,26.67a18.85,18.85,0,0,0-3.47,13.12c1.5,10.14.25,20-.95,30a12.17,12.17,0,0,0,5.13,11.93M15.08,87.08c.91-5.25,5.53-8.74,6.6-13.91,1.82-4.08,1.09-8.28.37-12.38-.87-4.93-.86-9.69,1-14.37,2.65-3.13,3.58-6.81,3.7-10.84.08-2.78-.81-6.83,2.5-7.58,3.73-.85,5.06,3.09,6.44,6-1.28,7.72-3.8,15.07.05,23.2,4.8,10.15,6,21.14,2.52,32.27-.65,2-1,4.65.7,6.38,4.8,5,4.31,10.59,1.9,16.12-2.78,6.38-1.19,11.79,2.3,17.2,4.61,7.14,3.84,15.58-1,22.77-2.23,3.29-5.42,4.94-8.27,7.23a7.69,7.69,0,0,1-.91.34c-13.51-1.83-20.83-9.38-20.71-21.38a6.65,6.65,0,0,1,.15-2.54c4.24-9.31,3.12-18.9,2.06-28.65-.72-6.56,2-13.16.6-19.84"/><path class="cls-4" d="M33.89,159.15c2.85-2.29,6-3.94,8.27-7.23,4.88-7.19,5.65-15.63,1-22.77-3.49-5.41-5.08-10.82-2.3-17.2,2.41-5.53,2.9-11.16-1.9-16.12-1.67-1.73-1.35-4.33-.7-6.38,3.53-11.13,2.28-22.12-2.52-32.27-3.85-8.13-1.33-15.48-.05-23.2,2.05,3.46,2.71,7.34,3.44,11.21-.9,4.91.92,9.23,2.78,13.61,1.12,2.61,1.78,5.41,2.64,8.13.28,5.15-.06,10.36,1.57,15.37a19,19,0,0,0,1.05,3.92c3.52,6.85,3.83,13.58,0,20.47-2,3.56-.85,6.86,1.65,9.93,1.79,2.2,4,4.39,3.06,7.73-1.25,4.33-.27,8.28,1.33,12.42,3.42,8.86-.24,16.87-9.05,20.39a71,71,0,0,1-8.37,2.23l-1.93-.24"/><path class="cls-6" d="M33.89,159.15l1.93.24,2.1,22.34-6.07.1q.55-11.18,1.13-22.34a7.69,7.69,0,0,0,.91-.34"/><path class="cls-6" d="M130.22,165.57q1.14,8.07,2.26,16.13l-7.78-1c.76-7.41,1.9-14.79,1.74-22.28l.22-.15,2.82.1c.46,2.37-.57,4.89.74,7.17"/><path class="cls-6" d="M174.81,186l1.26-16.06,3.59.82L180.92,187,174.81,186"/><path class="cls-3" d="M115.06,180a3.36,3.36,0,0,1,3.24.78c-1.17.12-2.33.2-3.24-.78"/><path class="cls-3" d="M210.58,192.3l1.22.86-1.22-.86"/><path class="cls-6" d="M80,179.78c-.07-.68-.13-1.35-.2-2a1.06,1.06,0,0,0,0-.87q.32-9.78.62-19.58l4.49-.19q.5,11.31,1,22.62l-6,0"/><path class="cls-4" d="M71.16,148.54c-2.9-5.71-.68-11,1.11-16.25,2.36-6.87,2.86-13.59-.13-20.4a12.73,12.73,0,0,1-.41-10c3.57-9.4,2-19.14,1.89-28.81-1.43,10.22-1.78,20.56-5.51,30.41a13.49,13.49,0,0,0,.56,10c1.81,3.94,1.57,8,.65,12-.68,3-1.74,5.91-2.18,8.93-.75,5.18-.64,10.25,4,14m8.74,7.81c-11.14,2.31-18.29-12.46-15.81-22.17A48.31,48.31,0,0,0,63.46,108a12.32,12.32,0,0,1,1.28-10.32c3.46-5.6,3.71-11.55,2.9-17.75a30.14,30.14,0,0,1,1.1-11.1,31.79,31.79,0,0,0,4.05-16.13,12.76,12.76,0,0,1,.36-3.54c.51-2,1.39-4.27,3.83-4,2.09.2,2,2.58,2,4.16,0,5.53,2,10.64,3.34,15.88-.25,3.9-.5,7.81-.86,11.71-.56,6.17-1.54,12.73,2.18,18.43A22.43,22.43,0,0,1,87.09,112a17.73,17.73,0,0,0,1.21,9.93c5,12.5,2.07,25.07-8.4,34.44"/><path class="cls-4" d="M123.56,148.14c-6-6-5.06-11.71-2.28-17.64s3.24-11.74.49-17.8c-1-2.15-2.4-4.77-1.13-6.89,5.21-8.67,1.43-17.6,1.27-26.43a3,3,0,0,0-.59,1.73c0,8.34.87,16.78-3.73,24.46a4.5,4.5,0,0,0-.25,3.49c3.17,7.89,1.28,15.15-1.53,22.79-2.26,6.13-1,14.27,7.75,16.29m7.94-78q0,.41-.12.81c-.08.14-.27.36-.24.4a6.93,6.93,0,0,0,.64.56l-.09-.08c.84,8.64-3.1,17.36-.14,25.84,2.21,6.33,2.23,12.68,2.08,19.12-.09,3.8.06,7.59,1.43,11.08,2.95,7.52,1.28,14.4-2.38,21-1.8,3.25-4,6.28-6,9.42l-.23.15c-13.34-2.58-19.72-16.07-13.15-27.94,3.53-6.39,4.07-11.92.81-18.24a10.58,10.58,0,0,1,.42-10.84c4.22-6.4,3.94-12.77,1.16-19.45a17.31,17.31,0,0,1-.67-3c-.47-4.16,2.61-6.77,4.33-10,3-2.79,1.38-6.38,1.71-9.64.23-2.3-.2-5.22,3.4-5.05,3.15.16,4.27,2.22,4.14,5.24-.15,3.79.41,7.44,2.91,10.53"/><path class="cls-4" d="M79.9,156.35c10.47-9.37,13.45-21.94,8.4-34.44A17.73,17.73,0,0,1,87.09,112a22.43,22.43,0,0,0-3.43-16.62c-3.72-5.7-2.74-12.26-2.18-18.43.36-3.9.61-7.81.86-11.71l1.86,2.67c1.77,3.61.42,7.75,1.92,11.41-1.33,6.85.17,12.8,5.29,17.82,2.55,2.5,4.06,5.81,3.06,9.36-2.26,8-.39,15.53,1.94,23.13a43.24,43.24,0,0,1,2.3,11.52c.23,8.52-2.78,12.67-10.91,15-1,.28-1.91.67-2.86,1l-4.49.19c-.18-.32-.36-.64-.55-1"/><path class="cls-3" d="M23.93,146.43A12.15,12.15,0,0,1,18.8,134.5c1.2-10,2.45-19.86.95-30a18.85,18.85,0,0,1,3.47-13.12c5.68-8.28,5-17.46,4-26.67-.43-3.75-.94-7.4,1.27-10.93-.85,9.55,2.68,18.82,1.47,28.4a18.86,18.86,0,0,1-2.27,7.28,26.46,26.46,0,0,0-2.83,21.68c1.62,5.57.54,10.88-.7,16.13-1.5,6.39-2.64,12.62-.2,19.16"/><path class="cls-4" d="M171,158.72c-4.31-7-.63-13.2,1.53-19.54,1.52-4.5,3.21-9,1.4-13.9s-1.43-9.67-.59-14.63,2.28-9.74,1-15.08a7.75,7.75,0,0,0-1.55,4.55c-.48,9.56-5.37,18.76-2.26,28.66.4,1.25-.46,3-1,4.42-1.09,3.23-2.56,6.35-3.44,9.63-1.64,6.11-.68,11.66,4.82,15.89m-.48-70.39c0-2.9.05-5.8.14-8.7.05-1.37.22-2.9,1.78-3.34S175,77,175.87,78c2.52,3,3,6.79,3.82,10.44.61,2.8.56,5.78,2.3,8.26l-.18,1c-1.13,1.08-1.07,2.07.24,3v0c.1,4.42-.17,8.8.58,13.25a41.81,41.81,0,0,1-.07,15.29,30.89,30.89,0,0,0,.86,16.14c2.3,7,2.81,13.88,0,20.82a2.12,2.12,0,0,0,.9,2.67l-4.59,1.87-3.6-.82c-8.37-2-13.69-6.8-14.6-15.71a15.94,15.94,0,0,1,1.06-6.42,25.67,25.67,0,0,0,1.46-16c-1.12-4.83-1.07-9.4,2-13.62a7.47,7.47,0,0,0,1.58-5.28c-.81-6.74.67-13.16,2.62-19.52a9.16,9.16,0,0,0,.31-5"/><path class="cls-4" d="M184.26,168.84a2.12,2.12,0,0,1-.9-2.67c2.86-6.94,2.35-13.83,0-20.82a30.89,30.89,0,0,1-.86-16.14,41.81,41.81,0,0,0,.07-15.29c-.75-4.45-.48-8.83-.58-13.25,4.41,5.78,5.76,12.61,6,19.58.2,5.16.09,10.24,2.53,15a5.8,5.8,0,0,1,.22,5c-.86,2.07-.45,3.94.43,5.92,4.13,9.28,1.64,17.26-7,22.71"/><path class="cls-4" d="M182.05,100.7c-1.31-.88-1.37-1.87-.24-3l.24,3"/><path class="cls-4" d="M134.92,81c-1.07,6.61,1.23,12.46,4.1,18.19,1.62,3.23,3.17,6.45,2,10.27-1.55,5-.24,9.76,1.64,14.43,1.66,4.12,3.24,8.29,3.43,12.81.47,10.89-2.76,16-12.77,20.26-1.25.53-2.54,1-3.82,1.47l-2.82-.1c2-3.14,4.22-6.17,6-9.42,3.66-6.65,5.33-13.53,2.38-21-1.37-3.49-1.52-7.28-1.43-11.08.15-6.44.13-12.79-2.08-19.12-3-8.48,1-17.2.14-25.84,2.5,2.56,2.85,5.88,3.23,9.18"/><path class="cls-4" d="M79.83,176.89a1.06,1.06,0,0,1,0,.87,3.58,3.58,0,0,1-.17-.62c0-.07.14-.16.22-.25"/><path class="cls-4" d="M131.78,71.87a6.93,6.93,0,0,1-.64-.56s.16-.26.24-.4c.14.32.27.64.4,1"/><path class="cls-3" d="M71.16,148.54c-4.66-3.78-4.77-8.85-4-14,.44-3,1.51-5.94,2.18-8.93.92-4,1.16-8.08-.65-12a13.49,13.49,0,0,1-.56-10c3.73-9.85,4.08-20.19,5.51-30.41.12,9.67,1.68,19.41-1.89,28.81a12.73,12.73,0,0,0,.41,10c3,6.81,2.49,13.53.13,20.4-1.79,5.22-4,10.54-1.11,16.25"/><path class="cls-3" d="M123.56,148.14c-8.75-2-10-10.16-7.75-16.29,2.81-7.64,4.7-14.9,1.53-22.79a4.5,4.5,0,0,1,.25-3.49c4.6-7.67,3.73-16.12,3.73-24.46a3,3,0,0,1,.59-1.73c.16,8.83,3.94,17.76-1.26,26.43-1.28,2.12.15,4.74,1.12,6.89,2.75,6.06,2.24,12-.49,17.8s-3.71,11.63,2.28,17.64"/><path class="cls-3" d="M171,158.72c-5.5-4.23-6.46-9.78-4.82-15.89.88-3.28,2.35-6.4,3.44-9.63.49-1.44,1.35-3.17,1-4.42-3.11-9.9,1.78-19.1,2.26-28.66a7.75,7.75,0,0,1,1.55-4.55c1.24,5.34-.22,10.21-1,15.08s-1.18,9.84.59,14.63.12,9.4-1.4,13.9c-2.16,6.34-5.84,12.51-1.53,19.54"/></g><g class="cls-7"><path class="cls-4" d="M1030.58-139.19a26.6,26.6,0,0,0-5.21,3.85,26.6,26.6,0,0,1,5.21-3.85V-215.6h0v-10.57c-6,3.73-11.93,7.77-17.7,12,5.77-4.21,11.65-8.25,17.7-12v-37.62c-2.75,1-5.49-2.2-8.24,0-6.8-2.31-13.82-.48-20.69-1.44-2.12.18-4.1.11-4.41-3.09-.61,3.24-2.66,3.34-5,3.33-10.49-.05-21,.06-31.47.11h0l-7.2-.1-7.27,0c-3.82.16-7.52,1.77-11.39,1.25a3.75,3.75,0,0,1-3,2.49l-.53.12.53-.12a3.75,3.75,0,0,0,3-2.49c-8.56.74-17,2.63-25.67,2.24-2,1.67-4.25,1-6.42,1.16L894.88-259c-1.56,1.7-3.56,1.32-5.33,1.09-6.09-.76-11.47,2.47-17.21,3.67,0,0-.1-.94-5-.94,2.89,0-.37.53-4.35,2.1-5.59,2.21-11.64,1.07-17.44,2.24a107.73,107.73,0,0,0-14.42,3.95c-2.62,1.08-4.22,1.8-5.33,2.31h0c.36-.21-5.64,1.22-6,1a78.59,78.59,0,0,0-9.39,2.94c-3,1.21-20.16,6.47-22.43,7.15a295.59,295.59,0,0,0-28.81,9.77c-12.71,5.22-298.62,132-300.28,134.07L439.32-75.8c-5.48,0-78-78.5-88.36-85.69s-44.31-25.74-44.31-25.74-35.81-15.34-51.72-22.37-56.41-20.09-77.7-23.74-20.46-2.68-30.69-3.92c-3.87-.46-28.15-1.73-29.06-2.85l-2.87,0a2.57,2.57,0,0,0,.36,1.24,2.57,2.57,0,0,1-.36-1.24l-25.79-.11h0l-.46-.19-6,0-6.88.26h0c-8-1-15.89.87-23.85,1.16.52.26,1,.55,1.55.83-.51-.28-1-.57-1.55-.83-3.79,0-7.48,1.86-11.33.82l-6.07.1c-4.35,1.33-8.8,1.32-13.25,1.39a6.93,6.93,0,0,0-5.36,1.28,3.47,3.47,0,0,0,2.62,2.64,3.47,3.47,0,0,1-2.62-2.64l-1.86-.06c-2,1.69-4.18.84-6.3.92l-5.08.13v21.16h0v44.67h0v9.4h0v45.84c5,.69,8.7,4.35,12.44,7.58-3.74-3.23-7.43-6.89-12.44-7.58v57.6h0V25.38h0V61.82l19.51-.17h0l39.12,0,26.71,0c-.33-.76-.65-1.55-1-2.31.35.76.67,1.55,1,2.31h71c-.24-.63-.4-1.34-.67-1.94.27.6.43,1.31.68,1.94l62.73,0h0l31.84,0h75l33,0c-.28-2.06-1.8-2.77-3.06-3.67,1.26.9,2.78,1.61,3.06,3.67h58.48c-7.1-4.43-14.24-8.77-21.32-13.22,7.08,4.45,14.22,8.79,21.32,13.22l31,0,42,0h0l33,0a42.63,42.63,0,0,0-9.84-8.25,42.63,42.63,0,0,1,9.84,8.25l88.33,0H859.88l15.51,0c4.56-4.28,9.07-8.63,13.66-12.87-4.59,4.24-9.1,8.59-13.66,12.87h99.72l55.47.17V-41.62h0V-59.25a2.65,2.65,0,0,0-1.31.33,2.65,2.65,0,0,1,1.31-.33Z"/><path class="cls-3" d="M1030.69-235.69v28.79c-13.83,7.46-26.78,16.28-39.63,25.3-28.3,19.87-54.2,42.6-79.72,65.81-13.12,11.94-26,24.16-39.16,36-18.9,17-38,33.86-57,50.77-9.43,8.38-18.82,16.82-28.35,25.09-15.72,13.63-31.54,27.15-47.32,40.71a301.58,301.58,0,0,1-58.36-13.57c-4.19-1.44-9.08-1.53-12.42-5.12,5.21-3.87,11.39-5.95,17-9.16a704.9,704.9,0,0,0,67.59-44.15C778.69-54,802.25-75,825.8-96c11.2-10,22.51-19.9,34.07-29.48q19.3-16,39.16-31.34c17.83-13.76,36.16-26.84,55.14-39a483.3,483.3,0,0,1,53.92-30.41c7.35-3.47,14.28-8.2,22.6-9.44"/><path class="cls-3" d="M860,44.83h-90.5c-2.39-1.22-5.14-1.26-7.55-2.14s-5.65.61-6.79-2.86c10-6.53,20.05-12.92,29.93-19.6C812.31,1.81,838-18.55,861.1-42c9-9.14,17.89-18.42,26.89-27.55,24.14-24.52,48-49.38,73.31-72.7,15.45-14.22,31-28.3,48-40.69,7-5.1,13.14-11.44,21.39-14.73v56.55c-1.31,0-2.17.81-3.14,1.54-5.76,4.3-10.92,9.29-16.31,14C998.1-114,986-101.42,974-88.73c-14.16,15-27.57,30.77-41.33,46.19-6.48,7.26-13.29,14.23-19.46,21.74C895.32,1,877.7,22.94,860,44.83"/><path class="cls-3" d="M948.42,44.82H875.5c5.66-4.64,11.23-9.4,17-13.92C910.78,16.5,926.15-.74,939.73-19.42c9.52-13.1,19-26.21,28.7-39.21,14.86-20,30.58-39.35,47-58.12,4.51-5.17,8.78-10.93,15.29-14.07v69.91a3.55,3.55,0,0,0-2.93,1.77c-8.25,11.06-16.59,22.07-24.8,33.17-11.77,15.9-23.57,31.75-36.62,46.67-6.57,7.51-13,15.3-17.92,24.12"/><path class="cls-4" d="M1030.69-235.69c-8.32,1.24-15.25,6-22.6,9.44a483.3,483.3,0,0,0-53.92,30.41c-19,12.15-37.31,25.23-55.14,39q-19.85,15.32-39.16,31.34C848.31-115.93,837-106,825.8-96c-23.55,21-47.11,42-72.52,60.85A704.9,704.9,0,0,1,685.69,9c-5.57,3.21-11.75,5.29-17,9.16-3.86.54-6.83-2-10.24-3,.12-2.37,1.86-3.62,3.55-4.74C674.55,2.1,686-7.7,697.88-16.8c13.56-10.34,26.64-21.32,39.7-32.29,25.34-21.29,51-42.16,77.4-62.13,16.6-12.55,32.83-25.58,49.46-38.12,32.92-24.82,67.32-47.24,103.82-66.43,17.53-9.22,35.75-16.88,54.19-24,2.75-1.9,5.49.93,8.24,0Z"/><path class="cls-4" d="M1030.69-197.65c-8.25,3.29-14.4,9.63-21.39,14.73-17,12.39-32.55,26.47-48,40.69C936-118.91,912.13-94,888-69.53,879-60.4,870.12-51.11,861.1-42c-23.12,23.43-48.79,43.79-76,62.21-9.88,6.68-20,13.07-29.93,19.6-5.43.15-10.89.44-15.63-3,15.78-13.56,31.6-27.08,47.32-40.71,9.53-8.27,18.92-16.71,28.35-25.09,19-16.91,38.1-33.74,57-50.77,13.18-11.88,26-24.1,39.16-36,25.52-23.21,51.42-45.94,79.72-65.81,12.85-9,25.8-17.84,39.63-25.3Z"/><path class="cls-4" d="M1030.69-130.82c-6.51,3.14-10.78,8.9-15.29,14.07C999-98,983.29-78.63,968.43-58.63c-9.66,13-19.18,26.11-28.7,39.21-13.58,18.69-29,35.92-47.24,50.31-5.76,4.52-11.33,9.28-17,13.92l-15.52,0C877.7,22.94,895.32,1,913.19-20.8c6.17-7.51,13-14.48,19.46-21.74C946.41-58,959.82-73.7,974-88.73c12-12.69,24.12-25.25,37.26-36.8,5.39-4.74,10.55-9.73,16.31-14,1-.73,1.83-1.56,3.14-1.54Z"/><path class="cls-3" d="M658.49,15.17c-10.78-4.8-21.61-9.48-32.31-14.42-8.61-4-16.91-8.6-25.89-11.78-1-.35-1.65-1.65-2.46-2.51A23.88,23.88,0,0,1,601-16c21.31-11.55,42.49-23.31,63.27-35.83,20.33-12.24,40.38-24.93,59.79-38.54s38.12-28.12,57.1-42.28c16.41-12.24,33.35-23.72,50.2-35.34,15.56-10.72,31.49-20.84,47.67-30.59a568.76,568.76,0,0,1,51.29-27.8l30.49-14.35c10.49,0,21-.15,31.47-.11,2.37,0,4.42-.08,5-2.9.31,2.79,2.29,2.86,4.41,2.7,6.87.84,13.89-.76,20.69,1.26-18.44,7.17-36.66,14.83-54.19,24-36.49,19.19-70.9,41.61-103.82,66.43-16.63,12.54-32.86,25.57-49.46,38.12-26.41,20-52.06,40.84-77.4,62.13-13.06,11-26.14,22-39.69,32.29C686-7.7,674.55,2.1,662,10.43c-1.69,1.12-3.43,2.37-3.55,4.74"/></g></svg>