<svg id="Lag_1" data-name="Lag 1" xmlns="http://www.w3.org/2000/svg" viewBox="0 0 4690.02 3126.68"><defs><style>.cls-1,.cls-4{fill:#6276b8;stroke:#6276b8;}.cls-1,.cls-3,.cls-4{stroke-miterlimit:10;}.cls-1{stroke-width:0.2px;}.cls-2{fill:#344d3b;}.cls-3{fill:none;stroke:#344d3b;stroke-width:14.13px;stroke-dasharray:28.26 28.26 28.26 28.26 28.26 28.26;}.cls-4{stroke-width:0.25px;}</style></defs><ellipse class="cls-1" cx="574.98" cy="515.48" rx="31.01" ry="46.67"/><ellipse class="cls-1" cx="501.78" cy="515.48" rx="31.01" ry="46.67"/><ellipse class="cls-1" cx="428.58" cy="515.48" rx="31.01" ry="46.67"/><ellipse class="cls-1" cx="538.83" cy="603.22" rx="31.01" ry="46.67"/><ellipse class="cls-1" cx="464.67" cy="603.22" rx="31.01" ry="46.67"/><ellipse class="cls-1" cx="501.78" cy="690.88" rx="31.01" ry="46.67"/><ellipse class="cls-1" cx="464.67" cy="422.14" rx="31.01" ry="46.67"/><ellipse class="cls-1" cx="464.67" cy="422.14" rx="31.01" ry="46.67"/><ellipse class="cls-1" cx="391.74" cy="422.14" rx="31.01" ry="46.67"/><ellipse class="cls-1" cx="538.39" cy="422.14" rx="31.01" ry="46.67"/><ellipse class="cls-1" cx="612.1" cy="422.14" rx="31.01" ry="46.67"/><path class="cls-2" d="M382.59,309.89c6.24,1.73,17.47-.5,21.29-.4,12.17.32,21.39,4.66,30.49,8.79,3,1.36,5.15.85,7.27,1.25a18.52,18.52,0,0,1,4.51,1.74s-1.07-1.31-.86-1.64.37-2.13,2.27-2,3.7-.55,4.61-.35,5.21-.76,5.81-.8a9.35,9.35,0,0,0,2-.68s-1.6-1.42-.66-2.13a11.07,11.07,0,0,1,3.3-1.73c.34.06,5.34-.67,6.14-.83s3.84-1.12,4.23-1.25a23.75,23.75,0,0,0,3.4-1.61c.39-.36,1.71-1.22.73-1.73s-2.05-1.21-3.21-1.75a13,13,0,0,1-2.83-2.27c-.74-.65-1.47-1.37-1-1.85s2.63-2.6,2.63-2.6a19.93,19.93,0,0,1,2.67-2.55c.7-.35,1.7-.91,1.93-1.06s-.88-1.27-1.61-2.16c-1.07-1.32-.68-1,.88-2.14.63-.48,1.27-1,1.47-1.06.42-.25,1.66-1,1.86-1.22a2.66,2.66,0,0,0,.24-1.56,2.3,2.3,0,0,1,1-1.67,12.47,12.47,0,0,0,1.95-.48c.5-.25,4.43-1.52,5.28-2a63.35,63.35,0,0,0,4.86-4.83s-.2-.69-1.34-.67a29.82,29.82,0,0,1-4.48-.28,9.45,9.45,0,0,1-3.08-1.29,15.1,15.1,0,0,1-1.22-2.43c.36-1,.71-1.95,1.08-2.93l1.26-2c.56-.85.5-.54-.25-1.46-.27-.33-.57-.67-.73-.85a2.46,2.46,0,0,1,.08-2.3,45.15,45.15,0,0,1,4-3.41c3.41-1.72,3.4-1.15,6.51-3.68,0,0-.05-1.14-1.49-1.14s-5.3-.7-6-1.27-2.07-1.93-2.2-2.85-.1-3.91.76-4.71a27.22,27.22,0,0,1,4-3.27c.93-.4,3.71-1.66,4.79-2.07a15,15,0,0,1,1.88-.5c3.42-.73,3.47-.06.42-1.76-.47-.26-.86-.49-1-.59a48.7,48.7,0,0,0-4.57-2c-.92-.35-7-1.39-7-1.39a35.38,35.38,0,0,1,.08-5c.24-.53.59-6.64.59-6.64a6.42,6.42,0,0,0,.19-3.89c-.2-.58-.46-1.34-.7-2.07-.9-2.66-.32-3.72-1.82-1.65a13.32,13.32,0,0,1-1.53,1.86,44.47,44.47,0,0,1-5.91,4.31c-1.56.85-4.73,2.31-5.85,2.19s-2.43-.42-2.43-.42c1.89-4.65.84-1.62-2.09-1.17a66.21,66.21,0,0,0-6.24,2.23l-3.41-.53c-.42-1.09-.85-2.18-1.27-3.28,0-1.12,0-2.24,0-3.36,0,0,2.57-6.54,3.75-7.64a45.31,45.31,0,0,0,3.8-5c.51-.66,1-1.33,1.51-2H460L457.77,201s.24-2.89.63-3.26,3.4-4.21,3.4-4.21l3.13-2.61-5,.62-1.16-1.74c.52-1.28,1.05-2.55,1.57-3.83,0,0,3-4.46,3.44-5.28s2.75-5.38,2.75-5.38c.12-.81.26-1.62.38-2.44,0,0-2.31.51-3.22.62s-6.38,2.08-6.38,2.08-4.14,1.19-4.68,1.39-3.23-1.44-3.23-1.44c-.1-1-.19-2-.29-3l2.09-6.11a4.83,4.83,0,0,0-2.2-.17c-.61.27-4.19,2.41-4.71,2.16s-1.88-.63-1.38-1.68,1.79-4.2,1.79-4.2c-.2-.31-.38-.63-.57-.95l-2.05-.32s-.35-1.16.16-1.72,1.13-3.28,1.42-3.75a17.56,17.56,0,0,0,.33-3.51c.15-1,.3-2,.44-3.08l-1-.81s-2.66,2.41-3.06,2.62a32.32,32.32,0,0,1-3.08,1.46l-3.85,1.44a5.13,5.13,0,0,0-.62-2.1c-.58-1,.34-3.82.1-4.33a6.37,6.37,0,0,0-1-1.22c-.94.89-1.89,1.79-2.82,2.7,0,0-1.26-1.06-1.11-1.29s.33-2.16.65-2.45,1.17-2.12,1.82-3.17c3.77-6.13-1-3.92-4-2.63l-4.49.18a4.41,4.41,0,0,1-.84-2.33,37.18,37.18,0,0,1,.53-4.65c.24-1.53.49-3,.73-4.56-1.82-.77-3,.25-4.81.77-.11-1-.24-2-.37-2.92.22-3,.16-12.48-1.9-14.71-1.25-1.36-2.47-5.85-2.47-5.85q-3.36,3.48-6.7,7s-6.7,7.72-7.17,8a61.75,61.75,0,0,0-3.66,5.18c-.4-1-.81-2-1.2-3l-3.32,4s-2.79,4.08-3.19,4.74-2.64,4.09-3.86,4.34c-3.43.7-1.36-6.12-4.78,1.47,0,0-1.28,7.28-1.91,7.87s-2.33,3.65-2.79,4.09l-3.61,3.35c-4.51-5.56-3.93,4.41-3.87,4.64a55.61,55.61,0,0,1,.27,6.13c.1,6.71-1.94,16.37-1.47,22.44.11,1.39,1.32,6.8,1.1,8.63s-1.61,7.74-2.49,9.14a9.38,9.38,0,0,1-4.43,3.24,11.39,11.39,0,0,1-4.85-1,24.34,24.34,0,0,1-5.05-3.74c-6.29-5.8-5.87-9.49-5.91-18,0,0-.17-7,.27-8.86s.91-7.07.91-7.07q-.9-3-1.79-6.06s-2.05,2.36-2.45,2.73-2.74,0-2.74,0l-.7-1.71c-.13-1-.25-2.05-.36-3.08a29.54,29.54,0,0,0,.33-3.58c-.1-.5-.14-3.07-.28-3.31s-.65-1.26-.65-1.26l-2.15,1.94-1.55-.11-1-.73c-.37-1.05-.75-2.09-1.13-3.12-.11-.74-.25-1.49-.38-2.24a10.73,10.73,0,0,0-.55-2c-.19-.2-1.59-2.45-1.64-2.11s-.58,2.54-.93,2.72a2,2,0,0,1-1.79-.13l-2-2.19s-1.57-3.44-2.62-4.09a68.66,68.66,0,0,1-5.31-5.45s-.51,4.17-1.06,4.84a40.28,40.28,0,0,1-3.32,3.67l-2.71,1.64L304.56,141s-1.36-2.9-1.75-2.38-2.08,3.12-2.92,3.46-2.28-.55-2.28-.55q-1.64-2-3.29-4.06A14.71,14.71,0,0,0,291.5,135c-1.05-.51-5.81-4.09-5.81-4.09.1,1.89.19,3.79.28,5.67q-2.13,2.44-4.26,4.86l-1.87-1.62c-2-1.73-1.81-2.52-3.77-1.19l-2.24,1.53-4-3.82c-4.1-3.86-3.5-.79-8.3,4.32l-6.33-2.12c-1.49-1-3-2-4.47-3q-1.81,1.66-3.61,3.36s-3.7,1.36-6.71.6-8-2.35-9.51-2.73c-11.59-2.88-8.59-2.38-2.12,9.39.87,1.57,3.85,8.6,3.85,8.6,0,1.48,0,3,0,4.44-9.9,4.45-.86,2.84.21,12.57-.79,1.63-1.58,3.27-2.36,4.9-.57,1.79-.84,1.46.19,3,.51.78,1,1.56,1.55,2.33-.55.66-1.1,1.34-1.64,2l-.9,1.09L230.9,187l.95,1.44c-.34,1.11-.68,2.21-1,3.32-6,3-7,1.76-2.3,5.72a57.38,57.38,0,0,1,4.26,4.63s.36,2.2,0,2.72-2.54,2-2.66,2.24,4.43,5.9,4.68,6.27a16.65,16.65,0,0,1,.39,3.19s-.78,2.14-1.84,2.75-4.12,1.75-4.63,2.23-2.23.82-1.15,1.59,3.92,3.63,4.25,3.84a53.62,53.62,0,0,1,4.67,4c.89,1,3.55,3.37,3.06,4.58s-.82,1.95-.45,2.34a13.1,13.1,0,0,0,2.09,1.33l4.24.66s2.78,1.27,1.6,2.21-2.32,1.58-1.8,1.83a14.1,14.1,0,0,0,3.93.8,31.8,31.8,0,0,1,4.64-.17c.91.19,3.56.84,3.15,1.83s-2.5,1.87-1.67,2.44,3.78.33,3.78.33c8.69.26,10.63-.61,17.05,5.22,4.2,3.81,6.27,9.58,3.27,13.35a9,9,0,0,1-4.26,2.76c-6.69,2.26-16.78.9-23.19-2.37a70.83,70.83,0,0,0-6.83-2.84,19.61,19.61,0,0,0-2.4-.29c-3.11-.25-3-.85-1.69,1.18.34.52.57,1.05.36,1.25a6.54,6.54,0,0,1-4.28.86c-1.51-.38-3.56-.7-4.69-1a11.92,11.92,0,0,0-1.78-.21c-3.11-.18-3-.7-2.4,1.1a5.72,5.72,0,0,1,.3,1.38c.05,1-2,3-2,3s-3.1,1.38-3.93,1.29l-2.05-.21c-2.91-.26-3.58-1.12-2.89,1.21.12.43.25.87.38,1.31l-4.56,2.46c-4.27,1.15-8.27,2.06-12.58,2.95-3.47.49-4.16.61-7,2.12-2.66,1.42.25.6,3,2.66,1,.75,7.57,3.65,7.57,3.65s5.08,3,5.46,3.39a14.68,14.68,0,0,1,1.13,2.34q-.83,1.38-1.68,2.76s-2.27,2-1.66,2.15,1.63-.92,4.11,0a11.67,11.67,0,0,1,4.18,2.49c.37.4,2.16,1.55,1.51,2.75s-.52,1.14-1.46,2.84c-.28.5-.54,1-.76,1.33-1.08,1.8-1.36,1.29,1.33,1.79.29.07.59.11.86.15a44.34,44.34,0,0,1,4.76,1.06c.52.26,1.41,1.22,1.16,2.05s-.67,1.65-.91,2.25-1.65,1.61-1.09,1.76a19.41,19.41,0,0,1,3.7.93c.86.46,2.44,1.22,2.74,1.46s1.59,1.42,1.27,1.93-1.13,2-1.52,2.54a48.83,48.83,0,0,0-4.23,5.93c-.2.33,3.55,1,4.46,1.12s4.38.09,4.57,1a9.7,9.7,0,0,1,.12,2.19s2.81-.83,3.22-.85a8.11,8.11,0,0,1,2.77.39c.37.32,1,2,.78,2.25-3.16,3.93-3.39,2.36,2.19,5.23a9.72,9.72,0,0,1,2.9,2c1.18,1.59,1.17,6.33,1.17,6.33s-4.88,5.13-3,5.22,10.26-2.13,10.26-2.13l5.55,3.16c0,1.38,0,2.76,0,4.13a38.44,38.44,0,0,1,5.2-1.28c1.37-.09,4.11,0,4.11,0,0,1.12-.07,2.24-.1,3.36,0,0-3.18,4.14-1.8,4.05s9.66-2.16,9.66-2.16l3.91,1.4,1.83,4.84a35.1,35.1,0,0,0-2.46,6.84c-.55,2.09-.54,1.45,2.23,1.21,3.41-.3,9-.77,9.51-.66a12.35,12.35,0,0,1,3.51,2.3,4.77,4.77,0,0,1,0,1.55c-.16,1.88-.14,1.24,2.37,1.09l3.8-.21s2.78,1.12,3,1.66a12,12,0,0,1,.59,3.32c-.05.3-.25,1.21-.44,2.14-.73,3.32-1.19,2.84,2.22,1,1.18-.65,2.36-1.27,2.57-1.4.47-.29,3.5-2.37,3.5-2.37l2.12,2.21c1.56,1.61.71,1.18,2.67.35.8-.34,1.7-.57,2.06-.18a16.1,16.1,0,0,1,1.6,2.36s-.07,2.15,0,3c0,.36.05.85.09,1.3.1,1.61-.07,1.2,1.32-.24a33.58,33.58,0,0,1,2.6-2.57c.54-.36,4.8-2.84,4.8-2.84l3-1.78c0,.29-.08.57-.11.85-.2,1.54-.45,1.53.83.71l1.08-.71c.9-.38,1.81-.78,2.7-1.18l4.34,0a36.5,36.5,0,0,1,1.79,3.37c.21.47.6,1.27,1,2,1.28,2.54.74,2.56,2.23.61l1.23-1.6a13,13,0,0,0,1.63-3.15,46,46,0,0,1,1.89-4.58c.48-1.05,1.52-.08,1.52-.08.29.2.53.39.77.58,1,.83.84,1,1.11-.5a12,12,0,0,1,2.89-6.59c.26.51,1.48,3.44,2.25,3.27.41-.1,1.84-3.67,2-4.15l.72-3.64c.29-1,.57-1.91.85-2.87.81-1.4,1.61-2.78,2.41-4.18.49.59,1,1.17,1.47,1.76a11.54,11.54,0,0,0,.34-3.43c-.58-4.09,9.69-15.11,7.47-19.14-6.73-12.23,8.3-26,8.41-37.77"/><path class="cls-2" d="M381.77,309.26l2.31-.79c16.41,17.2,34.76,28.48,58.63,29.34,8.82.31,14.54-3.43,24.44-9.2,2-1.15,2.64-2.69,4.72-4.14,0,3,3,6.3,5.06,8.5-1.47,1.15-5,1.54-6.53,2.49-31.1,19.45-67.6-.34-88.63-26.2"/><path class="cls-2" d="M579.91,271.84c-.77,5,2,13.55,2.25,16.53.85,9.47-1.69,17.06-4.08,24.5-.79,2.45-.19,4.08-.31,5.76a14.28,14.28,0,0,1-.95,3.66s.92-.94,1.21-.81,1.68.1,1.72,1.59.78,2.84.71,3.56,1,4,1.14,4.44a8.44,8.44,0,0,0,.71,1.49s1-1.37,1.6-.71a8.39,8.39,0,0,1,1.64,2.41c0,.27,1,4.09,1.2,4.7s1.23,2.89,1.35,3.18a20.24,20.24,0,0,0,1.57,2.49c.33.28,1.11,1.22,1.42.43s.74-1.71,1.06-2.68a11,11,0,0,1,1.51-2.39c.44-.64.93-1.28,1.35-.93s2.25,1.82,2.25,1.82a16.09,16.09,0,0,1,2.24,1.84c.34.51.86,1.25,1,1.41s.92-.8,1.54-1.45c.93-.94.7-.62,1.75.5.43.44.84.89,1,1,.24.31,1,1.2,1.12,1.34a2.11,2.11,0,0,0,1.23,0,1.87,1.87,0,0,1,1.4.63,9.91,9.91,0,0,0,.55,1.48c.24.37,1.58,3.31,2,3.92a49.69,49.69,0,0,0,4.2,3.35s.53-.22.4-1.11a21.5,21.5,0,0,1-.18-3.51,6.94,6.94,0,0,1,.72-2.51,11.65,11.65,0,0,1,1.77-1.17l2.39.57c.54.27,1.09.55,1.64.81.71.35.47.33,1.1-.33l.6-.65a1.93,1.93,0,0,1,1.79-.15,33.4,33.4,0,0,1,3,2.79c1.64,2.49,1.21,2.54,3.46,4.73,0,0,.89-.13.76-1.26a13.41,13.41,0,0,1,.43-4.75c.39-.58,1.33-1.79,2-2s3-.44,3.73.16a20.44,20.44,0,0,1,2.9,2.81c.41.67,1.64,2.73,2,3.52a13.92,13.92,0,0,1,.55,1.42c.88,2.59.36,2.69,1.41.16a8.23,8.23,0,0,1,.37-.81c.22-.39.93-3,1.12-3.76s.45-5.53.45-5.53a27.51,27.51,0,0,1,3.87-.39c.43.15,5.21-.14,5.21-.14a5,5,0,0,0,3-.21l1.54-.73c2-.93,2.87-.59,1.12-1.56a10.14,10.14,0,0,1-1.57-1,37.47,37.47,0,0,1-3.91-4.21c-.79-1.14-2.22-3.46-2.22-4.35s.1-1.92.1-1.92c3.79,1,1.34.49.72-1.73a48,48,0,0,0-2.3-4.65c0-.91.07-1.8.11-2.71l2.43-1.28,2.61-.35s5.32,1.41,6.27,2.22a38.29,38.29,0,0,0,4.26,2.51c.57.34,1.13.67,1.7,1-.11-.86-.21-1.72-.31-2.59.32-.63.63-1.25.94-1.88a9.29,9.29,0,0,1,2.61.2c.31.28,3.58,2.26,3.58,2.26l2.3,2.21c-.3-1.27-.61-2.55-.92-3.81l1.25-1.06,3.12.87s3.73,1.95,4.42,2.19,4.43,1.66,4.43,1.66l1.93.07s-.62-1.74-.78-2.44-2.19-4.78-2.19-4.78-1.31-3.12-1.51-3.52.83-2.64.83-2.64l2.31-.49,4.94,1.07a4,4,0,0,0-.06-1.73c-.29-.46-2.26-3-2.12-3.46s.32-1.53,1.18-1.23,3.43,1,3.43,1c.23-.17.46-.35.67-.53,0-.54.06-1.08.08-1.62,0,0,.88-.38,1.36,0a20.7,20.7,0,0,0,3,.75,13.53,13.53,0,0,0,2.76,0l2.43.06c.19-.28.37-.55.54-.83,0,0-2.11-1.85-2.31-2.13s-1.07-1.58-1.42-2.27-1.45-2.86-1.45-2.86a4.15,4.15,0,0,0,1.57-.68c.74-.53,3-.07,3.36-.32a4.61,4.61,0,0,0,.88-.87l-2.36-1.95s.69-1.08.89-1,1.71.06,2,.28,1.76.72,2.63,1.12c5.11,2.38,3-1.1,1.68-3.37-.18-1.15-.37-2.32-.54-3.49a3.52,3.52,0,0,1,1.74-.86,31.19,31.19,0,0,1,3.66,0l3.61.18c.43-1.5-.48-2.32-1-3.68l2.24-.54c2.35-.12,9.73-1,11.27-2.82.94-1.1,4.33-2.46,4.33-2.46-2-1.53-4-3.05-6-4.56,0,0-6.62-4.52-6.88-4.87s-4.37-2.38-4.37-2.38c.74-.4,1.5-.81,2.25-1.19l-3.38-2.23s-3.43-1.8-4-2-3.43-1.69-3.73-2.61c-.84-2.61,4.63-1.62-1.57-3.58,0,0-5.79-.35-6.3-.79s-3-1.47-3.42-1.8l-2.94-2.49c3.91-4-3.78-2.66-4-2.6a43.67,43.67,0,0,1-4.74.77c-5.21.69-12.89,0-17.58.89-1.06.22-5.17,1.64-6.61,1.64a31.1,31.1,0,0,1-7.34-1.1,7.42,7.42,0,0,1-2.91-3.16,9,9,0,0,1,.33-3.86,18.18,18.18,0,0,1,2.46-4.27c3.92-5.41,6.83-5.43,13.42-6.22a52.66,52.66,0,0,1,6.91-.59c1.51.17,5.59.06,5.59.06,1.51-.64,3-1.3,4.54-1.93,0,0-2-1.4-2.33-1.66s-.27-2.13-.27-2.13l1.27-.7c.78-.2,1.57-.38,2.36-.56a20.21,20.21,0,0,0,2.81-.08c.38-.11,2.37-.36,2.55-.5s.92-.63.92-.63c-.57-.49-1.14-1-1.7-1.49L697,219l.48-.88,2.32-1.15,1.7-.51a7.57,7.57,0,0,0,1.49-.61c.14-.15,1.76-1.45,1.49-1.46a6.59,6.59,0,0,1-2.2-.47c-.17-.26-.34-1.08-.06-1.4s1.52-1.77,1.52-1.77,2.54-1.53,3-2.41a52.1,52.1,0,0,1,3.75-4.62s-3.31,0-3.87-.39a33.5,33.5,0,0,1-3.16-2.24l-1.52-2c.74-1.08,1.5-2.16,2.24-3.23,0,0,2.12-1.33,1.69-1.58s-2.62-1.33-3-2,.23-1.81.23-1.81l2.86-2.93a11.52,11.52,0,0,0,1.63-2.41c.3-.88,2.65-4.89,2.65-4.89l-4.39.73-4.16-2.87,1.08-1.6c1.17-1.72,1.81-1.64.59-3L702,171.91c.86-1.17,1.73-2.33,2.59-3.49,2.64-3.55.3-2.8-4.11-6.06.36-1.72.72-3.41,1.08-5.12.64-1.25,1.27-2.51,1.9-3.74L700.54,151a10.49,10.49,0,0,1-1.09-5.16c.3-2.42,1.1-6.44,1.27-7.63,1.19-9.29,1.06-6.91-7.5-.8-1.15.81-6.33,3.75-6.33,3.75l-3.46.43c-4.36-7.3-2.28-.4-9.74,1.3l-4-1.39c-1.45-.27-1.22-.52-2.31.42-.55.48-1.1,1-1.67,1.42l-1.71-1.1-.92-.6c-.46.39-.9.76-1.35,1.12l-1,.88-2.67-.49c-2.88-4.38-2-5.26-4.65-1.28a44.36,44.36,0,0,1-3.22,3.74s-1.67.47-2.11.22-1.78-1.8-2-1.88-4.19,4-4.45,4.21a12.08,12.08,0,0,1-2.44.6,5.13,5.13,0,0,1-2.31-1.18c-.55-.76-1.73-3-2.16-3.41s-.84-1.65-1.35-.74-2.45,3.38-2.58,3.65a44.79,44.79,0,0,1-2.66,4c-.66.78-2.3,3.07-3.28,2.8s-1.59-.46-1.88-.14a11.69,11.69,0,0,0-.84,1.74c0,1.11-.09,2.23-.12,3.36,0,0-.74,2.27-1.57,1.45s-1.45-1.67-1.59-1.25a11.51,11.51,0,0,0-.26,3.14,25.75,25.75,0,0,1,.55,3.6c-.07.72-.33,2.84-1.14,2.6s-1.68-1.77-2-1.08.09,3,.09,3c.58,6.78,1.44,8.21-2.51,13.72-2.59,3.61-6.9,5.75-10.08,3.76a6.94,6.94,0,0,1-2.54-3.07c-2.36-5-2.22-13-.27-18.24a53.94,53.94,0,0,0,1.59-5.57,12.51,12.51,0,0,0,0-1.9c-.09-2.43.39-2.37-1.08-1.2-.37.31-.76.55-.92.4a5.11,5.11,0,0,1-1.07-3.26c.16-1.21.22-2.82.33-3.73a7.88,7.88,0,0,0,0-1.4c-.14-2.44.27-2.39-1.06-1.77a4.58,4.58,0,0,1-1.06.36c-.77.13-2.55-1.28-2.55-1.28a12.87,12.87,0,0,1-1.35-2.92c0-.24,0-.9,0-1.62-.06-2.28.54-2.9-1.21-2.14-.33.13-.66.26-1,.41-.79-1.11-1.55-2.22-2.34-3.32-1.26-3.22-2.33-6.24-3.43-9.51a12.3,12.3,0,0,0-2.28-5.27c-1.34-1.93-.44.25-1.8,2.56-.49.82-2.14,6.23-2.14,6.23s-1.87,4.21-2.15,4.55a11.56,11.56,0,0,1-1.72,1.09l-2.3-1.06s-1.72-1.59-1.82-1.1.87,1.18.35,3.2a9.44,9.44,0,0,1-1.55,3.48c-.27.32-1,1.82-2,1.42s-.94-.31-2.34-.87c-.44-.17-.8-.33-1.1-.48-1.51-.68-1.13-.93-1.28,1.2,0,.23,0,.47,0,.68a33.5,33.5,0,0,1-.4,3.8c-.15.43-.81,1.2-1.48,1.08a15.53,15.53,0,0,1-1.83-.51c-.5-.13-1.4-1.13-1.47-.68a15.18,15.18,0,0,1-.38,3c-.28.71-.73,2-.89,2.26s-1,1.36-1.39,1.17-1.67-.7-2.12-1a37.69,37.69,0,0,0-5-2.74c-.29-.13-.46,2.85-.48,3.56s.33,3.41-.36,3.65a8.31,8.31,0,0,1-1.7.29s.9,2.11,1,2.44a6.14,6.14,0,0,1,0,2.18c-.22.32-1.44,1-1.68.81-3.34-2.1-2.16-2.42-3.87,2.17a7.69,7.69,0,0,1-1.28,2.43c-1.13,1.07-4.82,1.5-4.82,1.5s-4.44-3.32-4.33-1.9,2.58,7.78,2.58,7.78q-1,2.29-1.95,4.6l-3.21.38a30.13,30.13,0,0,1,1.47,3.94c.19,1.07.35,3.2.35,3.2l-2.63.22s-3.5-2.09-3.31-1,2.55,7.3,2.55,7.3c-.24,1.06-.49,2.12-.73,3.18-1.2.62-2.39,1.23-3.58,1.86a27.47,27.47,0,0,0-5.55-1.31c-1.68-.23-1.18-.28-.74,1.86.53,2.62,1.41,6.95,1.38,7.33a10,10,0,0,1-1.48,2.94,4.47,4.47,0,0,1-1.2.14c-1.48.06-1,0-.65,1.94.19,1,.35,1.95.51,2.94,0,0-.61,2.26-1,2.47a9.23,9.23,0,0,1-2.54.75c-.23,0-1-.07-1.7-.14-2.66-.25-2.31-.67-.58,1.81.61.87,1.2,1.72,1.33,1.89.26.33,2.15,2.5,2.15,2.5-.51.61-1,1.24-1.51,1.84-1.12,1.37-.87.67-.05,2.12.34.59.61,1.26.33,1.57a11.92,11.92,0,0,1-1.69,1.47s-1.67.14-2.31.26l-1,.19c-1.24.22-.94.05.32,1a28.43,28.43,0,0,1,2.22,1.8c.32.39,2.65,3.47,2.65,3.47.55.73,1.11,1.47,1.65,2.2l-.66,0c-1.21,0-1.24-.2-.47.71l.63.78c.4.67.78,1.33,1.17,2,.14,1.11.27,2.24.41,3.36a29.81,29.81,0,0,1-2.46,1.71c-.36.21-.94.57-1.5,1-1.85,1.23-1.91.81-.26,1.8l1.36.81a10,10,0,0,0,2.58,1,36,36,0,0,1,3.74,1.07c.86.29.2,1.17.2,1.17-.14.24-.25.45-.37.65-.56.89-.7.75.48.81A9.49,9.49,0,0,1,523,258c-.38.24-2.54,1.46-2.33,2.05.1.31,3,1.09,3.41,1.21l2.89.22c.77.15,1.54.27,2.32.4l3.46,1.51c-.41.42-.82.86-1.23,1.3a9,9,0,0,0,2.69-.06c3.13-.82,12.62,6.17,15.56,4.08,8.9-6.34,21,4.11,30.13,3.11"/><path class="cls-2" d="M582.65,269.22l.81,1.71c-11.88,14.33-19,29.62-17.49,48.24.55,6.89,4,11,9.36,18.17,1.08,1.44,2.34,1.83,3.65,3.3-2.31.3-4.63,2.89-6.16,4.71-1-1.05-1.65-3.77-2.52-4.85-17.94-22.42-5.86-52.6,12.35-71.28"/><path class="cls-3" d="M506.67,776.89c132.57,315,397,176,706.26-73.33,273.3-220.35,402-282.77,627.67-380.31,375.57-162.31,831.54-113.49,1182.25,94.38,110.34,65.4,212.9,147,283.58,251.84,115.77,171.67,153.4,409.8,339.44,508.05,84.19,44.47,184.45,50.26,273.24,85.4,141.74,56.11,243.55,185.14,289.94,326.24s42.93,293.42,20,439.81c-9.91,63.28-22.91,130.39,2.87,189.35,17.42,39.83,50.56,70.82,80,103.42,195.28,216.4,235.15,551.32,95.82,804.94"/><ellipse class="cls-4" cx="1941.18" cy="288.98" rx="57.39" ry="38.13" transform="translate(27.39 723.84) rotate(-21.27)"/><ellipse class="cls-4" cx="3501.13" cy="1053.49" rx="38.13" ry="57.39" transform="translate(-104.56 1659.09) rotate(-26.28)"/><ellipse class="cls-4" cx="4411.56" cy="2478.98" rx="38.13" ry="57.39" transform="translate(-544.19 1455.39) rotate(-17.66)"/></svg>