<svg id="Lag_1" data-name="Lag 1" xmlns="http://www.w3.org/2000/svg" viewBox="0 0 613.42 3126.68"><defs><style>.cls-1{fill:none;stroke-width:14.03px;stroke-dasharray:28.06 28.06 28.06 28.06 28.06 28.06;}.cls-1,.cls-5{stroke:#344d3b;}.cls-1,.cls-2,.cls-3,.cls-5{stroke-miterlimit:10;}.cls-2,.cls-3{fill:#6276b8;stroke:#6276b8;}.cls-2{stroke-width:0.25px;}.cls-3{stroke-width:0.2px;}.cls-4,.cls-5{fill:#344d3b;}.cls-5{stroke-width:0.56px;}</style></defs><line class="cls-1" x1="146.98" y1="563.59" x2="146.98" y2="3130.64"/><ellipse class="cls-2" cx="146.98" cy="1532.48" rx="57.39" ry="38.13" transform="translate(-1382.26 1354.93) rotate(-77.9)"/><ellipse class="cls-2" cx="146.98" cy="2971.29" rx="57.39" ry="38.13" transform="translate(-2827.7 3009.53) rotate(-87.9)"/><ellipse class="cls-3" cx="274.12" cy="352.52" rx="46.67" ry="31.01" transform="translate(-145.38 505.57) rotate(-72.17)"/><ellipse class="cls-3" cx="204.43" cy="330.11" rx="46.67" ry="31.01" transform="translate(-172.41 423.68) rotate(-72.17)"/><ellipse class="cls-3" cx="134.75" cy="307.7" rx="46.67" ry="31.01" transform="translate(-199.43 341.78) rotate(-72.17)"/><ellipse class="cls-3" cx="212.84" cy="424.99" rx="46.67" ry="31.01" transform="translate(-256.9 497.51) rotate(-72.17)"/><ellipse class="cls-3" cx="142.25" cy="402.29" rx="46.67" ry="31.01" transform="translate(-284.27 414.56) rotate(-72.17)"/><ellipse class="cls-3" cx="150.74" cy="497.1" rx="46.67" ry="31.01" transform="translate(-368.64 488.43) rotate(-72.17)"/><ellipse class="cls-3" cx="197.68" cy="229.89" rx="46.67" ry="31.01" transform="translate(-81.69 347.71) rotate(-72.17)"/><ellipse class="cls-3" cx="197.68" cy="229.89" rx="46.67" ry="31.01" transform="translate(-81.69 347.71) rotate(-72.17)"/><ellipse class="cls-3" cx="128.25" cy="207.57" rx="46.67" ry="31.01" transform="translate(-108.61 266.12) rotate(-72.17)"/><ellipse class="cls-3" cx="267.86" cy="252.46" rx="46.67" ry="31.01" transform="translate(-54.48 430.18) rotate(-72.17)"/><ellipse class="cls-3" cx="338.03" cy="275.02" rx="46.67" ry="31.01" transform="translate(-27.27 512.64) rotate(-72.17)"/><path class="cls-4" d="M255.49,112.22l.43,1.52c15.19,2.38,28,8,37.22,20.35,3.42,4.57,3.54,9,4.13,16.38.12,1.48-.46,2.4-.46,4,1.6-1.07,4.44-.74,6.39-.44.06-1.21-1.05-3.24-1.09-4.39C301,126,277,113.86,255.49,112.22"/><path class="cls-5" d="M257.72,107.11a20.87,20.87,0,0,1,12.12-4.8,6,6,0,0,1,2.57.48c2.72,1.33,3.13,4.74,8.22,5.92,6.47,1.46,19.56-9,19.56-9h-4.74a110.48,110.48,0,0,0,7.66-23.88,52.08,52.08,0,0,0-7-26.24,39.89,39.89,0,0,1-27.08,20.88s-2.44,1-1.18-1.25a40.87,40.87,0,0,0,5.43-45.87l-3,8.35S256.4,12.51,242.48,7.56l1.32,4.88S220.62,3.67,209,6.17c0,0,17.47,14.69,13.22,23a8.7,8.7,0,0,0-9.54-3.27S226.05,35.69,224.59,45A8.37,8.37,0,0,0,214,41.88s14.89,12.18,9.81,19.84c0,0-1,2.86-4-1.11s-15.45-24.44-15.45-24.44a13.93,13.93,0,0,0-13.92-7l2.37,9.47s-11.28-5.85-15.88-2.16L180.66,40s-41.14,3.76-41.76,19.7c0,0,29.79,7,26.31,20.89,0,0-7-5.36-11.21.41l15.18,10.31a7,7,0,0,0-9.53,2.47,6.79,6.79,0,0,0-.64,1.43S192,98,198.14,106.9c0,0,3.13,1.67-1.19,2.78s-19.35-2-33.41,4.6l7.38,3.62s-20.89,7-24.51,12.18a70.7,70.7,0,0,0,34.32,23.46,15.25,15.25,0,0,1-11.41,5.29c-6.2-.63,11.83,7,23.11,2.3a7.52,7.52,0,0,1-2.07,10.43l-.23.15A39.9,39.9,0,0,0,218,163.36c10.1-9.75,9.05-26.18,12.4-25.62s7.51,28.4,2.22,37.38a44,44,0,0,0,38.64-27.85l2.92,5.57s6.06-15.73-1-23.32a21.4,21.4,0,0,0-12.95-6.26,7.59,7.59,0,0,1-4.94-3,8.9,8.9,0,0,1-.42-7.59Z"/><path class="cls-4" d="M351.79,154.45l-1.5-.47c-10.29,11.44-21.94,19.09-37.36,20.1-5.7.37-9.47-1.94-16-5.48-1.31-.71-1.76-1.69-3.13-2.59,0,1.93-1.8,4.13-3.12,5.6,1,.71,3.29.9,4.27,1.48,20.49,12,43.72-1.51,56.82-18.64"/><path class="cls-5" d="M354.86,159.11a20.91,20.91,0,0,1-2.58,12.77,5.87,5.87,0,0,1-1.82,1.89c-2.59,1.56-5.67,0-9.44,3.66-4.75,4.63-3.08,21.33-3.08,21.33l2.58-4a110.46,110.46,0,0,0,15.83,19.45,52.11,52.11,0,0,0,25.8,8.48,39.84,39.84,0,0,1-2.73-34.09s.45-2.61,1.69-.31A40.88,40.88,0,0,0,416.6,217.9l-5.37-7.07s23.64-1.22,35.37-10.19l-4.8-1.55s20-14.65,24.24-25.76c0,0-21.84,6.63-26.53-1.48a8.71,8.71,0,0,0,7.95-6.21S432,171.53,425,165.21a8.34,8.34,0,0,0,8.39-7.16s-18.33,5.84-22-2.59c0,0-1.86-2.38,3.14-2.78s28.91.38,28.91.38a13.91,13.91,0,0,0,13.42-7.87L447.64,142s11.05-6.27,10.47-12.13l-5,1.25s19.29-36.53,6.27-45.75c0,0-22.09,21.17-31.85,10.66,0,0,8.28-2.91,5.76-9.62l-16.91,7.1a6.94,6.94,0,0,0,2.27-10.64s-20.33,26.13-31.14,26.4c0,0-3.11,1.72-1.69-2.51s12.25-15.12,14.38-30.51l-7.06,4.21s5.56-21.3,3.16-27.18a70.67,70.67,0,0,0-38.39,16,15.28,15.28,0,0,1,1.8-12.46c3.9-4.85-12.29,6.12-14.53,18.12a7.52,7.52,0,0,1-7.62-7.42v-.28a39.93,39.93,0,0,0-8.19,27.89c2.66,13.78,17,21.87,14.71,24.36s-27.9-9.19-32.54-18.52a44,44,0,0,0,2.26,47.57l-6.26-.59s9.88,13.66,20.07,11.9A21.38,21.38,0,0,0,340,152.4a7.57,7.57,0,0,1,5.2-2.51,8.94,8.94,0,0,1,6.59,3.79Z"/></svg>