<?xml version="1.0" encoding="utf-8"?>
<!-- Generator: Adobe Illustrator 26.0.3, SVG Export Plug-In . SVG Version: 6.00 Build 0)  -->
<svg version="1.1" id="Lag_1" xmlns="http://www.w3.org/2000/svg" xmlns:xlink="http://www.w3.org/1999/xlink" x="0px" y="0px"
	 viewBox="0 0 1294.9 1950.9" style="enable-background:new 0 0 1294.9 1950.9;" xml:space="preserve">
<style type="text/css">
	.st0{fill:#721640;}
	.st1{fill:#344D3B;}
	.st2{fill:#FFFFFF;}
</style>
<path class="st0" d="M437.1,904.6c200.8,98.2,442.1,17.2,539-181c26-52.9,39.7-111,40.3-170c0,0,4.1-99.4-69-119
	c0,0-17.8-1.3-22.7,13.6s-40.9,318.3-155.1,301.9c0,0-31.6-18.6-13.7-50.2s86.5-169.7,26.6-231.1c0,0-28.4-12.6-35.5,19.6
	c0,0,28.8,112.8-84.5,203.1s-222.7,45.9-231,41.9s-209.2-92.6-209.8-277.9l1.6-33.9C173.1,603.6,259.1,817.5,437.1,904.6z"/>
<path class="st0" d="M266.2,349.6c2.5-2,5.3-3.7,8.3-4.9c8-3,14-0.9,21.7,0c7.1,0.7,21.7,2.6,32.8-4.5c1.9-1.2,12.5-8.4,12.8-20.2
	c0.4-14.1-14.2-22.3-14.9-22.6c-14.2-7.6-30,0.4-34.9,2.9c-12.3,6.2-18.5,15.7-25.5,26.9c-13.7,21.6-17.3,42.1-16.2,42.7
	C251.1,370.2,254.4,358.4,266.2,349.6z"/>
<path class="st0" d="M234.1,405.2c1.2-1,2.5-1.9,4-2.5c3.4-0.9,7-0.9,10.5,0c5.4,1.1,10.9,0.3,15.8-2.2c3.5-2.1,5.7-5.7,6.2-9.7
	c-0.4-4.5-3-8.5-7-10.7c-6.9-3.7-14.4,0.2-16.8,1.4c-5.3,3-9.5,7.5-12.3,12.9c-4.3,6.1-7,13.2-7.8,20.6
	C228.5,411.3,231,407.9,234.1,405.2z"/>
<path class="st1" d="M576,1650.5c-75.8,96.7-180.8,102.9-189,112.9c-4.7,5.8-5.9,21.7,1.5,22.4h468.1c7.5-0.8,6.3-16.7,1.5-22.4
	c-8.2-10-113.2-16.2-189-112.9c-9.6-12.3-15.5-81.9-18.1-167.6H594C591.5,1568.6,585.6,1638.2,576,1650.5z"/>
<path class="st1" d="M1088.3,416.1C1055.4,303.7,984,209.6,891.2,146.4l18.7-26.4c11.3-16-15-31.1-26.2-15.3l-41,58l24.1,18.3
	c85.1,57.8,150.7,144,180.8,247c33.8,115.8,20.5,237.8-37.5,343.6C963.4,856.7,892.4,923,806.2,963.3c-21.2,9.9-43.1,18.2-65.6,24.8
	c-41.2,12-83.9,18.2-126.8,18.2c-66-0.1-131.2-14.8-190.8-43c-27-12.7-52.6-28-76.6-45.7l-23.2-16.1c-16.8,23.8-26.9,34.7-43.8,58.6
	c-11.3,16,15,31.1,26.2,15.3l16.4-23.1c33.8,24.8,70.5,45.3,109.4,61c45.4,28.7,135.6,68.2,149.3,96.4
	c6.4,20.5,10.9,80.5,13.2,153.4h57.6c2.3-73,6.8-132.9,13.2-153.4c15.3-31.6,145.2-94.8,197.4-127.5
	c77.3-44.7,141.2-109.7,185.3-190.1C1110.7,676.3,1125.2,542.8,1088.3,416.1z"/>
<rect x="1289.2" y="1850.5" class="st2" width="5.7" height="5.7"/>
<g>
	<path class="st0" d="M120.1,1289.2l43.2,120.8l42.8-120.8h32.6L176.3,1449h-26.1l-62.8-159.7L120.1,1289.2z"/>
	<path class="st0" d="M255.8,1449v-159.8h31V1449H255.8z"/>
	<path class="st0" d="M351.1,1346.6V1449h-31v-159.8h24.1l83.2,104.8v-104.6h31V1449h-25.2L351.1,1346.6z"/>
	<path class="st1" d="M575.2,1449l-43.2-60.1l-25.2,23.4v36.7h-15.2v-164.3h15.3v111.6l65.9-64.3h17.3l-47.9,47.9l49.7,69.1H575.2z"
		/>
	<path class="st1" d="M610.8,1284.7h15.3v137.7c0,4.3,1.2,7.8,3.6,10.2c2.4,2.5,5.8,3.7,10.1,3.7c2,0,3.9-0.3,5.8-0.7
		c2.1-0.4,4.3-1,6.3-1.8l2.7,12.4c-3.4,1.4-6.9,2.3-10.5,2.9c-3.5,0.7-7.1,1.1-10.7,1.1c-7,0-12.6-2-16.7-6s-6.1-9.6-6.1-16.8
		L610.8,1284.7z"/>
	<path class="st1" d="M719.9,1451.2c-8.1,0.1-16.1-1.6-23.5-4.8c-7-3.1-13.2-7.6-18.4-13.2c-5.2-5.6-9.3-12.2-12-19.3
		c-5.7-15-5.7-31.6,0.1-46.6c2.8-7.2,6.9-13.7,12.2-19.3c5.2-5.6,11.5-10.1,18.5-13.3c14.8-6.6,31.7-6.6,46.6,0
		c7,3.2,13.2,7.7,18.5,13.3c5.2,5.6,9.3,12.2,12.1,19.3c5.9,15,5.9,31.6,0,46.6c-2.8,7.2-6.9,13.7-12.1,19.3
		c-5.2,5.6-11.5,10-18.5,13.2C735.9,1449.6,727.9,1451.3,719.9,1451.2z M677.4,1390.9c-0.1,6.3,1,12.5,3.3,18.3
		c2.1,5.5,5.1,10.5,9,14.8c3.8,4.2,8.4,7.6,13.5,10c5.2,2.4,10.8,3.6,16.5,3.6c5.7,0,11.4-1.2,16.5-3.7c5.1-2.5,9.8-5.9,13.6-10.1
		c4-4.4,7.1-9.5,9.2-15c4.5-11.9,4.5-24.9,0-36.8c-2.1-5.5-5.2-10.7-9.2-15.1c-3.8-4.2-8.4-7.6-13.5-10.1
		c-5.1-2.5-10.7-3.8-16.4-3.7c-5.7,0-11.4,1.2-16.5,3.7c-5.2,2.5-9.7,5.9-13.5,10.2C681.7,1366.5,677.3,1378.5,677.4,1390.9
		L677.4,1390.9z"/>
	<path class="st1" d="M851.7,1451.2c-7.8,0.1-15.5-1.7-22.5-5.1c-6.8-3.3-12.8-7.8-17.9-13.4c-5.1-5.6-9-12.1-11.7-19.2
		c-2.8-7.3-4.2-15-4.2-22.8c-0.1-8,1.3-16,4-23.5c2.5-7.1,6.3-13.7,11.1-19.5c4.7-5.5,10.4-10,16.9-13.2c6.7-3.3,14-4.9,21.5-4.8
		c9.4-0.2,18.5,2.5,26.3,7.8c7.4,4.9,13.6,11.3,18.2,18.8v-71.5h15.3v144.4c0,4.2,1.8,6.3,5.4,6.3v13.5c-2,0.4-4,0.6-6.1,0.7
		c-3.4,0.1-6.7-1-9.2-3.3c-2.3-1.9-3.6-4.8-3.6-7.8v-12.4c-4.7,7.6-11.2,13.8-19,18.2C868.8,1448.9,860.4,1451.2,851.7,1451.2z
		 M854.9,1437.7c4.2-0.1,8.3-0.8,12.3-2.2c4.2-1.5,8.3-3.6,11.9-6.2c3.6-2.6,6.9-5.7,9.6-9.2c2.6-3.3,4.3-7.2,5-11.4v-36.2
		c-1.6-4.1-3.8-8-6.6-11.4c-2.9-3.5-6.2-6.6-9.9-9.3c-3.6-2.6-7.5-4.8-11.7-6.3c-3.9-1.5-8.1-2.2-12.3-2.2c-6-0.1-11.9,1.3-17.2,4
		c-5.1,2.6-9.6,6.3-13.2,10.8c-3.7,4.5-6.5,9.7-8.4,15.2c-2,5.6-3,11.6-3,17.6c0,12.2,4.5,23.9,12.6,33c3.9,4.3,8.6,7.8,13.8,10.2
		C843.1,1436.5,848.9,1437.8,854.9,1437.7z"/>
	<path class="st1" d="M994.6,1451.2c-16,0.2-31.4-6.4-42.3-18.1c-5.3-5.7-9.4-12.3-12.3-19.4c-3-7.5-4.4-15.5-4.4-23.6
		c-0.1-8,1.4-15.9,4.4-23.3c5.7-14.3,16.7-25.9,30.8-32.2c22.4-10.1,48.6-4.8,65.4,13.2c10.5,11.5,16.3,26.5,16.2,42.1
		c0,1.2-0.1,2.4-0.1,3.6c0,0.8-0.1,1.7-0.3,2.5H951.8c0.7,11.7,5.6,22.8,13.8,31.3c3.8,3.9,8.3,7,13.3,9.1
		c5.1,2.2,10.6,3.3,16.1,3.3c3.9,0,7.7-0.5,11.5-1.6c3.6-1,7.1-2.4,10.3-4.3c3.1-1.8,6-4,8.4-6.6c2.4-2.5,4.4-5.5,5.7-8.7l13.3,3.6
		c-1.8,4.4-4.4,8.4-7.7,11.8c-3.4,3.6-7.2,6.7-11.5,9.2c-4.5,2.7-9.3,4.7-14.4,6.1C1005.5,1450.5,1000,1451.2,994.6,1451.2z
		 M1037.8,1384.2c-0.7-11.6-5.6-22.4-13.8-30.6c-3.9-3.8-8.4-6.7-13.4-8.8c-10.4-4.2-22-4.2-32.4,0c-5,2-9.5,5-13.4,8.8
		c-3.9,3.9-7,8.5-9.2,13.5c-2.4,5.4-3.8,11.2-4.2,17.1H1037.8z"/>
	<path class="st1" d="M1173.9,1449h-15.3v-65.5c0-13.9-2-24.1-6.1-30.4c-4.1-6.3-10.3-9.5-18.9-9.5c-4.6,0-9.2,0.9-13.5,2.5
		c-4.5,1.7-8.8,4-12.6,7c-3.9,3-7.4,6.6-10.2,10.7c-2.9,4.1-5.1,8.6-6.6,13.4v71.7h-15.3v-117.3h14v26.6c2.4-4.2,5.4-8.1,8.9-11.6
		c3.5-3.5,7.5-6.6,11.8-9.1c4.3-2.5,9-4.5,13.8-5.8c4.9-1.4,10.1-2,15.2-2c6.6,0,12.1,1.2,16.5,3.6c4.4,2.4,8.1,5.9,10.7,10.1
		c2.9,4.9,4.9,10.4,5.8,16c1.3,6.9,1.9,13.9,1.8,20.9L1173.9,1449z"/>
</g>
</svg>
