<svg id="Lag_1" data-name="Lag 1" xmlns="http://www.w3.org/2000/svg" viewBox="0 0 840.19 533.45"><defs><style>.cls-1{fill:#c0b498;}.cls-2{fill:#aa9f88;}.cls-3{fill:#721540;}.cls-4{fill:#fff;}.cls-5{fill:#5b7a62;}.cls-6,.cls-7{fill:#344d3b;}.cls-7{stroke:#344d3b;stroke-miterlimit:10;stroke-width:0.27px;}</style></defs><path class="cls-1" d="M780.54,128.52V66.09c0-7.78-10.81-14.08-24.15-14.08H666.64c-1.77-13-115.95-23.42-256.55-23.42S155.31,39.05,153.53,52H63.77c-13.34,0-24.15,6.3-24.15,14.08v62.09c27.28,0,26.19,49,26.19,133.29S66.9,392.19,39.62,392.19v64.66c0,7.77,10.81,14.07,24.15,14.07H154c7.92,12.44,119.56,22.31,256.13,22.31s248.2-9.87,256.12-22.31h90.18c13.34,0,24.15-6.3,24.15-14.07v-65c-25.74-5.24-24-49.54-24-130.37S754.8,133.76,780.54,128.52Z"/><path class="cls-2" d="M770,121.22V75.53c0-7.16-10.5-13-23.46-13H659.31C657.58,50.63,546.68,41,410.09,41S162.6,50.63,160.86,62.57H73.68c-13,0-23.46,5.8-23.46,13V120.9c26.5,0,25.44,62.91,25.44,140.52S76.72,402,50.22,402v45.36c0,7.16,10.5,13,23.46,13h87.6c7.7,11.47,116.15,20.56,248.81,20.56s241.1-9.09,248.8-20.56h87.6c13,0,23.46-5.8,23.46-13V401.63c-25-4.83-23.36-65.75-23.36-140.21S744.94,126,770,121.22Z"/><path class="cls-1" d="M745.49,117.72V85.16c0-6.76-9.79-12.25-21.86-12.25H642.37c-1.62-11.29-105-21.57-232.28-21.57S179.43,61.62,177.81,72.91H96.55c-12.08,0-21.87,5.49-21.87,12.25v32.26c24.7,0,22.18,70.06,22.18,143.39S99.38,403,74.68,403v33.44c0,6.77,9.79,12.25,21.87,12.25H178.2c7.17,10.84,108.25,21.78,231.89,21.78S634.8,459.54,642,448.7h81.65c12.07,0,21.86-5.48,21.86-12.25V402.71c-23.31-4.55-20.32-71.55-20.32-141.9S722.18,122.28,745.49,117.72Z"/><path class="cls-3" d="M565.15,385.5h2.9L571.44,406h-2.27l-.58-3.92h-3.73l-.53,3.92H562Zm0,14.65h3.15l-1.62-10.85h0Z"/><path class="cls-3" d="M573.89,385.5h2.42V404h3.79v2h-6.21Z"/><path class="cls-3" d="M581.77,391.43a11.47,11.47,0,0,1,.38-3.44,5,5,0,0,1,.84-1.61,3.72,3.72,0,0,1,2.89-1.13,3.26,3.26,0,0,1,3.43,2.35,11.5,11.5,0,0,1,.45,3.57v2.27h-2.37v-2.28a10.31,10.31,0,0,0-.22-2.67,1.7,1.7,0,0,0-.52-.92,1.26,1.26,0,0,0-.77-.23,1.34,1.34,0,0,0-1.33.91,8.29,8.29,0,0,0-.37,2.9V400a11.1,11.1,0,0,0,.33,3.27,1.28,1.28,0,0,0,1.29.92,1.24,1.24,0,0,0,1.27-.93,11.56,11.56,0,0,0,.32-3.27v-2.27h2.39V400a9.81,9.81,0,0,1-.88,4.75,3.23,3.23,0,0,1-3.07,1.52,3.33,3.33,0,0,1-3.13-1.57,9.45,9.45,0,0,1-.93-4.72Z"/><path class="cls-3" d="M593,403.72h2V406h-2Z"/><path class="cls-3" d="M606.9,385.49h1.7V406h-2.41v-17.3a2.52,2.52,0,0,1-1.11.74,4.09,4.09,0,0,1-1.43.26v-1.68a4,4,0,0,0,1.88-.8A4.21,4.21,0,0,0,606.9,385.49Z"/><path class="cls-3" d="M614.42,385.49h1.71V406h-2.41v-17.3a2.62,2.62,0,0,1-1.12.74,4,4,0,0,1-1.42.26v-1.68a4.09,4.09,0,0,0,1.88-.8A4.19,4.19,0,0,0,614.42,385.49Z"/><path class="cls-3" d="M619.54,403.29h3v2.63L621.37,410h-1.23l.85-4h-1.45Z"/><path class="cls-3" d="M627.45,392.46c.28-.54.95-.82,2-.82h0a2,2,0,0,1,1.41.56c.84.76,1.27,2.77,1.27,6A35,35,0,0,1,632,403a11.66,11.66,0,0,1-.37,1.46c-.41,1.23-1.41,1.84-3,1.84-2.39,0-3.58-1.3-3.58-3.92v-2.26h2.33v2.27a2.89,2.89,0,0,0,.27,1.38,1,1,0,0,0,1,.5,1.05,1.05,0,0,0,1-.48,3,3,0,0,0,.3-1.52V396.1a4.63,4.63,0,0,0-.27-1.83,1,1,0,0,0-.92-.59c-.9,0-1.36.73-1.36,2.19l-2.07-.19V385.5h6.45v2.17h-4.25Z"/><path class="cls-3" d="M635.77,390.12a6.63,6.63,0,0,1,.79-3.8,4.25,4.25,0,0,1,5.66,0,6.63,6.63,0,0,1,.79,3.8v4.14a6.92,6.92,0,0,1-.8,3.88,4.14,4.14,0,0,1-5.64,0,6.92,6.92,0,0,1-.8-3.88Zm5.07-.81a3.43,3.43,0,0,0-.3-1.72,1.65,1.65,0,0,0-2.31,0,3.46,3.46,0,0,0-.31,1.72v5.79a3.57,3.57,0,0,0,.32,1.78,1.22,1.22,0,0,0,1.14.49,1.24,1.24,0,0,0,1.15-.49,3.59,3.59,0,0,0,.31-1.78Zm9-3.81h2L643.64,406h-2.08Zm.48,11.63a6.56,6.56,0,0,1,.8-3.8,4.23,4.23,0,0,1,5.65,0,6.64,6.64,0,0,1,.8,3.8v4.14a6.82,6.82,0,0,1-.81,3.88,4.12,4.12,0,0,1-5.63,0,6.82,6.82,0,0,1-.81-3.88Zm5.09-.8a3.32,3.32,0,0,0-.31-1.73,1.27,1.27,0,0,0-1.15-.47,1.3,1.3,0,0,0-1.16.47,3.5,3.5,0,0,0-.3,1.73v5.78a3.57,3.57,0,0,0,.31,1.78,1.58,1.58,0,0,0,2.29,0,3.54,3.54,0,0,0,.32-1.78Z"/><path class="cls-3" d="M162.63,385.49h8.19v1.74a21.33,21.33,0,0,1-.68,2c-.44,1.23-.83,2.49-1.19,3.78a59.6,59.6,0,0,0-2.31,13h-2.58a61.73,61.73,0,0,1,2.8-13.79c.49-1.62.88-2.81,1.17-3.56s.45-1.14.45-1.16h-5.85Z"/><path class="cls-3" d="M175.62,392.46c.28-.54.95-.82,2-.82h0a2,2,0,0,1,1.41.56q1.28,1.14,1.27,6a35,35,0,0,1-.18,4.72,11.93,11.93,0,0,1-.36,1.46c-.41,1.23-1.42,1.84-3,1.84-2.38,0-3.58-1.3-3.58-3.92v-2.26h2.33v2.27a2.76,2.76,0,0,0,.28,1.38,1,1,0,0,0,1,.5,1.07,1.07,0,0,0,1-.48,3.14,3.14,0,0,0,.29-1.52V396.1a4.63,4.63,0,0,0-.27-1.83.94.94,0,0,0-.92-.59q-1.35,0-1.35,2.19l-2.08-.19V385.5h6.45v2.17h-4.25Z"/><path class="cls-3" d="M183.3,390.68a7.75,7.75,0,0,1,.86-4.08q.85-1.35,3.27-1.35c1.6,0,2.7.45,3.28,1.34a7.66,7.66,0,0,1,.87,4.09v9.81a8.86,8.86,0,0,1-.84,4.31q-.84,1.47-3.3,1.47c-1.64,0-2.73-.49-3.3-1.46a8.85,8.85,0,0,1-.84-4.32Zm5.88-.13c0-2-.42-3.06-1.27-3.21a4,4,0,0,0-.57,0,2,2,0,0,0-.72.13,1.49,1.49,0,0,0-.63.83,6.51,6.51,0,0,0-.28,2.27v10.1c0,1.85.22,3,.68,3.31a1.32,1.32,0,0,0,.85.28,4,4,0,0,0,.71,0,1,1,0,0,0,.47-.24c.51-.38.76-1.5.76-3.32V390.55Z"/><path class="cls-3" d="M209.08,385.5h3V406H210v-8.24l.2-7.67L207.37,406h-2.18l-2.91-15.87.2,7.67V406h-2.13V385.5h3l2.94,16.88Z"/><path class="cls-3" d="M215.46,385.5h2.42V404h3.79v2h-6.21Z"/><path class="cls-4" d="M355.76,358.22V369H338.08v55.62H324.77V369H307.08V358.22Z"/><path class="cls-4" d="M399.68,424.58,385,398.72h-6.28v25.86H365.45V358.22h24.91a29.17,29.17,0,0,1,13.12,2.71,19,19,0,0,1,8.13,7.32,20.05,20.05,0,0,1,2.71,10.32,19.73,19.73,0,0,1-3.81,11.83q-3.79,5.28-11.31,7.27l15.88,26.91Zm-20.92-35.84h11.12q5.43,0,8.08-2.62a9.69,9.69,0,0,0,2.67-7.27,9.26,9.26,0,0,0-2.67-7.08q-2.65-2.52-8.08-2.52H378.76Z"/><path class="cls-4" d="M439.7,358.22v66.36H426.39V358.22Z"/><path class="cls-4" d="M509.57,424.58H496.26L466.12,379v45.54h-13.3V358.13h13.3l30.14,45.63V358.13h13.31Z"/><path class="cls-5" d="M320.25,279.63V244.77L423.87,96.47h51.65V241h27.89v38.66H475.52v45H431.16v-45ZM434,144l-65,97h65Z"/><path class="cls-6" d="M573.54,276l-.74-.22c-5,5.57-10.69,9.3-18.21,9.79-2.78.19-4.62-.94-7.79-2.67-.64-.34-.86-.82-1.53-1.26,0,.94-.88,2-1.52,2.73.48.35,1.61.44,2.09.72,10,5.84,21.31-.74,27.7-9.09"/><path class="cls-7" d="M575,278.27a10.09,10.09,0,0,1-1.26,6.22,2.9,2.9,0,0,1-.88.93c-1.26.75-2.77,0-4.6,1.78-2.32,2.25-1.51,10.4-1.51,10.4l1.26-1.94a54.52,54.52,0,0,0,7.72,9.48,25.42,25.42,0,0,0,12.57,4.14A19.48,19.48,0,0,1,587,292.66s.22-1.27.83-.15a19.92,19.92,0,0,0,17.3,14.42l-2.62-3.45s11.53-.6,17.25-5l-2.35-.76s9.75-7.13,11.82-12.55c0,0-10.65,3.23-12.93-.72a4.25,4.25,0,0,0,3.87-3s-7.53,2.87-11-.21a4.08,4.08,0,0,0,4.1-3.49s-8.94,2.85-10.72-1.26c0,0-.91-1.16,1.53-1.36s14.09.19,14.09.19a6.81,6.81,0,0,0,6.55-3.84l-4.5-1.55s5.39-3.05,5.1-5.91l-2.42.61s9.41-17.81,3.06-22.31c0,0-10.77,10.32-15.53,5.2,0,0,4-1.42,2.81-4.69L605,246.29a3.4,3.4,0,0,0,1.52-4.55,3.31,3.31,0,0,0-.41-.64S596.23,253.84,591,254c0,0-1.51.83-.82-1.23s6-7.37,7-14.87l-3.44,2.05s2.71-10.38,1.54-13.25a34.43,34.43,0,0,0-18.71,7.78,7.42,7.42,0,0,1,.87-6.07c1.9-2.36-6,3-7.09,8.83a3.66,3.66,0,0,1-3.71-3.61v-.14a19.45,19.45,0,0,0-4,13.6c1.3,6.71,8.29,10.66,7.17,11.87s-13.6-4.48-15.86-9A21.45,21.45,0,0,0,555,273.1l-3-.28s4.81,6.65,9.78,5.8a10.49,10.49,0,0,0,6-3.62,3.69,3.69,0,0,1,2.53-1.23,4.33,4.33,0,0,1,3.21,1.85Z"/><path class="cls-6" d="M246.63,276l.74-.22c5,5.57,10.69,9.3,18.21,9.79,2.77.19,4.61-.94,7.79-2.67.63-.34.86-.82,1.53-1.26,0,.94.87,2,1.51,2.73-.47.35-1.6.44-2.08.72-10,5.84-21.31-.74-27.7-9.09"/><path class="cls-7" d="M245.14,278.27a10.15,10.15,0,0,0,1.25,6.22,3,3,0,0,0,.89.93c1.26.75,2.77,0,4.6,1.78,2.32,2.25,1.51,10.4,1.51,10.4l-1.26-1.94a54.52,54.52,0,0,1-7.72,9.48,25.42,25.42,0,0,1-12.58,4.14,19.41,19.41,0,0,0,1.33-16.62s-.22-1.27-.82-.15A19.93,19.93,0,0,1,215,306.93l2.62-3.45s-11.53-.6-17.25-5l2.34-.76s-9.75-7.13-11.81-12.55c0,0,10.64,3.23,12.93-.72a4.24,4.24,0,0,1-3.87-3s7.53,2.87,10.95-.21a4.07,4.07,0,0,1-4.09-3.49s8.94,2.85,10.72-1.26c0,0,.9-1.16-1.53-1.36s-14.1.19-14.1.19a6.79,6.79,0,0,1-6.54-3.84l4.5-1.55s-5.39-3.05-5.11-5.91l2.42.61s-9.4-17.81-3.05-22.31c0,0,10.76,10.32,15.53,5.2,0,0-4-1.42-2.81-4.69l8.24,3.46a3.39,3.39,0,0,1-1.52-4.55,3.31,3.31,0,0,1,.41-.64s9.91,12.74,15.18,12.88c0,0,1.52.83.83-1.23s-6-7.37-7-14.87l3.44,2.05s-2.71-10.38-1.54-13.25a34.43,34.43,0,0,1,18.71,7.78,7.42,7.42,0,0,0-.87-6.07c-1.91-2.36,6,3,7.08,8.83a3.66,3.66,0,0,0,3.72-3.61.61.61,0,0,0,0-.14,19.45,19.45,0,0,1,4,13.6c-1.3,6.71-8.29,10.66-7.17,11.87s13.6-4.48,15.86-9a21.45,21.45,0,0,1-1.1,23.19l3.05-.28s-4.82,6.65-9.79,5.8a10.43,10.43,0,0,1-6-3.62,3.69,3.69,0,0,0-2.54-1.23,4.34,4.34,0,0,0-3.21,1.85Z"/></svg>