<svg id="Layer_1" data-name="Layer 1" xmlns="http://www.w3.org/2000/svg" viewBox="0 0 624 624"><defs><style>.cls-1{fill:#5a3911;}.cls-2{fill:#c1b498;stroke:#5a3911;stroke-width:6px;}.cls-2,.cls-3,.cls-5,.cls-6{stroke-miterlimit:10;}.cls-3,.cls-5,.cls-6{fill:none;stroke:#721640;stroke-linecap:round;}.cls-3{stroke-width:16px;}.cls-4{fill:#721640;}.cls-5{stroke-width:29px;}.cls-6{stroke-width:21px;}</style></defs><ellipse class="cls-1" cx="311.22" cy="133.03" rx="170.43" ry="18.17"/><path class="cls-2" d="M149.56,514.67H148V131.12c4.34-1.91,13-3.7,25-5.27V507.59C160.93,509.7,152.78,512.1,149.56,514.67Z"/><path class="cls-2" d="M228.69,501.79V121.45c-19.49,1-36.5,2.32-50,3.88V506.9C191.92,504.84,209,503.1,228.69,501.79Z"/><path class="cls-2" d="M315,119.21H290V498.78c8.23.11,16.65.16,25.21.16s16.7-.05,24.79-.15V119.21H315Z"/><path class="cls-2" d="M248.41,500h-13.5V120.48c15.4-.72,32.22-1.24,50-1.52v379.8C272.18,499,260,499.43,248.41,500Z"/><path class="cls-2" d="M345.91,499.77V120c17.79.28,34.61.8,50,1.52V501h-14C370.51,500.44,358.46,500,345.91,499.77Z"/><path class="cls-2" d="M403.66,503.79V123.45c19.5,1,36.5,2.32,50,3.88V508.9C440.43,506.84,423.4,505.1,403.66,503.79Z"/><path class="cls-2" d="M471.53,518.23c-2-2.52-7-4.89-14.29-7V129.44c7.59,1.57,13,3.35,15.67,5.27V518.23Z"/><path class="cls-2" d="M145.57,135.51H144V519.05c4.34,1.92,13,3.7,25,5.28V142.59C156.94,140.48,148.79,138.08,145.57,135.51Z"/><path class="cls-2" d="M175,143.57V525.06c13.53,1.55,30.53,2.87,50,3.86V148.61C205.28,147.32,188.25,145.6,175,143.57Z"/><path class="cls-2" d="M244,149.68h-13.5V529.19c15.4.71,32.22,1.23,50,1.51V150.9C267.75,150.65,255.52,150.23,244,149.68Z"/><path class="cls-2" d="M311,151.21H286V530.78c8.23.11,16.65.16,25.21.16s16.7-.05,24.79-.15V151.21H311Z"/><path class="cls-2" d="M342.07,150.89V530.7c17.79-.28,34.61-.8,50-1.52V149.68h-14C366.66,150.22,354.62,150.63,342.07,150.89Z"/><path class="cls-2" d="M397.9,148.55V528.9c19.5-1,36.5-2.32,50-3.89V143.44C434.67,145.5,417.63,147.24,397.9,148.55Z"/><path class="cls-2" d="M476.46,135.51c-3.17,2.53-11.1,4.89-22.8,7V524.3c12.11-1.57,20.75-3.35,25-5.27V135.51Z"/><path class="cls-3" d="M480.9,326.3C480.9,337.2,404.84,346,311,346S141.12,337.2,141.12,326.3"/><path class="cls-3" d="M480.9,184.78c0,10.9-76.06,19.73-169.89,19.73s-169.89-8.83-169.89-19.73"/><path class="cls-3" d="M480.9,138.17c0,10.9-76.06,19.73-169.89,19.73s-169.89-8.83-169.89-19.73"/><path class="cls-3" d="M480.9,456.73c0,10.9-76.06,19.73-169.89,19.73s-169.89-8.83-169.89-19.73"/><path class="cls-3" d="M480.9,514.44c0,10.9-76.06,19.73-169.89,19.73s-169.89-8.83-169.89-19.73"/><path class="cls-3" d="M481.61,139.3c0-10.9-76.06-19.73-169.89-19.73S141.83,128.4,141.83,139.3"/><path class="cls-4" d="M141.12,615.3V522.11a7.44,7.44,0,0,1,9.8-7.05L188,527.49a7.42,7.42,0,0,1,4.39,10.14L155.31,618.4C152,625.65,141.12,623.28,141.12,615.3Z"/><path class="cls-4" d="M483.21,615.3V522.11a7.43,7.43,0,0,0-9.79-7.05l-37.09,12.43a7.43,7.43,0,0,0-4.39,10.14L469,618.4C472.35,625.65,483.21,623.28,483.21,615.3Z"/><line class="cls-5" x1="311.01" y1="151.21" x2="311.01" y2="19.16"/><line class="cls-6" x1="255.48" y1="48.69" x2="362.64" y2="48.69"/></svg>