<svg xmlns="http://www.w3.org/2000/svg" viewBox="0 0 277.8 277.81"><defs><style>.cls-1{fill:#721640;}</style></defs><g id="Layer_11" data-name="Layer 11"><path class="cls-1" d="M175.15,25.31c.81.46.71-.06.87-.07C174.58,24.61,175.13,25.42,175.15,25.31Z"/><path class="cls-1" d="M160.67,20l.31-.06c-.75-.14-1.51-.27-2.27-.37C159.37,19.65,160,19.79,160.67,20Z"/><path class="cls-1" d="M146.9,15.9c1.16,1,5.09,1.09,7.47,2.11l.35.27,1.28-.21C153,17.2,149,16.57,146.9,15.9Z"/><path class="cls-1" d="M139.62,12.93c.43.37-1.69,0,1.77.4a2.92,2.92,0,0,1-.31-.13C140.77,13.15,140.34,13.08,139.62,12.93Z"/><path class="cls-1" d="M141.08,13.2c1.51.24-1-.4,0,0Z"/><path class="cls-1" d="M134.05,12.39l2,0c-.39-.2-2.18-.44-1.5-.48C132.5,11.79,132.91,12,134.05,12.39Z"/><path class="cls-1" d="M132.1,12.71c.35,0,.7,0,1.05,0A1.51,1.51,0,0,0,132.1,12.71Z"/><path class="cls-1" d="M135.37,12.73l-2.22,0c.28.15.28.38,1,0C134,12.93,134.42,12.78,135.37,12.73Z"/><path class="cls-1" d="M136.6,13c1.09.31,2.52.61.49.58C140.9,14,140.42,13.43,136.6,13Z"/><path class="cls-1" d="M146,16.46l1.4.54,1.3.06C148.08,17,146,16.21,146,16.46Z"/><path class="cls-1" d="M121.52,11.34c-.13.15.68.42.83.61l1.48-.15C123.07,11.69,121.62,11.57,121.52,11.34Z"/><path class="cls-1" d="M122.35,12c-.75.07-1.49.18-2.22.29C122.11,12.21,122.47,12.14,122.35,12Z"/><path class="cls-1" d="M131.68,13.48c1.22-.1,2.43-.12,3.66-.18-1.46,0-2.91,0-4.36.13Z"/><polygon class="cls-1" points="112.99 11.67 114.24 11.22 112.02 11.93 112.99 11.67"/><path class="cls-1" d="M107.37,12.28c.9-.41-1.34-.33-.38-.63a19.33,19.33,0,0,0-3.93,1.07A15.11,15.11,0,0,1,107.37,12.28Z"/><path class="cls-1" d="M101.16,13.39c.6-.18,1.22-.41,1.9-.67A14.28,14.28,0,0,0,101.16,13.39Z"/><path class="cls-1" d="M116.35,12.26a3.22,3.22,0,0,0-1.77-.34l.89.36C115.74,12.26,116,12.27,116.35,12.26Z"/><path class="cls-1" d="M115.5,12.29h0l-1.88.12Z"/><path class="cls-1" d="M116.57,12.26h-.22A.2.2,0,0,0,116.57,12.26Z"/><path class="cls-1" d="M125.93,12.73c-1.31.17-4,.42-1.41.81C125.46,13.28,124,13,125.93,12.73Z"/><path class="cls-1" d="M117.67,12.76l2.35,0c0-.11-.48-.27.16-.4Z"/><polygon class="cls-1" points="116.53 12.93 117.67 12.76 116.8 12.75 116.53 12.93"/><path class="cls-1" d="M105.22,13.14c-1,.29-2.08.51-3.31.76l2-.26,2-.23C106.11,13.25,106.66,12.94,105.22,13.14Z"/><path class="cls-1" d="M110.21,12.65l-.22,0C110.13,12.71,110.25,12.72,110.21,12.65Z"/><path class="cls-1" d="M89.84,16.65l.21,0a.32.32,0,0,1,0-.09Z"/><path class="cls-1" d="M106.18,13.46a6.66,6.66,0,0,0,2.15-.43c-.74.14-1.54.27-2.39.38C105.87,13.48,105.86,13.52,106.18,13.46Z"/><path class="cls-1" d="M97.78,14.22l1.78-.1A4.54,4.54,0,0,0,97.78,14.22Z"/><path class="cls-1" d="M109.64,12.6a.66.66,0,0,1,.15,0C109.45,12.51,109.49,12.56,109.64,12.6Z"/><path class="cls-1" d="M109.64,12.6c-.51.13-.91.29-1.31.43.61-.1,1.17-.24,1.66-.34A2.21,2.21,0,0,1,109.64,12.6Z"/><path class="cls-1" d="M87.08,20.33c0-.47,2.44-1.54,4.73-1.74,2-.89.35-1.76-1.76-1.92,0,.18,0,.34-2.14,1.19.85,0,5.07-.91,3.29,0-2.87,1-2.44.53-3.92.77,1.34.06-3.45,1.92-2.58,2.39l2.43-1.09C87.21,20,86.36,20.47,87.08,20.33Z"/><path class="cls-1" d="M94.35,15.58l.92-.27a26.92,26.92,0,0,1-3.36.26c-1.49.63-1.76.86-1.83,1,1.51-.42,3-.83,4.57-1.14Z"/><path class="cls-1" d="M99.47,14.4c-.66.52-2.85,1.23-1.39,1.37,2.73-.56,1.85-.71,3.46-1.2-4.43.9,1.24-.46-2-.13.86-.23,1.64-.39,2.39-.54-.82.09-1.6.17-2.35.22h.12c.21,0,.28,0,0,0l-.09,0a.5.5,0,0,1-.17.2c-1.31.14-.22-.07.17-.2,0,0,0,0,0-.07h0c-1.49.31-2.94.78-4.4,1.18C96.23,15.18,97.38,14.82,99.47,14.4Z"/><path class="cls-1" d="M122.12,14.43c-.14,0-.13-.07-.14-.1C121.69,14.38,121.58,14.41,122.12,14.43Z"/><path class="cls-1" d="M120.28,14.2a4.15,4.15,0,0,1,1.66-.22c.91.15,0,.21,0,.35.63-.1,2.23-.27.23-.51l-.31,0a14.17,14.17,0,0,1-3.83-.66A6.61,6.61,0,0,0,120.28,14.2Z"/><path class="cls-1" d="M109.8,13.92l-3.69.69,1.93.13-.12-.21C110,14.35,109.55,14.13,109.8,13.92Z"/><polygon class="cls-1" points="89.36 16.56 89.72 15.98 87.79 17.2 89.36 16.56"/><polygon class="cls-1" points="84.68 18.08 84.72 17.65 83.57 18.29 84.68 18.08"/><path class="cls-1" d="M77.31,229l1,.34A10.68,10.68,0,0,0,77.31,229Z"/><path class="cls-1" d="M70.37,225.67l-.26.09C70.48,225.82,70.64,225.82,70.37,225.67Z"/><path class="cls-1" d="M8.31,104.75c-.65,1.53-1.54,3.23-1.06,3.11l.51-.42A14.45,14.45,0,0,1,8.31,104.75Z"/><path class="cls-1" d="M23.45,183.5l-.12-.47-.9-.72Z"/><path class="cls-1" d="M25.55,183.56l.8,1.93C26.19,185,26,184.42,25.55,183.56Z"/><path class="cls-1" d="M118.22,237.72l1.25-.41C117.54,237.26,118.38,237.5,118.22,237.72Z"/><path class="cls-1" d="M42,44.09a23.28,23.28,0,0,0-2.69,2.25C40.62,45.3,41.9,44.67,42,44.09Z"/><path class="cls-1" d="M72.58,232c.66.21,1,.25,1,.15C72.89,231.88,72.5,231.79,72.58,232Z"/><path class="cls-1" d="M36.48,49.27l.59-.47a32.52,32.52,0,0,1,2.2-2.46A11.34,11.34,0,0,0,36.48,49.27Z"/><path class="cls-1" d="M229.47,151.63a2.52,2.52,0,0,1,.13-.33C229.55,151.25,229.51,151.4,229.47,151.63Z"/><path class="cls-1" d="M234.58,106.62c.1.44.25,1.17.36,1.86A12.43,12.43,0,0,0,234.58,106.62Z"/><path class="cls-1" d="M66.43,25.8c.91-.5.12-.12,0,0Z"/><path class="cls-1" d="M71.71,25c-.18.14-.3.28-.28.38A.74.74,0,0,1,71.71,25Z"/><path class="cls-1" d="M31.93,58.88l-.06.07C32.13,58.76,32.08,58.79,31.93,58.88Z"/><path class="cls-1" d="M67.92,25.25c-.38.14-.8.3-1.25.5C66.88,25.68,67.26,25.53,67.92,25.25Z"/><path class="cls-1" d="M67.63,25.17l.84-.38C68.55,24.67,68.43,24.68,67.63,25.17Z"/><path class="cls-1" d="M65.17,26.54a15.59,15.59,0,0,1,1.5-.79c-.2.07-.29.09-.24.05Z"/><path class="cls-1" d="M185.66,219.08l.2-.09C186.59,218.25,186.24,218.53,185.66,219.08Z"/><path class="cls-1" d="M10.65,131.62l0-.11v.15Z"/><path class="cls-1" d="M11.16,135.2a6.76,6.76,0,0,1-.57-1.89,10.13,10.13,0,0,1,0-1.65l-1.22,1.25C9.94,133.69,10.57,134.45,11.16,135.2Z"/><path class="cls-1" d="M94.82,234.86c-.79-.3-1.56-.67-2.33-1,1.53.13,2.83.3,3.46.35s.61,0-.46-.57c-.16.3-.85.36-1.77.2s-2.1-.47-3.28-.79l-1.73-.46c-.55-.17-1.07-.31-1.52-.42-.92-.2-1.6-.25-1.79,0l-1.48-.8c.44.16.54.11,1,.27a4.51,4.51,0,0,0-2.82-.8,7.07,7.07,0,0,1-3.6-.81c-1.3-.68-2.13-1.29-1.17-1l-3.09-1c-.85-.41-.54-.53.31-.12-1.53-.62-3-1.41-4.47-2.11h0c-.37-.07-.94-.21-1.53-.37s-1.14-.38-1.52-.51c-1-.8.62.19.43-.12l-2.55-1.09c-.79-.86,1.35,0,3,1a3.54,3.54,0,0,0-2.19-1.77,11,11,0,0,1-1.67-.74,17.4,17.4,0,0,1-2.56-1.89l2.26,1.24a8.38,8.38,0,0,0-2.05-2l-1.38-1c-.47-.4-1-.85-1.49-1.36.21.28,1.19,1.42,1.87,2.19s1,1.37-.39.71a14.65,14.65,0,0,0-3-1.92c.28-.42-1.09-1.17-2.65-2.36l.49-.42c-1.76-1.16-1.84-.8-3-1.34a6.16,6.16,0,0,1-1.61-1.78,3.77,3.77,0,0,1-.36-1.14c-2.77-2.54,1.44,2.3-2-.53-1.12-1.09-2.05-2.05-3.14-2.95-.54-.46-1.11-.92-1.73-1.41l-2-1.67c-1.36-1.75.55,0,.14-.69l-1.72-1.06c-.32-.36-.1-.35,0-.35-1.24-1.09-.56.34-2.4-1.51-.49,0-1.19-1.2-2-2.63A14.75,14.75,0,0,0,32.16,194c-.32-.75.53.08.59-.26l-2.69-3c-.6-.62-1.14-1.15-2.4-2.5l-1.31-2.82c.4,1.08.1,1.09-.54.58a24.7,24.7,0,0,1-2.36-2.57c.2.82.37,1.53.53,2l-2.36-3.41c-.16-.49.24-.23.81.23l-.51-.58c-.46-1.43.19-.91,1-.17l.39,1.47c.84.69,1.68,1.29,1.9.91a7.74,7.74,0,0,1-.81-1.06c.22.17.39.27.38.13s-.34-.44-.82-.94l.17-1.14-.36-.06-2-4.9c-1.13-1.55-2.24-3-3.46-4.71-.56-.88-1.13-1.84-1.72-2.92-.3-.55-.6-1.12-.9-1.74s-.56-1.28-.84-2c1,1.26.91,0,1.52-.1a4.12,4.12,0,0,0,.25,1.47,17.71,17.71,0,0,0,.79,1.7,41.77,41.77,0,0,1,1.91,4c-.6-1.5-.15-1.31.08-1l-2.58-4.94c.52-.06,0-1.25-.28-2.68-.3.68-.79-.25-1.34-1.61s-1-3.18-1.47-4.23c.28-.22.76.21,1.44,2.88A5.7,5.7,0,0,0,14,156.87a8.72,8.72,0,0,1-.79-1.38,5.52,5.52,0,0,1-.36-1.89c.16.66.2,1,.42,1.25-.64-1.47-1.28-5.29-.79-4.46l.16.65c-.26-1.09-.44-2.49-.72-4-.14-.73-.29-1.49-.43-2.24s-.25-1.51-.37-2.23c-.24-1.45-.51-2.77-.75-3.78A3.91,3.91,0,0,0,9.73,137a3.35,3.35,0,0,1,1.25.75l-1.73-3.88c-.55-1.32-1-2.65-1.55-4,.74.68,2.42-2,2.92,1.65a22,22,0,0,0-.11-4.61c-.14.72-1,1.81-1.14.81a42.09,42.09,0,0,0,1.26-5.23c-.17,1.08-1.36-.18-1.16-1.91.15.28,1.14-.08,1.21.56l-.79-4.37c.12,1.09.92.27,1.33-.64-.28.41.48-3.66.52-4.8l-.49,1.76a14,14,0,0,0,0-4.86,16.32,16.32,0,0,1-.21-2,11.5,11.5,0,0,1,0-1.28,15.55,15.55,0,0,1,.31-1.58c.09.62,1.07,1.69,1.76-.65A29,29,0,0,1,12.35,99a19.4,19.4,0,0,1,.15-6.09l.58-.69.71-3.29c.08,1.14.07,3.23,0,5.4s0,4.49,0,6.07c.7-1.68.5-.38,1.2-3,.55-.83.05,1.54-.15,2.3l.95-3c.31-1,.62-2,1-3-.72.07.88-4.75.31-4.71-.29,1.11-.52,2.24-.78,3.35s-.54,2.21-.71,3.35c-.35,0-.58-1.06-.41-2.68a19.45,19.45,0,0,1,1.46-5.88c.67-1,.8,1.23,1.05,1.21A17.57,17.57,0,0,1,19.22,84c-.15.62-.25,1.26-.38,1.89a16.39,16.39,0,0,0,1.06-3.17,9,9,0,0,1,1.55-3.36c.51-.9,2.17-2.34,1.9-2.68-1.45,1.13-3.73.39-3.72-.9.11-.15.9-1.31,1.79-2.53a35.82,35.82,0,0,1,2.42-2.85c1.37-1.18,0,3,1.13,1.94-.13-.14.15-1.07.28-1.45.69-.86.24.67,1.39-1.39-.37-.69,2.64-4,.11-1.24a13,13,0,0,1,1.31-2.06c.41-.53.84-1.1,1.63-2.2-.85.47.16-2.88,1.44-4.88.05.22.56-.06.8-.2a58.24,58.24,0,0,1,4-4.55c1.24-1.3,2.43-2.59,4-4.17.41-.19,2-1.6,1.61-.73a8.11,8.11,0,0,1,1.57-2.1c2.32-1.4-2.14,2.18-.19,1.28-.15-.39,2.16-2.83,3.43-4.34-.86-.05-3.38,3-4.57,4.56-.31-.29,0-1.22.76-2.47a26.63,26.63,0,0,1,3.69-4.61c2.7-2.62,1.58-.65,2-1.17,5.52-4.31,3.77-4.95,8.91-7.87,2.24-.84.68.83,1.33.86-2.35,1.92-4,2.37-5.63,3.66.7-.46,1.44-.88,2.18-1.3a22.35,22.35,0,0,1-3.16,2.6A17.13,17.13,0,0,0,54.09,37c1.07-.71,2.36-1.62,3.74-2.59s2.93-1.88,4.37-2.78a42.92,42.92,0,0,1,4.13-2.2c.73-.64,2.09-1.6,1.3-1.41L66.19,29c-1.58.41,2.5-2.13.52-1.23.92-.71,1.94-1.4,3.07-2.14a18.77,18.77,0,0,1,4-2l.81.31A6.7,6.7,0,0,0,71.73,25c1.11-.83,4.85-1.32,5.89-2.63-.76.14-1.5.35-2.25.53l1.56-1c.56-.33,1.14-.67,1.75-1a18.39,18.39,0,0,1,3.92-1.71c-1.46-.15-.6.29-2.79.37,1,.08-.74.76-2.34,1.39s-3,1.34-1.55,1.15a9.46,9.46,0,0,0-2.94.71c-.47.17-1,.35-1.51.53a16.24,16.24,0,0,1-1.83.55c.17.14,1-.11-1.17.92a3,3,0,0,1-.4.4l-.15.06.13,0c-.08.08-.09.09,0,0a4.58,4.58,0,0,1,1.25-.3,14.71,14.71,0,0,1-2.61,1.83c-1.07.71-2.16,1.4-2.66,1.83-1.3.64.4-.5-.39-.29l-1.51,1.28c-.39-.29-3.63,1.44-.89-.63l-2.6,1.64a20.72,20.72,0,0,0-4.92,3.17c-1.26.74-2.64,2.59-1.85,1.53l-3.62,3.2-.11-.06c-.92.76-1.8,1.59-2.69,2.43s-1.78,1.71-2.65,2.63-1.8,1.81-2.77,2.68a37.08,37.08,0,0,1-3,2.66c-1,1.21-2,2.59-3.85,4.52l-.64.15c-.63.81-1.63,2-2.56,3.05a8.58,8.58,0,0,0-1.79,2.53c-2.18,1.17-6,8.09-7.76,11.23l.37.37A27.72,27.72,0,0,0,19.1,74c-.54,1.18-1.1,2.43-1.69,3.86l.49,0a27.58,27.58,0,0,1-2,4.49c-.85,1.7-1.74,3.6-2.5,5.56a5.42,5.42,0,0,1,.75-2c-1.45,2.14-2,4.77-2.68,7.28-.26,1.28-.49,2.55-.79,3.75-.15.6-.31,1.19-.5,1.76a14.7,14.7,0,0,1-.56,1.66A9.63,9.63,0,0,1,9,103.09c0-.11,0-.2,0-.28l-.11.45c-.18.47-.42.95-.57,1.49.18-.45.39-.87.51-1.25A28.78,28.78,0,0,0,8.33,107l-.57.46,0,.3c-.4,1.23,0,1.05.52.44a17,17,0,0,0,0,1.74c-.92.91-.18,3.4-1.18,4.7A5.9,5.9,0,0,1,7.11,116c0,.67,0,1.48,0,2.29,0,1.61.07,3.2.48,3.56-.11,0-.18.42-.16-.28a16.71,16.71,0,0,0-.06,4.17l-.63.6c.23,1.05.54,2.1.84,3.14-.32,1.91-.52,2.72-1,.83.82,4.57.43,3.73,1.41,7.55l-.41-.15c.08,1.4.93,3.54.7,4.41-.21,1.59.32,5.43,1.24,9.81.5,2.18,1,4.52,1.63,6.77.28,1.13.57,2.25.84,3.33s.59,2.1.83,3.08c.3-.92.48,0,.7,1.16s.58,2.53,1,2.52c-.09.53.18,1.63-.52.51,1.7,3.74,2,5.87,3.86,8.15-.05.54-.74-.63-.71-.18a4.88,4.88,0,0,1,.84,1.53c0,.44-.48-.44-.89-1,2,3.74,2.92,3.72,3.76,3.61a7.63,7.63,0,0,0,2.48,4c.14.76.52,2-.86-.23l.95,1.78c.46.78,1,1.7,1.57,2.57s1.1,1.71,1.56,2.29.85.92,1,.86a8.22,8.22,0,0,0,1.42,2c.92,1.35,1.47,2.05,2,2.76s1.08,1.38,2.09,2.63l-.46-.77c1.35.53,1.83,1.93,3.59,3.83h-.11A20.3,20.3,0,0,0,38,205.49a9.49,9.49,0,0,0,.89.87,7.41,7.41,0,0,1,.87.86l1.91,2.26.1-.56c.56-.18,1.38.81,2.42,2.12a18.1,18.1,0,0,0,3.77,3.8l-.75-1a9.38,9.38,0,0,1,2.31,2.72,18.67,18.67,0,0,0,2.21,2.93c.27.33-.6-.28-1.09-.58,1.75,1.77,2,1.72,2.14,1.52s.24-.57,1.77.43c.35.67-1.22.2.76,1.68a6.69,6.69,0,0,0,1.41.95c.7.37,1.58.77,2.51,1.24s1.9,1,2.81,1.49a13.51,13.51,0,0,1,2.42,1.58c-.52-.59-1-1.18.55-.51a18.48,18.48,0,0,1,1.88,1.2L69,229.87a10.22,10.22,0,0,0,4.21,1.85c.27.2.36.32.34.38,1,.3,2.45.92,3.89,1.39a18.38,18.38,0,0,0,3.46.84c.53,1.15,3.55,1.93,6.31,2.64s5.37,1.06,5.15,1.8c2,.48,4,.88,6,1.32l-.19.12c3.84.8,5.26.71,6.67.52.87.22.2.28.12.35,5.6,1.06,6.22,1,11,.55l.47.51a41.75,41.75,0,0,1,5.31.33,38,38,0,0,0,8.53-.36c0,.06-.16.16-.6.27,3.12-.47,6.9-.6,10.18-.9a39.56,39.56,0,0,0,4.36-.7,5,5,0,0,0,2.59-1.34c1.31-.47,2.63-.88,3.92-1.39-5.22,1.13.58-.92-1.62-.71,2-.59,5.34-.92,2.9-.12l-.42,0c-.33.58,1.29.21,3-.23s3.46-1.09,3.5-.74a119.07,119.07,0,0,0,27.8-13.13H184.5c1-.59,1.92-1.26,2.87-1.91.83-.39,1.32-.24-.71,1.17a8.2,8.2,0,0,0,3.13-2.85c2-1.34,1.75-.91,1.16-.21s-1.59,1.56-1,1.14,1.06-.83,1.58-1.26l-.41.21a15,15,0,0,1,3.37-3.38c1.51-1.12,1-.29,1.59-.75,0,0,.24-.1.87-.73,1.12-.93,2.24-1.86,3.29-2.87l-1.65.78c1.2-1.54,3-2.8,1.08-1.89a15.76,15.76,0,0,0,3.07-2.28c1.22-1.17,2.63-2.57,3.95-4s2.54-2.93,3.52-4.12a27.09,27.09,0,0,1,2-2.43c.33-.6.69-1.17,1.06-1.74s.72-1.17,1.11-1.76c.76-1.19,1.7-2.35,2.58-3.74-.54.62-1.34.67.25-1.66.28.79,1.1-.22,2.11-1.62a20.07,20.07,0,0,1,3.07-4c-1.48,1.54,3.6-7.27,1.31-4.8,1.16-2.07.53.1,1.6-1.39,2-5.31,5.25-11.36,7-18.19-.14-.16-.72.9-.57-.62.63-1.1,1.25-2.21,1.79-3.35.23-1.38-.7-1.47.46-3.8-.23.32-.56.79-.41-.12a82.66,82.66,0,0,0,2.49-20.66c.14-7-.35-14-.66-21.06,0,1.92-.27.68-.51-.74.07.94-.43,0-.64.27-.1-1.94-.24-3.89-.45-5.84-.83-.9-1.5-6.07-2.32-6.48.2.59.41,1.16.6,1.75-1.33-2.16-.75,3.71-1.8,3.57.73,1.21.79,3,.9,5a18.06,18.06,0,0,0,1.12,6.26c-.08,1-.41-.77-.57-.23a10.38,10.38,0,0,1,.85,4.87l-.12-.28c.66,6.95.28,10-.39,17.75l.51-.55a15.62,15.62,0,0,1-.54,2.79c.57,2,.4-4.7,1.06-2.9a9.27,9.27,0,0,0-.64,2.79l-.23,2-.29,2.13a38.93,38.93,0,0,1-.64,3.95,5.48,5.48,0,0,1-.92,2.28c-.46,2.54.67-.65.21,1.9-.14.2-.26.41-.41.61l.22.71c-.44,1.65-1,2.39-1.25,2.4.12-.4.19-1.15.27-1.58a24.83,24.83,0,0,0-1,3.86c-.31,1.32-.55,2.49-.7,2.83l.85-2.33c-.43,1.7-.86,3.52-1.44,5.32s-1.17,3.67-1.89,5.47c-1.37,3.63-2.87,7.17-4.13,10.35l.44-.37a23,23,0,0,1-2.14,4.26,38.49,38.49,0,0,0-2.66,4.41l.06-.21a20.62,20.62,0,0,1-2,3.74c.56-1.35-1.89,2-1.11.26-2.88,4.86-1.29,2.49-2.84,6l-.83.45a11.66,11.66,0,0,1-2.17,3.72c1.27-2-1.61,1-.25-1.25-4.45,4-5.33,7.21-8.11,8.35-.65,1.3.43.54,1.46-.48s2.1-2.23,1.64-1.59c1.13-.73-1,2.23-2.45,3.45s-3.22,1.39-6.86,4.5c.36-.31.34-.39.7-.69a13.63,13.63,0,0,0-2,1.78,11.09,11.09,0,0,1-2.43,1.79,4.57,4.57,0,0,1-1.34,1.45c-.48.37-.87.68-.78,1.1,1.19-.87,2.27-1.89,3.4-2.84-.93.85-1.68,1.86-2.72,2.86a18.9,18.9,0,0,1-4.15,3,17.83,17.83,0,0,1,1.7-1.78c-1.11.51-1.81,1.48-3,1.94-.11-.81,4.36-3.15,6.12-5.28-1.18.57-3.77,3.42-3.16,2a6,6,0,0,1-2.61,2.36,14.16,14.16,0,0,0-3.65,2.64l-.07-.53a12.77,12.77,0,0,1-2,1.52l1.17-1.38c-2,1.76-4.58,2.16-6.7,3.5,2.34-1.2,2.67-1.21,2.68-1s-.28.64.78.24c-2.73,1.83-3.74,1.94-4.81,2.1a15.12,15.12,0,0,0-5.54,1.82c.86-.46,3.48-1.26,2.17-.42-.66.24-1.42.51-2.12.73a10.4,10.4,0,0,1-1.82.39c-4.44,1.85.87.18-.93,1.2-1.74.06-2.11,1.13-4.08,2l-.17-.45c-5.32,1.45-1.05,1.5-6,2.53l1.83-1.22-2.44.87.36-.67a19,19,0,0,1-6.19,1.71c.69.17-.15,1-2.56,1.45-1.7,0,.83-.61-2.57.06a4.24,4.24,0,0,1,3.05-.78c.13-.18.7-.44.82-.63a35.87,35.87,0,0,0-5.65,1,8.19,8.19,0,0,1,1.34-.13c-1.59.55-3.23.92-4.86,1.37-.81-.08-.2-.3.4-.52-1,.16-1.67.52-3.16.68.35-.42.22-.79,2.28-1.24-1.54.37-3.11.61-4.68.88-.34-.15-2.46-.28-1.86-.47-2.62-.11-6.43,1-9.93.57a5,5,0,0,1-1.29.17c-1.65-.07-3.18-.4-4.79-.57a48,48,0,0,0-5.27-.36c-.7-.33-1.39-.64-2.08-1-3-.38,2.81,1.4-2.24.77-3.6-.41-1.22-.83-2.42-1.24a24.28,24.28,0,0,1-3.58-.18,19.61,19.61,0,0,1-2.22-.39,13.28,13.28,0,0,1-2.29-.85C93,234.33,93.8,234.7,94.82,234.86ZM60.35,220c.68.31,2.07.83,2.37,1.36C61.72,221.39,61.31,220.81,60.35,220ZM21.59,178.09a5.84,5.84,0,0,1,1,2.15A11.38,11.38,0,0,1,21.59,178.09Zm35.26-146-.05.07C55.31,33,55.84,32.7,56.85,32.09Zm3.08-1.74c.26-.25.2-.29,0-.27a6.14,6.14,0,0,1-1.58,1.13A3.33,3.33,0,0,0,59.93,30.35ZM196.29,214.93l-.6.35C196.77,214.17,196.52,214.54,196.29,214.93Z"/><path class="cls-1" d="M25.3,183.54a.53.53,0,0,1-.07.4C25.45,184.15,25.53,184.11,25.3,183.54Z"/><path class="cls-1" d="M118,237.79h.11a.34.34,0,0,0,.12-.08Z"/><path class="cls-1" d="M25.86,71.26a5.83,5.83,0,0,1-.89,1C25.06,72.39,25.3,72.17,25.86,71.26Z"/><path class="cls-1" d="M76.09,20.89l-2,1.05a9.83,9.83,0,0,1,1.93-.7C75.91,21.16,75.45,21.19,76.09,20.89Z"/><path class="cls-1" d="M95.5,17.67c.3-.13.67-.16,1-.29l-.14-.2C95,17.5,94.09,17.9,95.5,17.67Z"/><path class="cls-1" d="M78.65,21.59c.31.31,1.56-.33,3-1l-.26.1C81.62,20,80.12,20.8,78.65,21.59Z"/><path class="cls-1" d="M82,20.47A10.07,10.07,0,0,1,83.34,20C83.44,19.71,82.76,20.11,82,20.47Z"/><path class="cls-1" d="M63.61,27.8c.7-.29.15-.69.6-.76C64.68,26.18,60.18,30.08,63.61,27.8Z"/><polygon class="cls-1" points="80.32 22.37 79.61 22.11 78.95 22.8 80.32 22.37"/><path class="cls-1" d="M69,27.12l2.27-1c-.07-.06.19-.25.52-.46A16.5,16.5,0,0,0,69,27.12Z"/><path class="cls-1" d="M71.8,25.65a19.22,19.22,0,0,0,1.78-.93A16.47,16.47,0,0,0,71.8,25.65Z"/><polygon class="cls-1" points="77.23 23.77 76.52 23.97 74.91 24.66 77.23 23.77"/><path class="cls-1" d="M47,42.12c-.65.63-1.32,1.24-2,1.9-.08.32.52-.13,1.24-.83C46.65,42.68,47.37,42,47,42.12Z"/><path class="cls-1" d="M54.13,38a3.1,3.1,0,0,1-1.16.43l.31.54Z"/><path class="cls-1" d="M48.16,43.07c-.09.31-2.6,2.91-.07.67C48.18,43.43,50.12,41.57,48.16,43.07Z"/><path class="cls-1" d="M22.32,74c.1-.2.22-.4.33-.6l-.94-.4Z"/><path class="cls-1" d="M13,108.14c.8-3-.53-.86.34-3.57,0-.39-.22.16-.41.72s-.31,1.11-.35.72C12.48,107.93,12.16,108.88,13,108.14Z"/><path class="cls-1" d="M12.56,106l0-1A6.2,6.2,0,0,0,12.56,106Z"/><path class="cls-1" d="M233.46,99c-.11-.7-.2-1.4-.33-2.09l0,1.4Z"/><path class="cls-1" d="M231.67,95.29l.48-.65-.92-1A5.72,5.72,0,0,1,231.67,95.29Z"/><path class="cls-1" d="M56.53,215.74l-.22,0c.15.32.53.6,1.28,1.17Z"/><polygon class="cls-1" points="79.89 229.44 79.46 229.25 80.06 230.12 79.89 229.44"/><path class="cls-1" d="M101.91,235.08c-.91-.2-2-.22-2.91-.46C101,234.92,102,235.83,101.91,235.08Z"/><path class="cls-1" d="M271.33,119c.28.9.56.45.68.56C271.4,118.07,271.24,119.05,271.33,119Z"/><path class="cls-1" d="M264.51,105.12l.28.17c-.46-.62-.92-1.23-1.4-1.83C263.78,104,264.15,104.56,264.51,105.12Z"/><path class="cls-1" d="M257.31,92.71c.16,1.51,2.94,4.29,4,6.66l.07.45,1.07.72C260.84,97.85,258.36,94.63,257.31,92.71Z"/><path class="cls-1" d="M254.07,85.54c.06.56-1.19-1.19,1,1.51a3.2,3.2,0,0,1-.14-.31C254.75,86.49,254.5,86.14,254.07,85.54Z"/><path class="cls-1" d="M255,86.74c.93,1.22-.42-.94,0,0Z"/><path class="cls-1" d="M250.41,81.32l1.49,1.38c-.14-.43-1.28-1.83-.76-1.39C249.7,79.81,249.85,80.25,250.41,81.32Z"/><path class="cls-1" d="M248.77,80.21c.26.23.51.48.76.72C249.46,80.75,249.31,80.51,248.77,80.21Z"/><path class="cls-1" d="M251.13,82.47l-1.6-1.54c.1.3-.05.47.72.72C250,81.65,250.41,81.85,251.13,82.47Z"/><path class="cls-1" d="M251.84,83.51c.58,1,1.41,2.17,0,.75C254.26,87.2,254.31,86.46,251.84,83.51Z"/><path class="cls-1" d="M256.3,92.51l.64,1.36.9.94C257.39,94.34,256.44,92.3,256.3,92.51Z"/><path class="cls-1" d="M242,71.93c-.2,0,.2.77.18,1l1.18.92C242.93,73.25,242,72.17,242,71.93Z"/><path class="cls-1" d="M242.22,72.94c-.58-.46-1.2-.88-1.81-1.32C241.87,73,242.18,73.16,242.22,72.94Z"/><path class="cls-1" d="M247.94,80.47c.95.77,1.84,1.59,2.77,2.4-1.08-1-2.13-2-3.24-2.91Z"/><polygon class="cls-1" points="235.63 66.3 236.84 66.83 234.75 65.82 235.63 66.3"/><path class="cls-1" d="M231.13,62.87c.93.32-.75-1.16.16-.71a19.71,19.71,0,0,0-3.59-1.93A15.06,15.06,0,0,1,231.13,62.87Z"/><path class="cls-1" d="M225.86,59.41c.56.28,1.17.54,1.84.82A12.59,12.59,0,0,0,225.86,59.41Z"/><path class="cls-1" d="M237.65,69a3.15,3.15,0,0,0-1.05-1.47l.4.88C237.21,68.62,237.43,68.83,237.65,69Z"/><path class="cls-1" d="M237,68.48l0,0-1.44-1.21Z"/><path class="cls-1" d="M237.82,69.19l-.17-.15C237.69,69.12,237.72,69.17,237.82,69.19Z"/><path class="cls-1" d="M244.28,76c-1.07-.77-3.19-2.45-1.58-.37C243.56,76.05,242.66,74.83,244.28,76Z"/><path class="cls-1" d="M238.27,70.31,239.94,72c.05-.11-.16-.51.4-.17Z"/><polygon class="cls-1" points="237.32 69.64 238.27 70.31 237.65 69.7 237.32 69.64"/><path class="cls-1" d="M229,62c-.92-.47-1.86-1.07-2.93-1.73.54.4,1.09.81,1.65,1.2l1.61,1.22C229.54,62.71,230.15,62.86,229,62Z"/><path class="cls-1" d="M232.94,65.1l-.19-.13C232.83,65.09,232.91,65.17,232.94,65.1Z"/><path class="cls-1" d="M215.4,54l.14.16.08,0Z"/><path class="cls-1" d="M229.45,62.91a6.44,6.44,0,0,0,1.86,1.17c-.64-.41-1.3-.86-2-1.37C229.21,62.71,229.17,62.73,229.45,62.91Z"/><path class="cls-1" d="M222.84,57.68l1.35,1.15C223.84,58.43,223.07,57.67,222.84,57.68Z"/><path class="cls-1" d="M232.55,64.67a.35.35,0,0,1,.13.08C232.47,64.47,232.48,64.53,232.55,64.67Z"/><path class="cls-1" d="M232.55,64.67a12.25,12.25,0,0,0-1.24-.59c.51.34,1,.63,1.44.89A3.11,3.11,0,0,1,232.55,64.67Z"/><path class="cls-1" d="M210.87,54.75c.34-.32,2.83.56,4.63,2,2.1.77,1.46-1,0-2.6-.14.12-.22.26-2.37-.61.62.57,4.3,2.83,2.41,2.24-2.79-1.22-2.14-1.29-3.37-2.14.92,1-3.83-1-3.52,0l2.51.88C211.19,54.59,210.25,54.35,210.87,54.75Z"/><path class="cls-1" d="M219.41,56.3l.85.44a28.15,28.15,0,0,1-2.61-2.12c-1.51-.57-1.87-.59-2-.53,1.39.74,2.77,1.49,4.1,2.33Z"/><path class="cls-1" d="M223.94,59c-.84-.08-2.91-1.07-1.95,0,2.36,1.47,1.83.76,3.33,1.52-3.83-2.4,1.22.51-1.38-1.49.78.42,1.47.85,2.11,1.25-.65-.49-1.28-1-1.86-1.46l.08.08h0c.13.15.17.21,0,.06l-.08,0a.53.53,0,0,1-.26,0c-1.05-.79-.11-.2.26,0l.08,0v0c-1.29-.8-2.67-1.45-4-2.17C221.05,57.31,222.13,57.84,223.94,59Z"/><path class="cls-1" d="M240.35,74.59c-.08-.13,0-.14,0-.17C240.07,74.25,240,74.2,240.35,74.59Z"/><path class="cls-1" d="M239.18,73.15a4.23,4.23,0,0,1,1.34,1c.57.74-.14.15-.21.29.54.36,1.81,1.33.53-.22l-.27-.18a13.93,13.93,0,0,1-2.32-3.11A6.52,6.52,0,0,0,239.18,73.15Z"/><path class="cls-1" d="M231.76,65.74l-3.15-2,1.31,1.43.06-.24C231.64,66.21,231.44,65.72,231.76,65.74Z"/><polygon class="cls-1" points="215.12 53.59 215.78 53.41 213.54 52.97 215.12 53.59"/><polygon class="cls-1" points="210.67 51.47 211 51.18 209.72 50.85 210.67 51.47"/><path class="cls-1" d="M60.14,199.43l.5.95A10.1,10.1,0,0,0,60.14,199.43Z"/><path class="cls-1" d="M57.42,192.21l-.25-.11C57.39,192.4,57.51,192.51,57.42,192.21Z"/><path class="cls-1" d="M95.62,61.78c-1.52.66-3.34,1.28-2.91,1.52l.66.05A14,14,0,0,1,95.62,61.78Z"/><path class="cls-1" d="M52.4,129.33l.24-.42-.15-1.15Z"/><path class="cls-1" d="M53.89,130.82l-.76,1.94C53.33,132.33,53.58,131.71,53.89,130.82Z"/><path class="cls-1" d="M83.84,233.89l1.19.56C83.66,233.09,84.1,233.84,83.84,233.89Z"/><path class="cls-1" d="M161.78,40.93a23.44,23.44,0,0,0-3.49-.22C160,40.89,161.34,41.31,161.78,40.93Z"/><path class="cls-1" d="M54.7,198.29c.33.6.52.84.61.79C55,198.46,54.75,198.12,54.7,198.29Z"/><path class="cls-1" d="M154.24,40.91,155,41c1-.12,2-.24,3.3-.27A11.41,11.41,0,0,0,154.24,40.91Z"/><path class="cls-1" d="M223.8,248l.32-.15C224.11,247.78,224,247.87,223.8,248Z"/><path class="cls-1" d="M258.49,218.86c-.24.4-.63,1-1,1.61A11.56,11.56,0,0,0,258.49,218.86Z"/><path class="cls-1" d="M192.12,44.5c1,.27.17,0,0,0Z"/><path class="cls-1" d="M196.49,47.57c-.23,0-.41,0-.46.09A.72.72,0,0,1,196.49,47.57Z"/><path class="cls-1" d="M144.32,44.76h-.09C144.55,44.81,144.49,44.8,144.32,44.76Z"/><path class="cls-1" d="M193.58,45.13c-.36-.16-.79-.33-1.25-.5C192.53,44.73,192.91,44.88,193.58,45.13Z"/><path class="cls-1" d="M193.43,44.88l.87.29C194.44,45.14,194.34,45.06,193.43,44.88Z"/><path class="cls-1" d="M190.7,44.18a16.67,16.67,0,0,1,1.63.45c-.19-.08-.27-.13-.21-.13Z"/><path class="cls-1" d="M145.59,266.78l.21.07C146.84,266.82,146.39,266.78,145.59,266.78Z"/><path class="cls-1" d="M78.82,82.88l.06-.1-.11.1Z"/><path class="cls-1" d="M76.73,85.83a6.76,6.76,0,0,1,.89-1.77,9.81,9.81,0,0,1,1.15-1.18L77,83C76.89,83.89,76.82,84.88,76.73,85.83Z"/><path class="cls-1" d="M68.83,215.71c-.37-.76-.67-1.56-1-2.35,1,1.15,1.85,2.17,2.27,2.64s.47.39.06-.73c-.33.11-.86-.32-1.43-1.07s-1.19-1.79-1.83-2.83L66,209.84c-.29-.5-.56-1-.83-1.35-.52-.78-1-1.28-1.32-1.2l-.52-1.6c.21.43.31.46.52.88a4.46,4.46,0,0,0-1.5-2.52,7.2,7.2,0,0,1-2-3.07c-.47-1.39-.66-2.4-.14-1.55l-1.54-2.87c-.33-.89,0-.76.31.12-.68-1.5-1.19-3.07-1.79-4.61l.05,0c-.22-.3-.54-.8-.86-1.32s-.57-1.06-.75-1.42c-.17-1.26.32.57.39.21L54.85,187c0-1.17,1,.91,1.49,2.74A3.52,3.52,0,0,0,56,187a11.6,11.6,0,0,1-.7-1.69,17,17,0,0,1-.55-3.14l.78,2.46a8.26,8.26,0,0,0-.1-2.87L55.11,180c-.07-.61-.13-1.28-.15-2,0,.35-.11,1.84-.15,2.88s-.25,1.64-.77.24a15,15,0,0,0-.84-3.45c.49-.11,0-1.6-.31-3.53l.65,0c-.48-2.05-.78-1.84-1.25-3a6.07,6.07,0,0,1,.06-2.4,3.62,3.62,0,0,1,.52-1.08c-.27-3.74-.54,2.67-1.1-1.76-.06-1.57-.08-2.9-.24-4.31-.08-.7-.18-1.42-.29-2.21s-.17-1.62-.27-2.56c.21-2.21.39.38.57-.41L51,154.47c0-.48.17-.32.25-.24-.15-1.65-.64-.15-.7-2.75-.33-.37,0-1.7.32-3.33a14.52,14.52,0,0,0,.57-5.18c.29-.76.34.42.62.21.05-2.21.07-3.15.08-4s0-1.62,0-3.46l1-3c-.44,1.07-.67.86-.78.06a23.26,23.26,0,0,1,0-3.49c-.42.73-.78,1.37-1,1.8l.63-4.09c.22-.46.34,0,.44.72l0-.77c.64-1.35.76-.52.85.58l-.73,1.34c.14,1.08.33,2.09.75,2a8.39,8.39,0,0,1,.14-1.34c0,.28.1.47.19.37a3.82,3.82,0,0,0,.05-1.25l.91-.72-.22-.29,1.9-4.94c.25-1.9.44-3.71.74-5.8.2-1,.44-2.11.76-3.31.16-.59.34-1.22.54-1.87s.48-1.32.77-2c-.16,1.59.64.64,1.17,1a4.07,4.07,0,0,0-.83,1.24,15.85,15.85,0,0,0-.6,1.77c-.36,1.31-.81,2.78-1.37,4.23.59-1.51.79-1,.71-.64l1.53-5.36c.41.31.85-.92,1.64-2.15-.68.29-.4-.72.14-2.08s1.46-3,1.84-4.08c.36,0,.41.68-.94,3.08a5.65,5.65,0,0,0,1.42-3.19,8.38,8.38,0,0,1,.37-1.54,5.26,5.26,0,0,1,1-1.61c-.33.58-.56.87-.55,1.19.54-1.51,2.71-4.72,2.49-3.78l-.33.58c.56-1,1.4-2.11,2.2-3.37.4-.63.82-1.27,1.23-1.92l1.27-1.87c.82-1.21,1.54-2.36,2.06-3.25a4.08,4.08,0,0,0,.8-1.79,3.44,3.44,0,0,1,.39,1.41l1.42-4c.5-1.34,1.07-2.63,1.62-4,.07,1,3.16.18,1,3.21A22.17,22.17,0,0,0,82,79.36c-.6.42-2,.6-1.39-.19a42.79,42.79,0,0,0,4.52-2.94c-.86.68-.86-1.06.48-2.18-.09.31.87.73.49,1.24l2.43-3.71c-.66.87.48.83,1.41.45-.49.11,2.86-2.32,3.67-3.13L92,69.84a14,14,0,0,0,3.36-3.52,14.12,14.12,0,0,1,1.23-1.61c.26-.28.56-.58.91-.9a15.16,15.16,0,0,1,1.31-.93c-.36.52-.39,2,1.72.74a29.81,29.81,0,0,1,2-3.27,19.72,19.72,0,0,1,4.3-4.32l.9-.1L110.52,54c-.73.88-2.17,2.38-3.69,4s-3.06,3.27-4.17,4.41c1.66-.75.63.06,2.92-1.35,1-.22-1,1.15-1.68,1.56l2.73-1.5c.91-.5,1.82-1,2.76-1.45-.57-.45,3.91-2.85,3.47-3.21-1,.61-1.92,1.27-2.87,1.89s-1.92,1.24-2.82,1.94c-.28-.21.31-1.16,1.54-2.22a19.58,19.58,0,0,1,5.11-3.26c1.15-.24-.26,1.44-.07,1.6a17.44,17.44,0,0,1,4.1-2.2c-.54.35-1.06.75-1.58,1.12a16.3,16.3,0,0,0,2.94-1.58,9.19,9.19,0,0,1,3.44-1.37c1-.3,3.19-.2,3.22-.64-1.82-.17-3-2.28-2.07-3.21.18,0,1.56-.33,3-.6a36.09,36.09,0,0,1,3.73-.4c1.8.09-2.07,2.11-.52,2.19,0-.2.84-.68,1.2-.87,1.09-.14-.28.66,2-.05.2-.75,4.67-1.09.93-.82a11.78,11.78,0,0,1,2.37-.59c.66-.11,1.37-.22,2.7-.48-1-.24,2.09-2,4.4-2.55-.11.19.44.34.71.41a59.54,59.54,0,0,1,6-.58c1.79-.09,3.54-.21,5.77-.28.42.15,2.57.24,1.67.58a8,8,0,0,1,2.58-.44c2.65.58-3,.11-1,.8.16-.39,3.52-.57,5.47-.79-.58-.63-4.52-.15-6.45.17,0-.43.81-.91,2.25-1.27a26.42,26.42,0,0,1,5.85-.82c3.76,0,1.6.62,2.25.53,7,.67,6.14-1,11.88.43,2.21.93-.07,1.06.38,1.53-3-.22-4.56-1-6.61-1.22.83.15,1.66.35,2.48.56a22.14,22.14,0,0,1-4.08-.29,18.39,18.39,0,0,0,2.7.48c1.26.22,2.82.45,4.49.7s3.42.65,5.09,1a41.55,41.55,0,0,1,4.5,1.25c1,0,2.62.27,1.92-.14l-1.67-.33c-1.43-.79,3.28.18,1.22-.53,1.16.12,2.37.32,3.7.56A18,18,0,0,1,199,47.94l.37.78a6.58,6.58,0,0,0-2.81-1.15c1.38.16,4.43,2.38,6.09,2.15-.65-.43-1.33-.78-2-1.17l1.83.34c.63.15,1.29.3,2,.48a18.54,18.54,0,0,1,4,1.45c-1-1.11-.64-.2-2.28-1.65.66.75-1.06,0-2.66-.61s-3.12-1.11-1.91-.22A9.45,9.45,0,0,0,199,46.83c-.46-.2-.94-.4-1.46-.65a16.31,16.31,0,0,1-1.71-.87c0,.22.84.65-1.48-.14a2.62,2.62,0,0,1-.57,0l-.15-.06.12.06c-.11,0-.12,0,.05,0a4.56,4.56,0,0,1,1.1.64,13.94,13.94,0,0,1-3.14-.47c-1.27-.22-2.54-.47-3.2-.5-1.37-.43.64-.09-.07-.48l-2-.11c-.08-.48-3.62-1.46-.21-1.07l-3-.6a20.58,20.58,0,0,0-5.75-1.08c-1.43-.34-3.7.06-2.4-.17l-4.83-.17,0-.12C169,41,167.82,41,166.59,41s-2.47,0-3.73.08-2.55.08-3.86,0a34,34,0,0,1-4-.14c-1.6.16-3.22.51-5.9.63l-.57-.33c-1,.16-2.55.32-4,.45a8.66,8.66,0,0,0-3,.6c-2.39-.64-9.9,1.78-13.37,2.81l0,.52a28.31,28.31,0,0,0-3.56,1.23c-1.2.49-2.48,1-3.88,1.64l.33.35a26.15,26.15,0,0,1-4.57,1.84c-1.79.65-3.74,1.42-5.64,2.32a5.14,5.14,0,0,1,1.9-.91c-2.52.55-4.76,2.06-7,3.43-1.06.75-2.1,1.51-3.15,2.18-.52.33-1,.65-1.57.93a16.57,16.57,0,0,1-1.55.82A9.53,9.53,0,0,1,97.23,61a2.13,2.13,0,0,0,.22-.18l-.39.26c-.46.22-1,.41-1.44.69.44-.2.88-.37,1.23-.55a27.1,27.1,0,0,0-2.75,2.18l-.73-.06-.23.19c-1.14.62-.69.8.07.68A13.37,13.37,0,0,0,92,65.47c-1.3,0-2.47,2.35-4.1,2.6A6.3,6.3,0,0,1,87,69.14c-.46.49-1,1.08-1.57,1.66-1.1,1.18-2.15,2.38-2.1,2.92-.11,0-.42.18.08-.31a16.73,16.73,0,0,0-2.92,3H79.6c-.56.92-1.06,1.89-1.55,2.85-1.55,1.17-2.25,1.62-1.33-.11-2.55,3.88-2.25,3-4.18,6.45l-.19-.4c-.9,1.07-1.76,3.21-2.52,3.68-1.25,1-3.5,4.17-5.85,8-1.14,1.92-2.4,4-3.48,6l-1.68,3c-.51,1-1,1.94-1.52,2.81.85-.46.35.33-.29,1.32s-1.32,2.24-1,2.55c-.43.33-1,1.31-.73,0-1.34,3.89-2.58,5.66-2.81,8.57-.41.36-.1-1-.39-.61a5.24,5.24,0,0,1-.44,1.68c-.28.36-.05-.65,0-1.31-1.15,4.07-.45,4.7.23,5.2a7.74,7.74,0,0,0-.93,4.59c-.43.66-1,1.8-.47-.75-.09.35-.29,1.07-.53,1.94s-.43,1.94-.63,2.95-.38,2-.45,2.74,0,1.25.13,1.31a8.42,8.42,0,0,0-.31,2.4c-.27,1.61-.35,2.5-.45,3.37s-.17,1.75-.29,3.35l.19-.88c.62,1.32,0,2.67,0,5.26l-.08-.08a20.1,20.1,0,0,0-.27,3,9.55,9.55,0,0,0,.05,1.24,8.31,8.31,0,0,1,0,1.23c0,.6-.09,1.49-.18,2.95l.47-.33c.53.25.44,1.54.29,3.2a18.47,18.47,0,0,0,.12,5.35l.15-1.24a9.29,9.29,0,0,1-.19,3.56,18.38,18.38,0,0,0-.42,3.64c0,.42-.24-.61-.38-1.17,0,2.49.25,2.62.5,2.58s.56-.25,1,1.53c-.2.73-1-.7-.6,1.74a6.58,6.58,0,0,0,.37,1.66c.25.75.62,1.65,1,2.62s.71,2,1,3a13.84,13.84,0,0,1,.67,2.81c0-.78.08-1.55.75,0a17.62,17.62,0,0,1,.54,2.17c.19.79.4,1.64.6,2.48a10.31,10.31,0,0,0,1.78,4.25c.06.33,0,.47,0,.51.48.87,1.14,2.35,1.87,3.68a16.88,16.88,0,0,0,1.93,3c-.41,1.21,1.24,3.85,2.76,6.26s3.15,4.46,2.49,4.85c1.11,1.71,2.29,3.38,3.42,5.07l-.21-.05c2.23,3.22,3.32,4.14,4.47,5,.49.76,0,.34-.15.33,3.34,4.63,3.85,5,7.61,8v.69a40.94,40.94,0,0,1,3.62,3.89,38.65,38.65,0,0,0,6.44,5.61c-.08,0-.23,0-.62-.22,2.59,1.81,5.42,4.31,8,6.36a38.38,38.38,0,0,0,3.65,2.48,4.91,4.91,0,0,0,2.8.82c1.27.56,2.51,1.17,3.8,1.69-4.56-2.78,1.06-.27-.69-1.63,1.85.94,4.51,3,2.18,1.91l-.31-.27c-.64.2.79,1,2.33,1.9s3.26,1.6,3,1.88a119.34,119.34,0,0,0,29.2,9.6l-1-.93c1.12.25,2.26.4,3.4.58.87.3,1.12.74-1.32.36a8,8,0,0,0,4.23.09c2.38.4,1.89.55,1,.65s-2.23,0-1.5.16,1.35.12,2,.17l-.45-.13a14.83,14.83,0,0,1,4.78-.14c1.86.23.93.5,1.67.56,0,.05.24.09,1.13.07,1.46.09,2.91.19,4.37.18l-1.74-.58c1.94-.28,4.09,0,2.09-.62a15.59,15.59,0,0,0,3.8.46c1.68,0,3.68-.05,5.63-.2s3.85-.37,5.39-.56a27.26,27.26,0,0,1,3.14-.37c.65-.2,1.31-.37,2-.53s1.32-.36,2-.52c1.37-.34,2.85-.53,4.45-.93-.82.08-1.43-.44,1.32-1-.34.77,1,.61,2.65.29a20.09,20.09,0,0,1,5-.82c-2.12.1,7.62-2.79,4.26-2.59,2.27-.69.32.45,2.12.1,5.08-2.49,11.63-4.62,17.59-8.39,0-.2-1.14.16,0-.83,1.21-.36,2.42-.75,3.6-1.2,1.11-.84.5-1.55,2.95-2.44-.38.07-.95.18-.21-.37a82.47,82.47,0,0,0,16-13.28c4.94-5,9.4-10.42,14-15.72-1.35,1.37-.67.3.13-.89-.59.72-.34-.27-.64-.25,1.26-1.48,2.5-3,3.69-4.54,0-1.23,3.08-5.44,2.77-6.3-.25.56-.5,1.12-.76,1.68.52-2.48-3.1,2.17-3.77,1.35-.3,1.38-1.5,2.73-2.79,4.25a18.23,18.23,0,0,0-3.5,5.31c-.73.66.24-.85-.24-.56a10.73,10.73,0,0,1-2.74,4.12l.1-.29c-4.3,5.5-6.67,7.44-12.5,12.61l.75,0a16.46,16.46,0,0,1-2.31,1.65c-1,1.83,3.53-3.14,2.76-1.38a9.74,9.74,0,0,0-2.38,1.58L234.37,241l-1.67,1.34a36.42,36.42,0,0,1-3.19,2.42,5.49,5.49,0,0,1-2.23,1c-2.08,1.53.93,0-1.16,1.53-.24.05-.47.11-.72.15l-.33.68c-1.45.88-2.36,1-2.55.87.35-.2.93-.7,1.28-1a24,24,0,0,0-3.38,2.12c-1.14.74-2.11,1.42-2.46,1.56l2.22-1.1c-1.49.94-3,2-4.71,2.87s-3.37,1.85-5.13,2.66c-3.49,1.69-7,3.23-10.12,4.67l.57,0a23.34,23.34,0,0,1-4.48,1.62,37.93,37.93,0,0,0-5,1.36l.18-.11a20.56,20.56,0,0,1-4,1.33c1.34-.6-2.76.15-1-.58-5.44,1.54-2.65.92-6.19,2.4l-.92-.24a11.75,11.75,0,0,1-4.13,1.19c2.3-.58-1.89-.35.68-1.07-6-.13-8.83,1.56-11.63.47-1.36.5-.07.69,1.39.66s3-.17,2.29,0c1.31.24-2.25.94-4.16.82s-3.29-1.21-8.08-1.46c.48,0,.52-.05,1,0a13.51,13.51,0,0,0-2.71-.11,11.24,11.24,0,0,1-3-.38,4.58,4.58,0,0,1-2,.13c-.6-.06-1.1-.11-1.33.26,1.47.19,3,.19,4.43.29-1.26,0-2.51.19-3.94.19a18.87,18.87,0,0,1-5.1-.64,16.78,16.78,0,0,1,2.45-.13c-1.16-.39-2.33-.17-3.52-.66.48-.66,5.34.71,8.07.38-1.24-.4-5.08-.11-3.64-.75a6,6,0,0,1-3.52-.08,14.59,14.59,0,0,0-4.46-.6l.31-.43a12.54,12.54,0,0,1-2.53-.3l1.81-.19c-2.68-.11-4.82-1.6-7.28-2.08,2.52.74,2.77,1,2.64,1.11s-.64.28.4.71c-3.24-.55-4.05-1.16-4.93-1.78a14.92,14.92,0,0,0-5.28-2.49c1,.25,3.39,1.48,1.87,1.18-.64-.27-1.38-.6-2-.93a9.89,9.89,0,0,1-1.59-1c-4.49-1.71.51.73-1.5.24-1.31-1.16-2.31-.64-4.31-1.39l.19-.45c-4.86-2.61-1.8.37-6.06-2.26l2.17.38-2.38-1,.73-.23a19.3,19.3,0,0,1-5.67-3c.39.59-.79.61-2.86-.72-1.24-1.16,1,.13-1.9-1.72a4.19,4.19,0,0,1,2.75,1.53c.21,0,.81.17,1,.11a36.4,36.4,0,0,0-4.76-3.2,9.56,9.56,0,0,1,1.07.84c-1.54-.7-3-1.56-4.48-2.36-.53-.61.07-.35.65-.1-.84-.57-1.57-.77-2.76-1.67.54-.07.7-.43,2.51.66-1.38-.79-2.68-1.7-4-2.59-.14-.33-1.6-1.89-1-1.62-1.83-1.87-5.38-3.67-7.6-6.41a5,5,0,0,1-1.06-.77c-1.14-1.19-2-2.48-3.08-3.71A47,47,0,0,0,76,225.51c-.28-.72-.57-1.43-.83-2.15-1.93-2.36,1.07,2.95-2.16-1-2.32-2.78-.31-1.44-.9-2.57a24.61,24.61,0,0,1-2.47-2.59,20.74,20.74,0,0,1-1.34-1.81,11.51,11.51,0,0,1-1.07-2.2C67.88,214.08,68.2,214.9,68.83,215.71Zm-14.78-34.5c.27.69.92,2,.77,2.62C54.09,183.15,54.19,182.46,54.05,181.21Zm.72-57.08a5.58,5.58,0,0,1-.76,2.23A12.27,12.27,0,0,1,54.77,124.13ZM180.85,42.48h-.09C179.11,42.06,179.69,42.22,180.85,42.48Zm3.42.85c.36,0,.35-.07.22-.16a6.45,6.45,0,0,1-1.92-.27A3.3,3.3,0,0,0,184.27,43.33ZM156.16,271.09l-.68-.16C157,270.86,156.59,271,156.16,271.09Z"/><path class="cls-1" d="M53.72,130.63a.56.56,0,0,1-.33.25C53.4,131.18,53.49,131.2,53.72,130.63Z"/><path class="cls-1" d="M83.62,233.78l.08.09a.42.42,0,0,0,.14,0Z"/><path class="cls-1" d="M131.4,49.56a6.34,6.34,0,0,1-1.36.15C130,49.83,130.37,49.84,131.4,49.56Z"/><path class="cls-1" d="M202.51,47.59,200.32,47a8.7,8.7,0,0,1,1.88.82C202.19,47.66,201.84,47.37,202.51,47.59Z"/><path class="cls-1" d="M218.81,58.62c.31.11.59.34.9.45l0-.24C218.55,58.14,217.63,57.81,218.81,58.62Z"/><path class="cls-1" d="M203.88,49.86c0,.44,1.37.84,2.85,1.35l-.26-.1C207.13,50.76,205.5,50.31,203.88,49.86Z"/><path class="cls-1" d="M207.07,51.34a9.9,9.9,0,0,1,1.33.58C208.66,51.8,207.89,51.61,207.07,51.34Z"/><path class="cls-1" d="M188.7,44c.71.28.58-.39,1-.13C190.59,43.57,184.64,43.31,188.7,44Z"/><polygon class="cls-1" points="204.56 51.57 204.23 50.9 203.27 50.95 204.56 51.57"/><path class="cls-1" d="M193.08,47.24l2.35.83c0-.09.3,0,.69,0A15.93,15.93,0,0,0,193.08,47.24Z"/><path class="cls-1" d="M196.12,48.09a20,20,0,0,0,1.93.55A16.8,16.8,0,0,0,196.12,48.09Z"/><polygon class="cls-1" points="201.36 50.46 200.7 50.13 199.06 49.52 201.36 50.46"/><path class="cls-1" d="M166.75,42.93c-.9,0-1.81,0-2.71,0-.28.17.46.26,1.46.25C166.15,43.14,167.16,43.12,166.75,42.93Z"/><path class="cls-1" d="M174.79,44.91a3.27,3.27,0,0,1-1.14-.49l-.14.61Z"/><path class="cls-1" d="M167,44.46c-.28.16-3.89.32-.51.43C166.75,44.74,169.43,44.71,167,44.46Z"/><path class="cls-1" d="M126.94,49.12c.21-.08.43-.14.65-.21l-.4-.94Z"/><path class="cls-1" d="M96.67,67.45c2.67-1.64.21-1,2.71-2.35.24-.31-.28,0-.79.23s-1,.6-.75.29C96.46,67,95.57,67.43,96.67,67.45Z"/><path class="cls-1" d="M97.84,65.62l.7-.7A6,6,0,0,0,97.84,65.62Z"/><path class="cls-1" d="M262.93,212.56c.4-.59.81-1.16,1.2-1.75l-.95,1Z"/><path class="cls-1" d="M264.17,208.65l.8-.15,0-1.39A5.64,5.64,0,0,1,264.17,208.65Z"/><path class="cls-1" d="M54.21,175.48l-.18-.12a4.15,4.15,0,0,0,.13,1.72Z"/><polygon class="cls-1" points="61.73 201.5 61.55 201.07 61.38 202.11 61.73 201.5"/><path class="cls-1" d="M73.82,220.75c-.52-.77-1.31-1.55-1.79-2.34C73.27,220,73.39,221.37,73.82,220.75Z"/></g></svg>